<?xml version="1.0" standalone="no"?>
<!DOCTYPE svg PUBLIC "-//W3C//DTD SVG 1.1//EN" "http://www.w3.org/Graphics/SVG/1.1/DTD/svg11.dtd" >
<svg xmlns="http://www.w3.org/2000/svg" xmlns:xlink="http://www.w3.org/1999/xlink" version="1.1">
<metadata>
Created by FontForge 20170812 at Wed Sep 12 11:24:36 2012
 By root
Copyright (c) 2012 by Michael Everson and IACS. All rights reserved.
</metadata>
<defs>
<font id="Antinoou" horiz-adv-x="1099" >
  <font-face 
    font-family="Antinoou"
    font-weight="400"
    font-stretch="normal"
    units-per-em="2048"
    panose-1="2 0 5 3 2 0 0 2 0 3"
    ascent="1638"
    descent="-410"
    x-height="928"
    cap-height="1356"
    bbox="-1239 -640 6372 2019"
    underline-thickness="50"
    underline-position="-273"
    unicode-range="U+0009-1D51A"
  />
<missing-glyph horiz-adv-x="512" 
 />
    <glyph glyph-name="fi" unicode="fi" horiz-adv-x="1139" 
d="M1113 0h-488v41q46 0 77 7t49.5 27.5t26 57t7.5 95.5v500q0 123 -56 123h-358v-603q0 -131 27 -165q31 -41 159 -46v-37h-531v37q47 0 78.5 7.5t50.5 29t27 60t8 101.5v616h-164v77h164q-1 8 -1 17v17q0 93 35 174.5t96.5 141.5t144.5 94.5t179 34.5q63 0 120 -10
t100 -28t68 -44t25 -58q0 -82 -82 -82q-51 0 -145 79t-153 79q-45 0 -85 -26t-69.5 -68t-46.5 -95t-17 -106q0 -59 12 -120h593v-686q0 -112 19 -146q30 -55 130 -55v-41z" />
    <glyph glyph-name="fl" unicode="fl" horiz-adv-x="1139" 
d="M1070 0h-440v31q40 4 66.5 12t42 24t22 41.5t6.5 63.5v684h-385v-694q0 -35 5.5 -58t21.5 -38t44.5 -23t73.5 -12v-31h-458v31q94 0 122 46q19 31 19 138v641h-141v66h145q0 283 112 380t232 97q22 0 59 -8t72 -17.5t62 -17.5t30 -8q10 0 31 7.5t44 17t43.5 17.5t29.5 9
l10 -4v-1229q0 -40 5.5 -66t19.5 -41.5t39.5 -21.5t66.5 -6v-31zM767 922v288q-14 -14 -31 -14q-58 0 -113 73q-57 74 -106 74q-36 0 -61.5 -18t-42 -58.5t-24 -104.5t-7.5 -157v-83h385z" />
    <glyph glyph-name="f_f_i" unicode="ffi" horiz-adv-x="1680" 
d="M1657 0h-488v41q46 0 76.5 7t49 27t26.5 57t8 96v500q0 123 -56 123h-358v-603q0 -131 26 -165q33 -41 159 -46v-37h-531v37q46 0 77.5 7t51 28t27.5 60t8 103v616h-418v-603q0 -132 26 -166q31 -40 160 -45v-37h-531v37q47 0 78.5 7.5t50.5 29t27 60.5t8 101v616h-164
v77h164q12 478 360 478q45 0 84.5 -9.5t69.5 -27.5t47 -44t17 -58q0 -82 -82 -82q-51 0 -104 74q-53 75 -99 75q-118 0 -118 -226q0 -120 6 -180h418q-1 8 -1 17v17q0 96 35.5 177.5t97.5 141t144.5 93t177.5 33.5q65 0 122.5 -10t100 -28.5t67 -44.5t24.5 -57
q0 -82 -82 -82q-46 0 -146 79t-152 79q-45 0 -85 -26t-69.5 -68t-46.5 -95t-17 -106q0 -59 12 -120h593v-686q0 -111 19 -146q28 -55 130 -55v-41z" />
    <glyph glyph-name="f_f_l" unicode="ffl" horiz-adv-x="1637" 
d="M1571 0h-441v31q39 4 65.5 12t42.5 23.5t23 41t7 64.5v679h-385v-689q0 -34 5.5 -57.5t21 -38.5t44 -23t74.5 -12v-31h-459v31q95 0 123 46q19 31 19 138v636h-396v-603q0 -132 26 -166q31 -40 160 -45v-37h-531v37q47 0 78.5 7.5t50.5 29t27 60.5t8 101v616h-164v77h164
q12 478 360 478q45 0 84.5 -9.5t69.5 -27.5t47 -44t17 -58q0 -82 -82 -82q-51 0 -104 74q-53 75 -99 75q-118 0 -118 -226q0 -120 6 -180h400q0 110 22.5 197.5t66.5 148t108 93t147 32.5q18 0 51.5 -8t68.5 -17.5t64.5 -17.5t38.5 -8t30 7.5t44 17t43.5 17.5t29.5 9l11 -4
v-1229q0 -40 6 -66t20.5 -41.5t40 -21.5t64.5 -6v-31zM1268 922v288q-14 -14 -31 -14q-52 0 -113 73q-63 74 -106 74q-36 0 -62 -17.5t-42 -57.5t-23.5 -104.5t-7.5 -158.5v-83h385z" />
    <glyph glyph-name="uni03E20300" unicode="&#x3e2;&#x300;" horiz-adv-x="1963" 
d="M1087 1489q0 -40 -100 -47q-58 57 -306 250q-13 10 -64 17l-7 1q-50 7 -50 33q0 40 62 49q23 4 93 11q12 4 22 4q64 0 207 -128t143 -190zM1913 565q0 -272 -153 -515q-129 -206 -331 -343q-223 -150 -447 -150q-39 0 -44 43l5 12q133 43 241 99q260 134 344 302
q-94 -41 -198 -41q-152 0 -233 17q-117 24 -216 99q-135 -116 -271 -116q-256 0 -416 224q-144 202 -144 468q0 291 146 493q164 227 445 227q41 0 41 -38q0 -59 -93 -59q-168 0 -248 -193q-52 -126 -52 -311q0 -256 75 -455q98 -262 291 -262q217 0 217 532v447
q0 36 -62 107.5t-62 83.5q0 45 63 92q59 44 106 44q68 0 120 -38q57 -42 57 -108v-929q0 -110 96 -176q80 -55 183 -55q166 0 240 182q54 135 54 350q0 250 -74 439q-53 137 -130 197q-35 27 -118 45q-40 9 -81 18q-15 13 -15 49q0 28 9 35q9 4 33 4l68 -1q266 -4 418 -260
q136 -228 136 -559z" />
    <glyph glyph-name="uni03E30300" unicode="&#x3e3;&#x300;" horiz-adv-x="1577" 
d="M883 1167q0 -40 -99 -47q-66 65 -306 250q-8 6 -71 18q-51 9 -51 33q0 40 62 49q10 1 94 11q11 4 22 4q65 0 207 -127.5t142 -190.5zM1527 390q0 -337 -268 -591q-76 -72 -223 -152q-163 -89 -247 -89q-29 0 -35 30l4 8q7 7 118 75q218 134 346 338q-74 -28 -157 -28
q-130 0 -185 10q-88 16 -171 69q-107 -79 -214 -79q-191 0 -321 144q-124 139 -124 333q0 213 127 352q131 144 342 144q32 0 32 -26q0 -41 -73 -41q-126 0 -188 -117q-50 -94 -50 -230q0 -173 60 -313q78 -182 229 -182q173 0 173 367v309q0 27 -49.5 74t-49.5 58
q0 31 53 63q48 30 82 30q49 0 91 -25q49 -29 49 -75v-641q0 -75 76 -121q65 -39 145 -39q234 0 234 367q0 172 -59 303q-77 172 -226 172q-47 0 -47 41q0 28 33 27l55 -1q206 -4 329 -186q109 -161 109 -378z" />
    <glyph glyph-name="uni03E40300" unicode="&#x3e4;&#x300;" horiz-adv-x="1298" 
d="M699 1489q0 -41 -79 -47l-326 250q-8 6 -71 18q-51 9 -51 33q0 40 62 49q11 1 94 11q11 4 22 4q66 0 207.5 -127.5t141.5 -190.5zM1248 -292q0 -46 -66 -93q-60 -43 -104 -43q-67 0 -120 38q-59 43 -59 108v643q-133 -110 -317 -110q-242 0 -392 184q-140 171 -140 420
q0 157 72 295q76 145 206 222q26 15 50 15q28 0 51 -15q-61 -82 -101 -246q-37 -147 -37 -271q0 -179 89 -337q100 -178 247 -178q113 0 194 90q78 87 78 201v414q0 38 -62.5 108t-62.5 83q0 44 67 92q61 44 102 44q68 0 120 -38q58 -43 58 -108v-1327q0 -38 63.5 -108
t63.5 -83z" />
    <glyph glyph-name="uni03E50300" unicode="&#x3e5;&#x300;" horiz-adv-x="1050" 
d="M617 1167q0 -40 -100 -47q-61 61 -306 250q-8 6 -71 18q-50 9 -50 33q0 40 62 49q24 4 93 11q12 4 22 4q65 0 207.5 -127.5t142.5 -190.5zM1000 -201q0 -32 -52 -65q-48 -29 -83 -29q-50 0 -92 25q-50 29 -50 75v444q-106 -76 -251 -76q-182 0 -302 117.5t-120 298.5
q0 112 60.5 209t160.5 148q20 10 39 10q22 0 41 -10q-50 -57 -81 -169q-29 -101 -29 -188q0 -121 71 -231q80 -124 195 -124q85 0 150.5 58.5t65.5 142.5v286q0 26 -49.5 74.5t-49.5 56.5q0 32 52 65q48 29 83 29q49 0 91 -25q49 -29 49 -75v-916q0 -26 50.5 -74.5
t50.5 -56.5z" />
    <glyph glyph-name="uni03E60300" unicode="&#x3e6;&#x300;" horiz-adv-x="1299" 
d="M824 1489q0 -40 -99 -47q-64 65 -306 250q-8 6 -71 18q-51 9 -51 33q0 41 62 49q19 2 94 11q11 4 22 4q66 0 207.5 -127.5t141.5 -190.5zM1249 278q0 -129 -38.5 -236.5t-123.5 -204.5q-170 -190 -388 -190q-145 0 -329 80q-7 -1 -14.5 -18.5t-15 -39t-14 -42
t-11.5 -27.5q-30 -43 -93 -43q-10 0 -29 4t-39.5 9.5t-39.5 9.5t-29 4q-35 0 -35 68q0 88 44.5 137.5t119.5 49.5q156 -69 297 -69q106 0 196.5 39t157 109t104 166t37.5 210q0 112 -24.5 212t-69 175t-106.5 119t-136 44q-53 0 -102.5 -23.5t-87.5 -63t-60.5 -92.5
t-22.5 -112v-239q0 -40 63 -109q64 -70 64 -82q0 -22 -18.5 -46t-45 -44t-55.5 -33t-51 -13q-34 0 -66 11t-57 30.5t-40.5 46t-15.5 58.5v912q0 36 -63 108q-62 71 -62 83q0 21 18.5 45t44.5 44.5t55.5 33.5t51.5 13q34 0 66 -11.5t57 -31t39.5 -46.5t14.5 -57v-403
q133 109 316 109q114 0 211 -49t170.5 -135t114 -202.5t40.5 -251.5v-16z" />
    <glyph glyph-name="uni03E70300" unicode="&#x3e7;&#x300;" horiz-adv-x="1061" 
d="M671 1167q0 -40 -99 -47q-65 65 -306 250q-8 6 -71 18q-51 9 -51 33q0 40 62 49q10 1 94 11q11 4 22 4q65 0 207 -127.5t142 -190.5zM1011 192q0 -178 -129 -313.5t-318 -135.5q-117 0 -260 55q-14 0 -21 -30q-10 -41 -22 -57q-23 -30 -75 -30q-18 0 -54 9t-54 9
q-28 0 -28 47q0 129 130 129q123 -47 235 -47q172 0 288 102.5t116 272.5q0 139 -63 248q-76 131 -215 131q-85 0 -150 -58.5t-65 -142.5l-1 2v-167q0 -25 50.5 -74t50.5 -57q0 -32 -52 -65q-48 -29 -83 -29q-50 0 -92 25q-50 29 -50 76v629q0 25 -49.5 74t-49.5 58
q0 31 53 63q48 30 82 30q50 0 91 -25q49 -29 49 -75l1 -279q105 76 250 76q198 0 318 -133q117 -129 117 -318z" />
    <glyph glyph-name="uni03E80300" unicode="&#x3e8;&#x300;" 
d="M610 1489q0 -40 -99 -47q-67 68 -306 250q-8 6 -71 18q-51 9 -51 33q0 41 62 49q19 2 94 11q10 4 22 4q65 0 207 -127.5t142 -190.5zM1049 -172q-183 -271 -476 -271q-120 0 -198 30q-85 32 -165 114q-160 165 -160 397q0 230 174 375q39 32 323 189q174 96 174 208
q0 120 -72 265q-82 164 -177 164q-72 0 -119 -64q-42 -59 -42 -133q0 -79 57 -152q8 -11 111 -115q-10 -56 -46 -56q-137 0 -229 55q-117 70 -117 213q0 167 146 260q119 76 277 76q210 0 334 -139q119 -134 119 -346q0 -153 -171 -240q-275 -140 -318 -180
q-172 -158 -172 -482q0 -137 82 -239q87 -110 221 -110q205 0 359 187z" />
    <glyph glyph-name="uni03E90300" unicode="&#x3e9;&#x300;" horiz-adv-x="892" 
d="M516 1167q0 -40 -99 -47q-68 68 -306 250q-8 6 -71 18q-51 9 -51 33q0 40 62 49q10 1 94 11q10 4 22 4q65 0 207 -127.5t142 -190.5zM842 -139q-145 -187 -377 -187q-179 0 -288 99q-127 115 -127 274q0 89 35 153q21 39 97 124q46 52 156 92q144 52 166 65q78 44 78 119
q0 81 -58 183q-64 113 -139 113q-55 0 -91.5 -40.5t-36.5 -95.5q0 -56 45 -105q44 -40 88 -79q-5 -39 -36 -39q-109 0 -182 38q-93 48 -93 147q0 115 115 179q96 53 221 53q158 0 256 -88q103 -91 103 -247q0 -105 -136 -165q-218 -97 -252 -124q-136 -109 -136 -333
q0 -102 68 -180q71 -81 172 -81q162 0 285 129z" />
    <glyph glyph-name="uni03EA0300" unicode="&#x3ea;&#x300;" horiz-adv-x="1718" 
d="M913 1489q0 -40 -100 -47q-61 61 -306 250q-8 6 -71 18q-50 9 -50 33q0 40 62 49q24 4 93 11q12 4 22 4q65 0 207.5 -127.5t142.5 -190.5zM1708 -80q0 -68 -35 -68q-23 0 -67.5 -13.5t-67.5 -13.5q-65 0 -94 44q-16 23 -28 82q-9 44 -26 44h-1218q-162 0 -162 187
q0 68 35 68q23 0 67.5 13.5t68.5 13.5q65 0 94 -44q15 -23 28 -82q10 -45 26 -44l431 711q-166 279 -176 279q-12 0 -47 -15t-54 -15q-57 0 -95 76q-24 59 -53 131q-6 13 -6 18q0 36 52 67q46 27 82 27q47 0 112 -24q73 -27 94 -61l191 -317l191 317q52 85 127 85
q36 0 81 -27q53 -31 53 -67q0 -6 -6 -18q-12 -28 -53 -131q-38 -76 -95 -76q-19 0 -54 15t-47 15q-9 0 -139 -210l357 -590q75 -124 106 -149q51 -41 166 -41q161 0 161 -187zM1176 107l-359 615q-113 -186 -369 -615h728z" />
    <glyph glyph-name="uni03EB0300" unicode="&#x3eb;&#x300;" horiz-adv-x="1367" 
d="M753 1167q0 -40 -99 -47q-66 65 -306 250q-8 6 -71 18q-51 9 -51 33q0 40 62 49q10 1 94 11q11 4 22 4q65 0 207 -127.5t142 -190.5zM1357 -55q0 -47 -28 -47q-18 0 -54 -9.5t-54 -9.5q-51 0 -75 31q-12 16 -22 56q-7 30 -21 30h-965q-128 0 -128 130q0 46 28 46
q18 0 54 9.5t54 9.5q50 0 74 -31q12 -15 22 -56q8 -31 21 -30l341 490q-131 193 -139 193q-11 0 -38.5 -10.5t-41.5 -10.5q-45 0 -76 52l-42 90q-4 9 -4 13q0 25 42 46q36 19 64 19q38 0 88 -16q58 -18 75 -43l152 -218l152 218q41 59 100 59q28 0 64 -19q42 -21 42 -46
q0 -5 -5 -13q-20 -45 -42 -90q-26 -52 -75 -52q-14 0 -41.5 10.5t-38.5 10.5q-7 0 -110 -145l282 -407q59 -85 85 -103q40 -28 131 -28q129 0 129 -129zM934 74l-284 424q-90 -128 -293 -424h577z" />
    <glyph glyph-name="uni03EC0300" unicode="&#x3ec;&#x300;" horiz-adv-x="1469" 
d="M756 1489q0 -40 -100 -47q-61 60 -306 250q-4 3 -62 16l-9 2q-50 11 -50 33q0 40 62 49q23 4 93 11q12 4 22 4q65 0 207.5 -127.5t142.5 -190.5zM1419 1045q0 -134 -112 -134q-99 0 -124 101q-42 168 -57 190q-67 101 -267 101q-144 0 -267 -54q-140 -60 -220 -178
q311 -5 537 -141q285 -172 285 -493q0 -232 -200 -360q-164 -105 -383 -105q-251 0 -409 204q-152 196 -152 488q0 345 280 551q243 177 560 177q203 0 338 -62q191 -88 191 -285zM949 521q0 218 -219 352q-184 112 -391 110l-13 -1q-35 -90 -35 -199q0 -261 72 -456
q97 -262 293 -262q141 0 223 153q70 129 70 303z" />
    <glyph glyph-name="uni03ED0300" unicode="&#x3ed;&#x300;" horiz-adv-x="1185" 
d="M640 1167q0 -40 -99 -47q-66 65 -306 250q-8 6 -71 18q-51 9 -51 33q0 40 62 49q10 1 94 11q11 4 22 4q65 0 207 -127.5t142 -190.5zM1135 721q0 -93 -89 -93q-78 0 -98 70q-34 116 -45 131q-53 70 -212 70q-261 0 -385 -160q246 -4 425 -97q226 -119 226 -341
q0 -160 -159 -248q-129 -72 -303 -72q-199 0 -325 140q-120 135 -120 337q0 238 222 380q192 122 444 122q161 0 268 -42q151 -61 151 -197zM763 359q0 151 -174 243q-146 77 -310 76h-10q-28 -63 -28 -138q0 -180 57 -315q77 -180 232 -180q113 0 178 105q55 90 55 209z
" />
    <glyph glyph-name="uni03EE0300" unicode="&#x3ee;&#x300;" horiz-adv-x="1449" 
d="M1160 1489q0 -40 -100 -47q-57 57 -306 250q-12 10 -64 17l-7 1q-50 7 -50 33q0 40 62 49q24 4 93 11q12 4 22 4q66 0 208 -127.5t142 -190.5zM1439 911q0 -68 -35 -68q-24 0 -68.5 -13.5t-67.5 -13.5q-66 0 -95 44q-15 23 -28 82q-9 44 -26 44h-285v-1102
q0 -37 63.5 -108.5t63.5 -82.5q0 -46 -66 -93q-60 -43 -104 -43q-63 0 -116 36q-63 42 -63 110v1283h-283q-16 0 -26 -44q-12 -58 -28 -82q-28 -44 -94 -44q-24 0 -68.5 13.5t-67.5 13.5q-35 0 -35 68q0 187 162 187h440v215q0 37 -62 108.5t-62 82.5q0 46 66 93
q60 43 103 43q68 0 120 -38q57 -43 57 -108v-396h443q162 0 162 -187z" />
    <glyph glyph-name="uni03EF0300" unicode="&#x3ef;&#x300;" horiz-adv-x="1233" 
d="M714 1489q0 -40 -99 -47q-66 65 -306 250q-8 6 -71 18q-51 9 -51 33q0 40 62 49q10 1 94 11q11 4 22 4q65 0 207 -127.5t142 -190.5zM1183 628q0 -46 -28 -46q-18 0 -54 -9.5t-54 -9.5q-52 0 -75 30q-12 16 -22 57q-7 30 -21 30h-226v-750q0 -25 50.5 -74.5t50.5 -56.5
q0 -32 -52 -64q-47 -30 -82 -30q-49 0 -92 25q-51 29 -51 75v875h-224q-13 0 -21 -30q-11 -43 -22 -57q-23 -30 -74 -30q-18 0 -54 9.5t-54 9.5q-28 0 -28 46q0 129 128 129h349v283q0 25 -49.5 74.5t-49.5 57.5q0 31 53 63q48 30 82 30q49 0 91 -25q49 -29 49 -75v-408h351
q129 0 129 -129z" />
    <glyph glyph-name="uni2C800300" unicode="&#x2c80;&#x300;" horiz-adv-x="1344" 
d="M714 1489q0 -40 -100 -47q-62 61 -306 250q-8 6 -71 18q-50 9 -50 33q0 40 62 49q17 2 93 11q11 4 22 4q64 0 207 -128t143 -190zM1334 123q0 -45 -61.5 -90.5t-108.5 -45.5q-75 0 -159 113q-23 32 -115 188q-352 -288 -489 -288q-142 0 -245 95q-106 98 -106 240
q0 153 193 308q135 108 315 186q-116 156 -197 216q-32 23 -126 89.5t-94 101.5q0 45 64 92q59 44 106 44q51 0 101 -50q21 -21 76 -96q170 -228 421 -586q12 -18 97 -168q59 -104 108 -158q9 -10 122 -97q98 -76 98 -94zM829 393q-64 115 -203 338l-4 1q-118 -64 -212 -148
q-133 -119 -133 -216q0 -86 52 -144q54 -61 139 -61q108 0 361 230z" />
    <glyph glyph-name="uni2C810300" unicode="&#x2c81;&#x300;" horiz-adv-x="1078" 
d="M601 1167q0 -40 -99 -47q-69 68 -306 250q-8 6 -71 18q-51 9 -51 33q0 40 62 49q10 1 94 11q10 4 22 4q65 0 207 -127.5t142 -190.5zM1068 85q0 -32 -52 -64q-47 -30 -82 -30q-59 0 -126 78q-21 24 -92 130q-279 -199 -387 -199q-109 0 -190 59q-89 66 -89 172
q0 105 153 212q107 75 250 129q-96 112 -156 149l-99 61q-75 46 -75 71q0 33 52 64q47 29 82 29q56 0 141 -100q102 -120 333 -405q48 -80 163 -225q6 -5 96 -66q78 -53 78 -65zM668 271q-51 79 -161 233l-3 1q-91 -43 -168 -103q-106 -83 -106 -148q0 -62 44 -101.5
t107 -39.5q87 0 287 158z" />
    <glyph glyph-name="uni2C820300" unicode="&#x2c82;&#x300;" horiz-adv-x="1151" 
d="M675 1489q0 -40 -100 -47q-62 62 -306 250q-8 6 -71 18q-50 9 -50 33q0 40 62 49q22 3 93 11q11 4 22 4q66 0 208 -127t142 -191zM1101 424q0 -200 -213 -323q-176 -101 -370 -101q-51 0 -101 6q-36 -19 -63 -19q-67 0 -120 38q-59 43 -59 108v912q0 36 -62.5 109
t-62.5 82q0 44 67 92q62 44 103 44q71 0 127 -46q94 20 228 20q191 0 294 -32q183 -57 183 -216q0 -122 -66.5 -220.5t-178.5 -146.5q294 -88 294 -307zM807 1037q0 137 -106 187q-66 31 -205 31q-53 0 -99 -24v-476l187 14q223 17 223 268zM856 363q0 147 -97 231
q-92 80 -241 80q-44 0 -121 -29v-536q72 -21 134 -21q97 0 205 81q120 89 120 194z" />
    <glyph glyph-name="uni2C830300" unicode="&#x2c83;&#x300;" horiz-adv-x="934" 
d="M567 1167q0 -40 -99 -47q-70 69 -306 250q-8 6 -71 18q-51 9 -51 33q0 40 62 49q19 2 94 11q10 4 22 4q67 0 208 -126.5t141 -191.5zM884 292q0 -143 -171 -224q-141 -67 -314 -67q-30 0 -57 3q-29 -13 -50 -13q-51 0 -93 25q-50 29 -50 76v629q0 23 -49.5 75t-49.5 57
q0 31 53 63q48 30 82 30q57 0 101 -31q75 13 180 13q117 0 213 -32q135 -45 135 -138v-31q0 -91 -38 -140.5t-126 -82.5q234 -60 234 -212zM619 715q0 151 -215 151q-42 0 -79 -17v-329q162 9 203 26q91 38 91 169zM689 250q0 108 -83 165q-72 50 -185 50q-35 0 -96 -20
v-370q58 -14 107 -14q77 0 163 56q94 61 94 133z" />
    <glyph glyph-name="uni2C840300" unicode="&#x2c84;&#x300;" horiz-adv-x="1150" 
d="M680 1489q0 -40 -100 -47q-61 61 -306 250q-9 6 -71 18q-50 9 -50 33q0 40 62 49q23 4 93 11q12 4 22 4q65 0 207.5 -127.5t142.5 -190.5zM1100 1158q0 -68 -35 -68q-23 0 -67.5 -13t-67.5 -13q-66 0 -95 44q-14 21 -27 82q-10 44 -27 44h-384v-920q0 -34 63.5 -109
t63.5 -82q0 -44 -64 -91q-60 -45 -106 -45q-67 0 -120 38q-59 43 -59 108v912q0 35 -62.5 109t-62.5 82q0 42 65 78q58 32 105 32h719q161 0 161 -188z" />
    <glyph glyph-name="uni2C850300" unicode="&#x2c85;&#x300;" horiz-adv-x="933" 
d="M567 1167q0 -40 -100 -47q-60 60 -306 250q-4 3 -62 16l-9 2q-50 11 -50 33q0 40 62 49q24 4 93 11q12 4 22 4q65 0 207.5 -127.5t142.5 -190.5zM883 799q0 -47 -28 -47q-18 0 -54 -9t-54 -9q-51 0 -74 30q-12 15 -22 56q-8 31 -21 31h-305v-635q0 -24 50.5 -75t50.5 -56
q0 -32 -52 -64q-47 -30 -82 -30q-51 0 -93 25q-50 29 -50 76v629q0 23 -49.5 74.5t-49.5 57.5q0 30 54 54q47 21 81 21h570q128 0 128 -129z" />
    <glyph glyph-name="uni2C860300" unicode="&#x2c86;&#x300;" horiz-adv-x="1719" 
d="M865 1489q0 -40 -100 -47q-61 61 -306 250q-8 6 -71 18q-50 9 -50 33q0 40 62 49q24 4 93 11q12 4 22 4q65 0 207.5 -127.5t142.5 -190.5zM1709 -80q0 -68 -35 -68q-23 0 -68 -13.5t-68 -13.5q-66 0 -94 44q-15 23 -28 82q-10 44 -26 44h-1218q-162 0 -162 187
q0 68 36 68q23 0 67.5 13.5t67.5 13.5q65 0 94 -44q16 -23 28 -82q10 -45 26 -44q89 138 219 407q153 318 153 413q0 5 -47.5 92.5t-47.5 134.5q0 49 45 118q49 74 95 74h13q29 -7 61 -102q4 -13 41 -129q135 -327 182 -426q104 -220 232 -392q101 -136 111 -145
q52 -45 161 -45q162 0 162 -187zM1176 107q-6 13 -14 26q-81 122 -196 338q-143 271 -187 345q-107 -240 -340 -709h737z" />
    <glyph glyph-name="uni2C870300" unicode="&#x2c87;&#x300;" horiz-adv-x="1367" 
d="M717 1167q0 -40 -99 -47q-66 65 -306 250q-8 6 -71 18q-51 9 -51 33q0 40 62 49q10 1 94 11q11 4 22 4q65 0 207 -127.5t142 -190.5zM1357 -55q0 -47 -28 -47q-18 0 -54 -9.5t-54 -9.5q-51 0 -75 31q-12 16 -22 56q-7 30 -21 30h-965q-128 0 -128 130q0 46 28 46
q18 0 54 9.5t54 9.5q50 0 74 -31q12 -15 22 -56q8 -31 21 -30q73 99 173 280q121 219 121 286q0 1 -37.5 62t-37.5 94q0 36 38 84.5t73 48.5q8 0 10 -1q24 -5 49 -70q7 -19 32 -89q110 -231 144 -294q83 -153 184 -270q82 -94 89 -100q39 -31 127 -31q129 0 129 -129z
M934 74q-45 64 -167 251l-147 238q-86 -166 -270 -489h584z" />
    <glyph glyph-name="uni2C880300" unicode="&#x2c88;&#x300;" horiz-adv-x="1087" 
d="M757 1489q0 -40 -99 -47q-66 65 -306 250q-8 6 -71 18q-51 9 -51 33q0 40 62 49q10 1 94 11q11 4 22 4q66 0 207.5 -127.5t141.5 -190.5zM1037 301q0 -155 -152 -250q-126 -79 -274 -79q-263 0 -421 221q-140 197 -140 471q0 292 146 494q164 226 446 226q142 0 260 -85
q135 -98 135 -253q0 -135 -112 -135q-95 0 -123 97q-6 21 -48 181q-43 98 -165 98q-151 0 -229 -154q-63 -123 -70 -314h383q161 0 161 -188q0 -68 -35 -68q-23 0 -67.5 -13t-68.5 -13q-65 0 -94 44q-14 21 -27 82q-10 44 -27 44h-223q13 -243 83 -414q92 -226 254 -226
q100 0 134 95q16 73 42 178q24 96 120 96q112 0 112 -135z" />
    <glyph glyph-name="uni2C890300" unicode="&#x2c89;&#x300;" horiz-adv-x="883" 
d="M619 1167q0 -40 -99 -47q-66 65 -306 250q-8 6 -71 18q-51 9 -51 33q0 40 62 49q10 1 94 11q11 4 22 4q65 0 207 -127.5t142 -190.5zM833 208q0 -107 -121 -173q-99 -54 -217 -54q-199 0 -324 140q-121 136 -121 337q0 214 127 353q130 143 342 143q114 0 207 -58
q107 -67 107 -175q0 -93 -89 -93q-76 0 -98 68q-6 17 -38 124q-34 67 -130 67q-120 0 -182 -106q-50 -85 -55 -216h303q128 0 128 -130q0 -46 -28 -46q-18 0 -54 -9.5t-54 -9.5q-51 0 -74 30q-11 14 -22 57q-8 30 -21 30h-177q11 -167 66 -285q73 -156 202 -156q79 0 106 66
q17 61 33 123q24 66 95 66q89 0 89 -93z" />
    <glyph glyph-name="uni2C8A0300" unicode="&#x2c8a;&#x300;" horiz-adv-x="1272" 
d="M630 1489q0 -40 -99 -47q-65 65 -306 250q-8 6 -71 18q-51 9 -51 33q0 40 62 49q11 1 94 11q11 4 22 4q66 0 207.5 -127.5t141.5 -190.5zM1222 1297q0 -139 -79 -259q-89 -134 -222 -134q-89 0 -336.5 141t-250.5 141q-66 0 -111 -68q-39 -60 -39 -130q0 -101 83 -215
q47 -63 175 -191q115 -114 150 -174q161 -276 161 -454q0 -78 -57 -207q-20 -47 -46 -71q-40 -38 -114 -68t-128 -30q-46 0 -46 48q0 51 105 67q113 18 126 52q26 67 26 147q0 118 -87 187q-216 171 -314 289q-168 201 -168 401q0 259 116 423q133 187 381 187q76 0 148 -53
l133 -99q90 -53 204 -53q46 0 60 50q5 17 22 94q18 51 69 51q39 0 39 -72z" />
    <glyph glyph-name="uni2C8B0300" unicode="&#x2c8b;&#x300;" horiz-adv-x="1029" 
d="M549 1167q0 -40 -99 -47q-66 65 -306 250q-8 6 -71 18q-51 9 -51 33q0 40 62 49q10 1 94 11q11 4 22 4q65 0 207 -127.5t142 -190.5zM979 894q0 -103 -67 -184q-71 -86 -172 -86q-72 0 -266 97t-198 97q-50 0 -85 -42.5t-35 -94.5q0 -70 67 -148q37 -43 138 -131
q92 -80 119 -120q128 -190 128 -313q0 -56 -45 -144q-16 -31 -37 -48q-85 -68 -192 -68q-36 0 -36 33q0 34 83 46q89 12 100 36q21 46 21 102q0 80 -69 128q-175 121 -250 199q-133 138 -133 278q0 189 101 302q106 118 293 118q37 0 169 -71t216 -71q27 0 55 67.5t64 67.5
q31 0 31 -50z" />
    <glyph glyph-name="uni2C8C0300" unicode="&#x2c8c;&#x300;" horiz-adv-x="1288" 
d="M649 1489q0 -40 -99 -47q-65 65 -306 250q-8 6 -71 18q-51 9 -51 33q0 40 62 49q10 1 94 11q11 4 22 4q66 0 207.5 -127.5t141.5 -190.5zM1278 -75q0 -69 -35 -69q-24 0 -68.5 -13t-68.5 -13q-64 0 -93 40q-15 20 -28 77q-10 45 -28 53q-133 58 -415 58q-198 0 -532 -58
l777 1243l-180 -19q-46 -5 -171 -27q-107 -19 -171 -19q-110 0 -163 33q-70 44 -70 159q0 68 35 68q23 0 68 13t68 13q76 0 98 -47l26 -87q22 -48 98 -48q53 0 141 22q106 27 140 31l408 54l-783 -1251q193 27 313 27t470 -53q88 -13 126 -55.5t38 -131.5z" />
    <glyph glyph-name="uni2C8D0300" unicode="&#x2c8d;&#x300;" horiz-adv-x="1025" 
d="M551 1167q0 -40 -99 -47q-66 65 -306 250q-8 6 -71 18q-51 9 -51 33q0 40 62 49q10 1 94 11q11 4 22 4q65 0 207 -127.5t142 -190.5zM1015 -52q0 -47 -28 -47q-18 0 -54 -9t-54 -9q-51 0 -74 27q-12 14 -22 53q-8 32 -22 37q-108 40 -329 40q-157 0 -422 -40l616 857
l-143 -13q-32 -3 -135 -19q-77 -12 -136 -12q-185 0 -185 132q0 47 28 47q18 0 54 9t54 9q57 0 88 -63t88 -63q44 0 112 15q89 19 111 22l323 37l-620 -863q153 19 248 19q90 0 372 -37q130 -17 130 -129z" />
    <glyph glyph-name="uni2C8E0300" unicode="&#x2c8e;&#x300;" horiz-adv-x="1360" 
d="M768 1489q0 -40 -100 -47q-62 61 -306 250q-8 6 -71 18q-50 9 -50 33q0 40 62 49q17 2 93 11q11 4 22 4q64 0 207 -128t143 -190zM1310 123q0 -44 -67 -92q-61 -44 -103 -44q-67 0 -121 39q-59 42 -59 107v486h-563v-305q0 -34 63.5 -109t63.5 -82q0 -44 -64 -91
q-60 -45 -106 -45q-67 0 -120 38q-59 43 -59 108v912q0 35 -62.5 109t-62.5 82q0 46 66 93q60 43 104 43q67 0 119 -38q58 -43 58 -108v-495h563v314q0 35 -62 109t-62 82q0 46 66 93q60 43 103 43q68 0 120 -38q58 -43 58 -108v-912q0 -34 63.5 -109t63.5 -82z" />
    <glyph glyph-name="uni2C8F0300" unicode="&#x2c8f;&#x300;" 
d="M640 1167q0 -40 -100 -47q-61 61 -306 250q-8 6 -71 18q-50 9 -50 33q0 40 62 49q24 4 93 11q12 4 22 4q65 0 207.5 -127.5t142.5 -190.5zM1049 85q0 -32 -52 -65q-48 -29 -83 -29q-51 0 -93 25q-49 28 -49 76v335h-447v-211q0 -24 50.5 -75t50.5 -56q0 -32 -52 -64
q-47 -30 -82 -30q-51 0 -93 25q-50 29 -50 76v629q0 23 -49.5 74.5t-49.5 57.5q0 31 53 63q48 30 82 30q49 0 91 -25q49 -29 49 -75v-342h447v217q0 23 -49.5 74.5t-49.5 57.5q0 31 53 63q48 30 82 30q49 0 91 -25q49 -29 49 -75v-630q0 -24 50.5 -75t50.5 -56z" />
    <glyph glyph-name="uni2C900300" unicode="&#x2c90;&#x300;" horiz-adv-x="1243" 
d="M742 1489q0 -40 -99 -47q-69 68 -306 250q-9 6 -71 18q-51 9 -51 33q0 40 62 49q10 1 94 11q10 4 22 4q64 0 206.5 -127.5t142.5 -190.5zM1193 717q0 -302 -157 -517q-167 -228 -426 -228q-264 0 -421 221q-139 196 -139 471q0 293 146 494q163 226 445 226
q267 0 417 -206q135 -184 135 -461zM940 750q-24 220 -99 360q-95 177 -252 177q-160 0 -238 -170q-62 -134 -62 -334v-33h651zM949 598q0 20 -1 40h-652q23 -234 98 -382q96 -190 261 -190q294 0 294 532z" />
    <glyph glyph-name="uni2C910300" unicode="&#x2c91;&#x300;" horiz-adv-x="1007" 
d="M619 1167q0 -40 -99 -47q-66 65 -306 250q-8 6 -71 18q-51 9 -51 33q0 40 62 49q10 1 94 11q11 4 22 4q65 0 207 -127.5t142 -190.5zM957 494q0 -211 -124 -358q-130 -155 -338 -155q-199 0 -324 140q-121 136 -121 337q0 214 127 353q130 143 342 143q200 0 321 -131
q117 -127 117 -329zM756 517q-18 147 -75 243q-75 127 -203 127q-127 0 -189 -117q-49 -92 -49 -230v-23h516zM763 412q0 14 -1 28h-516q17 -159 77 -263q76 -132 206 -132q234 0 234 367z" />
    <glyph glyph-name="uni2C920300" unicode="&#x2c92;&#x300;" horiz-adv-x="574" 
d="M524 123q0 -44 -64 -91q-60 -45 -106 -45q-67 0 -120 38q-59 43 -59 108v912q0 35 -62.5 109t-62.5 82q0 46 66 93q60 43 104 43q67 0 119 -38q58 -43 58 -108v-912q0 -34 63.5 -109t63.5 -82zM424 1489q0 -40 -100 -47q-61 61 -306 250q-8 6 -71 18q-50 9 -50 33
q0 40 62 49q24 4 93 11q12 4 22 4q65 0 207.5 -127.5t142.5 -190.5z" />
    <glyph glyph-name="uni2C930300" unicode="&#x2c93;&#x300;" horiz-adv-x="476" 
d="M334 1167q0 -40 -100 -47q-62 61 -306 250q-8 6 -71 18q-51 9 -51 33q0 40 63 49q15 2 93 11q11 4 22 4q64 0 207 -128t143 -190zM426 85q0 -32 -52 -64q-47 -30 -82 -30q-51 0 -93 25q-50 29 -50 76v629q0 23 -49.5 74.5t-49.5 57.5q0 31 53 63q48 30 82 30q49 0 91 -25
q49 -29 49 -75v-630q0 -24 50.5 -75t50.5 -56z" />
    <glyph glyph-name="uni2C940300" unicode="&#x2c94;&#x300;" horiz-adv-x="1274" 
d="M623 1489q0 -40 -100 -47q-62 61 -306 250q-8 6 -71 18q-50 9 -50 33q0 40 62 49q18 2 93 11q11 4 22 4q65 0 207.5 -128t142.5 -190zM1224 123q0 -45 -61.5 -90.5t-108.5 -45.5q-82 0 -345 315q-222 267 -313 419v-407q0 -36 63.5 -107.5t63.5 -83.5q0 -45 -61.5 -90.5
t-107.5 -45.5q-68 0 -121 38q-59 43 -59 108v912q0 36 -62 107t-62 84q0 46 66 93q60 43 104 43q63 0 115 -36q61 -42 61 -110v-416q45 57 146 234q92 160 153 227q93 102 197 102q42 0 86 -24q54 -29 54 -72q0 -55 -49 -136q-53 -87 -104 -87q-19 0 -53.5 15t-51.5 16
l-61 35l-191 -312q103 -133 203 -249q228 -264 344 -340l89 -39q66 -30 66 -57z" />
    <glyph glyph-name="uni2C950300" unicode="&#x2c95;&#x300;" horiz-adv-x="1031" 
d="M541 1167q0 -40 -100 -47q-61 61 -306 250q-8 6 -71 18q-50 9 -50 33q0 40 62 49q24 4 93 11q12 4 22 4q65 0 207.5 -127.5t142.5 -190.5zM981 85q0 -32 -52 -64q-47 -30 -82 -30q-66 0 -274 217q-173 181 -248 289v-281q0 -25 50.5 -74t50.5 -57q0 -33 -52 -65
q-47 -29 -83 -29q-51 0 -93 25q-49 28 -49 76v629q0 25 -49.5 74t-49.5 58q0 33 52 64q47 29 83 29q49 0 91 -25q49 -29 49 -75v-287q38 42 115 161q70 109 121 157q74 70 157 70q33 0 68 -16q43 -20 43 -50q0 -40 -41 -95q-42 -59 -80 -59q-15 0 -42 10.5t-42 10.5l-48 24
l-152 -215q293 -327 434 -406q123 -46 123 -66z" />
    <glyph glyph-name="uni2C960300" unicode="&#x2c96;&#x300;" horiz-adv-x="1257" 
d="M844 1489q0 -40 -100 -47q-62 61 -306 250q-8 6 -71 18q-50 9 -50 33q0 40 62 49q23 4 93 11q12 4 22 4q64 0 207 -128t143 -190zM1247 123q0 -20 -18.5 -44t-45 -44.5t-55.5 -34t-51 -13.5q-135 0 -348 464l-158 351l-304 -669q-13 -29 -35 -55.5t-48.5 -46.5t-55 -32
t-53.5 -12q-12 0 -23.5 8t-20.5 20.5t-15 29t-6 33.5q0 50 74 118q96 89 110 118l297 653q-137 264 -267 379l-101 89q-68 66 -68 102q0 21 17.5 44.5t43.5 44t55.5 33.5t52.5 13q99 0 281 -302q49 -81 128.5 -231t191.5 -373q94 -186 157 -298.5t95 -153.5l96 -96
q37 -38 55 -62t19 -33z" />
    <glyph glyph-name="uni2C970300" unicode="&#x2c97;&#x300;" horiz-adv-x="1001" 
d="M557 1167q0 -40 -100 -47q-61 61 -306 250q-8 6 -71 18q-50 9 -50 33q0 40 62 49q24 4 93 11q12 4 22 4q66 0 208 -127.5t142 -190.5zM991 85q0 -15 -14.5 -32t-35 -30.5t-44 -22.5t-41.5 -9q-108 0 -276 320q-9 17 -40 77t-85 165l-242 -461q-10 -20 -27 -38t-37.5 -32
t-43 -22.5t-44.5 -8.5q-20 0 -35.5 15.5t-15.5 47.5q0 34 59 81q76 61 86 81l236 451q-54 90 -106 155.5t-105 105.5l-79 60q-56 42 -56 72q0 15 15 31t36 30t44 23t40 9q79 0 223 -208q35 -52 98.5 -155.5t154.5 -261.5q148 -255 200 -312l75 -65q60 -53 60 -66z" />
    <glyph glyph-name="uni2C980300" unicode="&#x2c98;&#x300;" horiz-adv-x="1529" 
d="M862 1489q0 -40 -100 -47q-62 62 -306 250q-8 6 -71 18q-50 9 -50 33q0 40 62 49q32 5 93 11q12 4 22 4q67 0 208.5 -126.5t141.5 -191.5zM1479 123q0 -45 -60.5 -90.5t-107.5 -45.5q-70 0 -122 37q-58 42 -58 109v762q-19 -179 -120 -326q-110 -161 -246 -161t-247 161
q-102 147 -121 326v-582q0 -32 63.5 -108.5t63.5 -81.5q0 -45 -61 -90.5t-108 -45.5q-68 0 -121 38q-59 42 -59 108v912q0 32 -62.5 108.5t-62.5 83.5q0 44 64 91q60 44 107 44q66 0 115 -40t61 -105q54 -283 109 -430q103 -276 249 -276q240 0 375 533q-4 31 -64 102.5
t-60 80.5q0 45 66 92q60 43 103 43q69 0 120 -37q58 -42 58 -108v-914q0 -32 63 -108.5t63 -81.5z" />
    <glyph glyph-name="uni2C990300" unicode="&#x2c99;&#x300;" horiz-adv-x="1233" 
d="M718 1167q0 -40 -99 -47q-67 66 -306 250q-8 6 -71 18q-51 9 -51 33q0 40 62 49q19 2 94 11q11 4 22 4q67 0 208 -126.5t141 -191.5zM1183 85q0 -32 -52 -64q-47 -30 -82 -30q-51 0 -93 25q-49 28 -49 76v525q-15 -122 -95 -224q-88 -112 -195 -112q-112 0 -200 115
q-77 101 -92 221v-401q0 -22 50.5 -74.5t50.5 -56.5q0 -32 -52 -64q-47 -30 -82 -30q-51 0 -93 25q-50 29 -50 76v629q0 22 -49.5 74.5t-49.5 57.5q0 33 52 64q47 29 83 29q118 0 140 -100q107 -487 284 -487q190 0 297 368q-4 21 -51 70.5t-47 55.5q0 31 52 63q48 30 82 30
q50 0 92 -25q49 -28 49 -75v-630q0 -22 50 -74.5t50 -56.5z" />
    <glyph glyph-name="uni2C9A0300" unicode="&#x2c9a;&#x300;" horiz-adv-x="1361" 
d="M781 1489q0 -40 -100 -47q-62 61 -306 250q-8 6 -71 18q-50 9 -50 33q0 40 62 49q17 2 93 11q11 4 22 4q64 0 207 -128t143 -190zM1311 123q0 -46 -66 -93q-61 -43 -105 -43q-65 0 -117 35q-62 41 -62 111v96l-564 758v-674q0 -35 63.5 -108.5t63.5 -81.5
q0 -45 -61 -90.5t-108 -45.5q-68 0 -121 38q-59 42 -59 108v912q0 35 -62.5 109t-62.5 83q0 45 67 92q61 43 104 43q66 0 118 -38q58 -43 58 -107v-93l564 -760v671q0 34 -62.5 108.5t-62.5 83.5q0 44 63 91q61 44 107 44q68 0 120 -37q57 -42 57 -108v-914q0 -34 64 -108.5
t64 -81.5z" />
    <glyph glyph-name="uni2C9B0300" unicode="&#x2c9b;&#x300;" 
d="M659 1167q0 -40 -100 -47q-61 61 -306 250q-8 6 -71 18q-50 9 -50 33q0 40 62 49q24 4 93 11q12 4 22 4q65 0 207.5 -127.5t142.5 -190.5zM1049 85q0 -32 -52 -65q-48 -29 -83 -29q-51 0 -93 25q-49 28 -49 76v66l-447 523v-465q0 -24 50.5 -75t50.5 -56q0 -32 -52 -64
q-47 -30 -82 -30q-51 0 -93 25q-50 29 -50 76v629q0 23 -49.5 74t-49.5 58q0 31 53 63q48 30 82 30q49 0 91 -25q49 -29 49 -75v-64l447 -524v463q0 23 -49.5 74.5t-49.5 57.5q0 33 52 64q47 29 83 29q49 0 91 -25q49 -29 49 -75v-630q0 -24 50.5 -75t50.5 -56z" />
    <glyph glyph-name="uni2C9C0300" unicode="&#x2c9c;&#x300;" horiz-adv-x="1267" 
d="M629 1489q0 -40 -99 -47q-66 65 -306 250q-9 6 -71 18q-51 9 -51 33q0 40 62 49q10 1 94 11q11 4 22 4q65 0 207 -127.5t142 -190.5zM1257 -75q0 -69 -36 -69q-23 0 -68 -13t-69 -13q-63 0 -91 37q-14 19 -27 75q-10 46 -30 58q-45 26 -201 44q-123 14 -214 14
q-255 0 -477 -58q222 155 425 319q335 270 335 351q0 67 -135 67q-74 0 -216 -49.5t-217 -49.5l512 602l-163 -16q-43 -4 -170 -27q-107 -19 -172 -19q-114 0 -168 37q-65 45 -65 155q0 68 36 68q23 0 67.5 13t67.5 13q74 0 98 -47q13 -44 27 -87q23 -48 98 -48q56 0 141 21
q120 29 140 32q212 27 407 54l-473 -574q15 3 82 17q48 10 82 10q222 0 222 -134q0 -102 -189 -304q-126 -134 -273 -253q92 21 173 21t189 -22l187 -38q88 -18 121 -51q44 -43 44 -136z" />
    <glyph glyph-name="uni2C9D0300" unicode="&#x2c9d;&#x300;" horiz-adv-x="1008" 
d="M532 1167q0 -40 -99 -47q-69 68 -306 250q-8 6 -71 18q-51 9 -51 33q0 40 62 49q10 1 94 11q10 4 22 4q65 0 207 -127.5t142 -190.5zM998 -52q0 -47 -28 -47q-18 0 -54 -9t-54 -9q-69 0 -87 50q-22 62 -31 67q-76 40 -329 40q-202 0 -378 -40q602 367 602 462
q0 46 -106 46q-59 0 -172 -34t-172 -34l406 415l-129 -11q-39 -3 -135 -18q-85 -13 -136 -13q-185 0 -185 132q0 47 28 47q18 0 54 9t54 9q55 0 87.5 -63t88.5 -63q43 0 112 15q89 19 111 22l323 37l-375 -396q14 2 65 12q37 7 65 7q176 0 176 -93q0 -70 -150 -209
q-97 -89 -216 -175q72 14 137 14q43 0 298 -41q68 -11 96 -35q34 -30 34 -94z" />
    <glyph glyph-name="uni2C9E0300" unicode="&#x2c9e;&#x300;" horiz-adv-x="1244" 
d="M747 1489q0 -40 -100 -47q-61 61 -306 250q-9 6 -71 18q-50 9 -50 33q0 40 62 49q23 4 93 11q12 4 22 4q65 0 207.5 -127.5t142.5 -190.5zM1194 717q0 -301 -158 -517q-167 -228 -425 -228q-263 0 -421 221q-140 197 -140 471q0 292 146 494q164 226 446 226
q267 0 417 -206q135 -184 135 -461zM949 598q0 248 -74 439q-97 250 -286 250q-159 0 -237 -170q-62 -134 -62 -334q0 -259 73 -455q98 -262 292 -262q294 0 294 532z" />
    <glyph glyph-name="uni2C9F0300" unicode="&#x2c9f;&#x300;" horiz-adv-x="1007" 
d="M619 1167q0 -40 -99 -47q-66 65 -306 250q-8 6 -71 18q-51 9 -51 33q0 40 62 49q10 1 94 11q11 4 22 4q65 0 207 -127.5t142 -190.5zM957 494q0 -211 -124 -358q-130 -155 -338 -155q-199 0 -324 140q-121 136 -121 337q0 214 127 353q130 143 342 143q200 0 321 -131
q117 -127 117 -329zM763 412q0 171 -59 303q-77 172 -226 172q-127 0 -189 -116q-48 -92 -48 -231q0 -178 58 -314q77 -181 231 -181q233 0 233 367z" />
    <glyph glyph-name="uni2CA00300" unicode="&#x2ca0;&#x300;" horiz-adv-x="1360" 
d="M771 1489q0 -40 -99 -47q-69 68 -306 250q-9 6 -71 18q-51 9 -51 33q0 40 62 49q10 1 94 11q10 4 22 4q65 0 207 -127.5t142 -190.5zM1310 123q0 -44 -67 -92q-61 -44 -103 -44q-67 0 -121 39q-59 42 -59 107v1067q0 17 5 33h-572q4 -16 4 -33v-886q0 -34 63.5 -109
t63.5 -82q0 -44 -64 -91q-60 -45 -106 -45q-67 0 -120 38q-59 43 -59 108v886q0 34 -62.5 108.5t-62.5 82.5q0 46 66 93q60 43 104 43h917q44 0 104 -43q66 -47 66 -93q0 -9 -62 -83t-62 -108v-705q0 -34 63.5 -109t63.5 -82z" />
    <glyph glyph-name="uni2CA10300" unicode="&#x2ca1;&#x300;" 
d="M1049 85q0 -32 -52 -65q-48 -29 -83 -29q-51 0 -93 25q-49 28 -49 76v736q0 11 4 22h-454q3 -11 3 -22v-612q0 -24 50.5 -75t50.5 -56q0 -32 -52 -64q-47 -30 -82 -30q-51 0 -93 25q-50 29 -50 76v611q0 24 -49.5 75t-49.5 56q0 32 52 65q48 29 83 29h727q35 0 83 -29
q52 -33 52 -65q0 -5 -49.5 -56t-49.5 -75v-487q0 -24 50.5 -75t50.5 -56zM644 1167q0 -40 -99 -47q-69 68 -306 250q-8 6 -71 18q-51 9 -51 33q0 40 62 49q10 1 94 11q10 4 22 4q65 0 207 -127.5t142 -190.5z" />
    <glyph glyph-name="uni2CA20300" unicode="&#x2ca2;&#x300;" horiz-adv-x="1151" 
d="M644 1489q0 -40 -99 -47q-68 68 -306 250q-8 6 -71 18q-51 9 -51 33q0 40 62 49q11 1 94 11q10 4 22 4q65 0 207 -127.5t142 -190.5zM1101 927q0 -199 -158 -357q-173 -172 -425 -172q-62 0 -121 11v-525q0 -35 63.5 -109.5t63.5 -82.5q0 -44 -61.5 -89.5t-108.5 -45.5
q-67 0 -120 38q-59 42 -59 107v1343q0 35 -62.5 109t-62.5 82q0 46 66 93q60 43 104 43q69 0 123 -43q97 25 206 25q207 0 361 -93q191 -116 191 -334zM856 851q0 150 -74 255q-96 135 -286 135q-53 0 -99 -31v-701q-12 0 76 -5q53 -3 89 6q107 27 195 120q99 103 99 221z
" />
    <glyph glyph-name="uni2CA30300" unicode="&#x2ca3;&#x300;" horiz-adv-x="934" 
d="M545 1167q0 -40 -99 -47q-69 68 -306 250q-8 6 -71 18q-51 9 -51 33q0 40 62 49q10 1 94 11q10 4 22 4q65 0 207 -127.5t142 -190.5zM884 639q0 -136 -126 -246q-137 -119 -337 -119q-49 0 -96 8v-382q0 -24 50.5 -75t50.5 -56q0 -32 -52 -64q-47 -30 -82 -30
q-49 0 -92 25q-51 29 -51 75v946q0 23 -49.5 74.5t-49.5 57.5q0 31 53 63q48 30 82 30q55 0 98 -29q76 17 162 17q166 0 287 -64q152 -80 152 -231zM689 587q0 103 -59 176q-75 93 -226 93q-42 0 -79 -21v-484q-16 0 60 -4q39 -2 71 5q86 19 155 83q78 71 78 152z" />
    <glyph glyph-name="uni2CA40300" unicode="&#x2ca4;&#x300;" horiz-adv-x="1087" 
d="M757 1489q0 -40 -99 -47q-66 65 -306 250q-8 6 -71 18q-51 9 -51 33q0 40 62 49q10 1 94 11q11 4 22 4q66 0 207.5 -127.5t141.5 -190.5zM1037 301q0 -155 -152 -250q-126 -79 -274 -79q-263 0 -421 221q-140 197 -140 471q0 292 146 494q164 226 446 226q142 0 260 -85
q135 -98 135 -253q0 -135 -112 -135q-95 0 -123 97q-6 21 -48 181q-43 98 -165 98q-159 0 -237 -170q-62 -134 -62 -334q0 -245 69 -446q92 -270 270 -270q100 0 134 95q16 73 42 178q24 96 120 96q112 0 112 -135z" />
    <glyph glyph-name="uni2CA50300" unicode="&#x2ca5;&#x300;" horiz-adv-x="883" 
d="M614 1167q0 -40 -99 -47q-66 65 -306 250q-8 6 -71 18q-51 9 -51 33q0 40 62 49q10 1 94 11q11 4 22 4q65 0 207 -127.5t142 -190.5zM833 208q0 -107 -121 -173q-99 -54 -217 -54q-199 0 -324 140q-121 136 -121 337q0 214 127 353q130 143 342 143q114 0 207 -58
q107 -67 107 -175q0 -93 -89 -93q-76 0 -98 68q-6 17 -38 124q-34 67 -130 67q-126 0 -188 -117q-49 -92 -49 -230q0 -170 54 -308q73 -186 215 -186q79 0 106 66q17 61 33 123q24 66 95 66q89 0 89 -93z" />
    <glyph glyph-name="uni2CA60300" unicode="&#x2ca6;&#x300;" horiz-adv-x="1449" 
d="M827 1489q0 -40 -99 -47q-66 65 -306 250q-8 6 -71 18q-51 9 -51 33q0 40 62 49q10 1 94 11q11 4 22 4q65 0 207 -127.5t142 -190.5zM1439 1158q0 -68 -35 -68q-23 0 -68 -13t-68 -13q-65 0 -95 44q-14 21 -27 82q-9 44 -26 44h-284v-922q0 -34 63.5 -108.5t63.5 -82.5
q0 -44 -64 -91q-60 -44 -106 -44q-66 0 -120 39q-59 42 -59 106v1103h-285q-16 0 -26 -44q-13 -61 -27 -82q-29 -44 -95 -44q-23 0 -67.5 13t-67.5 13q-36 0 -36 68q0 188 162 188h1106q161 0 161 -188z" />
    <glyph glyph-name="uni2CA70300" unicode="&#x2ca7;&#x300;" horiz-adv-x="1153" 
d="M676 1167q0 -40 -100 -47q-61 61 -306 250q-8 6 -71 18q-50 9 -50 33q0 40 62 49q24 4 93 11q12 4 22 4q65 0 207.5 -127.5t142.5 -190.5zM1143 799q0 -47 -28 -47q-18 0 -54 -9t-54 -9q-52 0 -75 30q-13 17 -22 56q-7 31 -21 31h-225v-636q0 -24 50.5 -75t50.5 -56
q0 -32 -52 -65q-48 -29 -83 -29q-50 0 -92 25q-50 29 -50 76v760h-225q-13 0 -21 -31q-10 -41 -22 -56q-23 -30 -74 -30q-18 0 -54 9t-54 9q-28 0 -28 47q0 129 128 129h876q129 0 129 -129z" />
    <glyph glyph-name="uni2CA80300" unicode="&#x2ca8;&#x300;" horiz-adv-x="1334" 
d="M836 1489q0 -40 -100 -47q-58 57 -306 250q-13 10 -64 17l-7 1q-50 7 -50 33q0 40 62 49q17 2 93 11q11 4 22 4q64 0 207 -128t143 -190zM1324 1277q0 -55 -50 -136q-53 -87 -103 -87q-20 0 -54 15t-52 16l-12 -9l-141 -225q-55 -88 -69 -216q-7 -60 -7 -234v-517
q0 -37 63.5 -109t63.5 -83q0 -44 -67 -92q-60 -43 -103 -43q-67 0 -121 38q-59 43 -59 107v506q0 308 -108 490q-74 125 -324 347q-51 45 -101 89q-70 68 -70 102q0 44 67 92q62 44 104 44q50 0 100 -50q18 -18 76 -96l371 -494l336 557q51 84 120 84q41 0 86 -24
q54 -29 54 -72z" />
    <glyph glyph-name="uni2CA90300" unicode="&#x2ca9;&#x300;" horiz-adv-x="1061" 
d="M678 1167q0 -40 -100 -47q-61 61 -306 250q-8 6 -71 18q-50 9 -50 33q0 40 62 49q24 4 93 11q12 4 22 4q65 0 207.5 -127.5t142.5 -190.5zM1051 881q0 -40 -41 -95q-42 -59 -80 -59q-15 0 -42 10.5t-42 10.5l-9 -6q-135 -193 -145 -217q-28 -65 -28 -248v-377
q0 -24 50.5 -74.5t50.5 -56.5q0 -33 -52 -65q-47 -29 -83 -29q-50 0 -92 25q-50 29 -50 75v369q0 212 -86 337q-60 87 -257 240q-135 105 -135 132q0 31 53 63q48 30 82 30q54 0 140 -100l293 -341l267 384q40 58 95 58q35 0 69 -16q42 -19 42 -50z" />
    <glyph glyph-name="uni2CAA0300" unicode="&#x2caa;&#x300;" horiz-adv-x="1526" 
d="M1137 1507q0 -40 -100 -47q-94 95 -306 250q-6 5 -70 18q-51 11 -51 33q0 35 73 52q52 12 104 12q65 0 207.5 -127.5t142.5 -190.5zM1476 681q0 -254 -195 -425q-167 -146 -404 -182v-190q0 -34 63.5 -109t63.5 -82q0 -43 -62 -89.5t-107 -46.5q-68 0 -121 38
q-58 43 -58 108v368q-247 29 -413 173q-193 168 -193 435q0 258 197 427q167 144 409 176v31q0 35 -62.5 109t-62.5 82q0 46 66 93q60 43 104 43q68 0 119 -38q57 -42 57 -108v-211q246 -30 409 -172q190 -165 190 -430zM1234 667q0 169 -99 310.5t-258 194.5v-999
q167 42 264 183q93 135 93 311zM656 174v1009q-171 -35 -275 -177q-100 -137 -100 -315q0 -173 104 -320q106 -150 271 -197z" />
    <glyph glyph-name="uni2CAB0300" unicode="&#x2cab;&#x300;" horiz-adv-x="1231" 
d="M714 1489q0 -40 -100 -47q-60 60 -306 250q-4 3 -62 16l-9 2q-50 11 -50 33q0 40 62 49q24 4 93 11q12 4 22 4q65 0 207.5 -127.5t142.5 -190.5zM1180 494q12 -185 -144 -310q-133 -107 -330 -133v-151q0 -24 50.5 -75t50.5 -56q0 -32 -52 -64q-47 -30 -82 -30
q-49 0 -92 25q-51 29 -51 75v274q-191 19 -323 117q-153 113 -157 292q-4 183 152 302q133 101 328 124v156q0 23 -49.5 74.5t-49.5 57.5q0 31 53 63q48 30 82 30q49 0 91 -25q49 -29 49 -75v-280q187 -20 314 -111q149 -107 160 -280zM989 460q0 122 -83 220
q-79 94 -200 128v-689q243 54 279 293q4 27 4 48zM530 120v696q-239 -43 -290 -276q-7 -32 -7 -64q0 -124 89 -226q85 -99 208 -130z" />
    <glyph glyph-name="uni2CAC0300" unicode="&#x2cac;&#x300;" horiz-adv-x="1293" 
d="M781 1489q0 -40 -99 -47q-66 65 -306 250q-9 6 -71 18q-51 9 -51 33q0 40 62 49q10 1 94 11q11 4 22 4q65 0 207 -127.5t142 -190.5zM1243 123q0 -44 -67 -92q-61 -44 -103 -44q-85 0 -179 146l-278 431l-290 -480q-52 -85 -121 -85q-44 0 -85 22q-49 25 -54 64
q-2 12 5 25q27 72 52 130q33 77 96 77q13 0 57 -17q41 -16 48 -14l12 9l219 361q-170 241 -335 389q-51 45 -101 89q-69 68 -69 102q0 44 67 92q62 44 103 44q52 0 101 -50q11 -12 76 -96q104 -134 279 -369l261 432q51 84 120 84q40 0 82 -22q52 -27 58 -65q1 -11 -6 -24
q-26 -71 -52 -131q-33 -77 -95 -77q-13 0 -56 16.5t-50 14.5l-11 -9l-186 -307l332 -455q6 -8 96 -97q74 -73 74 -94z" />
    <glyph glyph-name="uni2CAD0300" unicode="&#x2cad;&#x300;" horiz-adv-x="1046" 
d="M645 1167q0 -40 -99 -47q-69 68 -306 250q-8 6 -71 18q-51 9 -51 33q0 40 62 49q10 1 94 11q10 4 22 4q65 0 207 -127.5t142 -190.5zM996 85q0 -33 -52 -65q-47 -29 -83 -29q-68 0 -142 101l-219 297l-231 -331q-41 -59 -96 -59q-33 0 -66 15q-40 17 -44 45q-2 8 4 17
q21 44 41 89q30 53 76 53q11 0 45.5 -10.5t38.5 -9.5l9 5l173 249q-23 29 -214 216q-182 178 -186 185q0 31 53 63q48 30 82 30q39 0 80 -35q11 -9 60 -65q104 -118 221 -255l208 298q34 49 81 57q37 6 83 -16q36 -17 41 -43q2 -9 -4 -17q-10 -23 -41 -90q-25 -53 -76 -53
q-10 0 -44.5 11.5t-39.5 9.5l-9 -6l-147 -212q21 -25 263 -314q3 -3 76 -66q59 -51 59 -65z" />
    <glyph glyph-name="uni2CAE0300" unicode="&#x2cae;&#x300;" horiz-adv-x="1334" 
d="M1126 1507q0 -40 -100 -47q-95 95 -306 250q-7 5 -70 18q-51 11 -51 33q0 35 73 52q51 12 104 12q65 0 207.5 -127.5t142.5 -190.5zM1324 1277q0 -56 -49 -136q-53 -87 -104 -87q-19 0 -53.5 15t-52.5 16l-12 -9q-153 -254 -179 -333q-38 -115 -38 -391v-468
q0 -37 63.5 -109t63.5 -83q0 -45 -66 -92q-61 -43 -104 -43q-67 0 -121 38q-59 43 -59 107v507q0 307 -108 489q-74 125 -324 347q-29 24 -100 88t-71 103q0 45 63 92q60 44 108 44q50 0 100 -50q16 -17 76 -96l256 -339v431q0 36 -62.5 108t-62.5 83q0 46 63 92
q59 43 107 43q67 0 120 -38q58 -42 58 -107v-588l228 378q51 84 120 84q42 0 87 -24q53 -29 53 -72z" />
    <glyph glyph-name="uni2CAF0300" unicode="&#x2caf;&#x300;" horiz-adv-x="1061" 
d="M671 1489q0 -40 -99 -47q-66 65 -306 250q-8 6 -71 18q-51 9 -51 33q0 40 62 49q10 1 94 11q11 4 22 4q65 0 207 -127.5t142 -190.5zM1051 881q0 -40 -41 -95q-42 -59 -80 -59q-15 0 -42 10.5t-42 10.5l-9 -6q-125 -179 -146 -236q-27 -73 -27 -264v-342
q0 -24 50.5 -74.5t50.5 -56.5q0 -33 -52 -65q-47 -29 -83 -29q-50 0 -92 25q-50 29 -50 75v369q0 212 -86 337q-60 87 -257 240q-135 105 -135 132q0 31 53 63q48 30 82 30q53 0 140 -100l203 -234v398q0 25 -49.5 75t-49.5 57q0 31 53 63q48 30 82 30q51 0 92 -24
q48 -28 48 -76v-507l181 261q40 58 95 58q35 0 69 -16q42 -19 42 -50z" />
    <glyph glyph-name="uni2CB00300" unicode="&#x2cb0;&#x300;" horiz-adv-x="1963" 
d="M1086 1489q0 -40 -99 -47q-66 65 -306 250q-9 6 -71 18q-51 9 -51 33q0 40 62 49q10 1 94 11q11 4 22 4q65 0 207 -127.5t142 -190.5zM1913 717q0 -301 -159 -517q-167 -228 -424 -228q-165 0 -241 16q-106 22 -208 100q-137 -116 -271 -116q-258 0 -417 224
q-143 200 -143 468q0 293 146 494q163 226 445 226q41 0 41 -38q0 -59 -93 -59q-158 0 -237 -170q-63 -135 -63 -334q0 -253 76 -454q99 -263 290 -263q217 0 217 532v447q0 36 -62 108.5t-62 82.5q0 46 66 93q60 43 103 43q67 0 120 -39q57 -42 57 -107v-929
q0 -111 96 -176q81 -55 183 -55q294 0 294 532q0 249 -74 439q-97 250 -285 250q-28 0 -37 4q-22 9 -22 55q0 28 9 35q7 4 33 4l68 -1q265 -4 417 -208q137 -185 137 -459z" />
    <glyph glyph-name="uni2CB10300" unicode="&#x2cb1;&#x300;" horiz-adv-x="1577" 
d="M893 1167q0 -40 -100 -47q-61 61 -306 250q-8 6 -71 18q-50 9 -50 33q0 40 62 49q24 4 93 11q12 4 22 4q65 0 207.5 -127.5t142.5 -190.5zM1527 494q0 -210 -124 -357q-132 -156 -338 -156q-130 0 -191 11q-83 15 -165 68q-108 -79 -214 -79q-194 0 -322 143
q-123 137 -123 334q0 214 127 353q130 143 342 143q32 0 32 -26q0 -41 -73 -41q-126 0 -189 -117q-49 -91 -49 -230q0 -174 60 -313q79 -182 229 -182q173 0 173 367v309q0 24 -49.5 74.5t-49.5 57.5q0 31 53 63q48 30 82 30q49 0 91 -25q49 -29 49 -75v-641q0 -75 76 -121
q65 -39 145 -39q234 0 234 367q0 171 -59 303q-77 172 -226 172q-47 0 -47 41q0 28 33 27l55 -1q200 -4 319 -131.5t119 -328.5z" />
    <glyph glyph-name="uni2CB20300" unicode="&#x2cb2;&#x300;" horiz-adv-x="1305" 
d="M831 1489q0 -40 -99 -47q-66 65 -306 250q-8 6 -71 18q-51 9 -51 33q0 40 62 49q10 1 94 11q11 4 22 4q65 0 207 -127.5t142 -190.5zM1255 604q0 -49 -38 -119q-42 -77 -81 -77q-7 0 -72 73.5t-94 73.5h-794q-59 0 -96 70q-30 59 -30 103q0 49 37 119q41 77 80 77
q7 0 72 -72t95 -72h231v239q0 34 -62 108t-62 84q0 43 62 89t106 46q63 0 116 -36q63 -43 63 -109v-421h339q58 0 96 -72q32 -62 32 -104z" />
    <glyph glyph-name="uni2CB30300" unicode="&#x2cb3;&#x300;" horiz-adv-x="1055" 
d="M1005 396q0 -36 -29 -83q-32 -52 -65 -52q-6 0 -57 50.5t-75 50.5h-629q-46 0 -75 49q-25 42 -25 91q0 34 30 82q32 53 63 53q6 0 57.5 -49.5t74.5 -49.5h184v165q0 23 -49.5 74t-49.5 58q0 31 52 63q48 30 82 30q49 0 92 -25q49 -29 49 -75v-290h269q47 0 76 -50
q25 -42 25 -92zM647 1167q0 -40 -100 -47q-60 60 -306 250q-4 3 -62 16l-9 2q-50 11 -50 33q0 40 62 49q24 4 93 11q12 4 22 4q65 0 207.5 -127.5t142.5 -190.5z" />
    <glyph glyph-name="uni2CB40300" unicode="&#x2cb4;&#x300;" horiz-adv-x="1082" 
d="M913 729q0 -72 -50.5 -123.5t-122.5 -51.5q-68 0 -120 49.5t-52 117.5q0 70 51 121t121 51q69 0 121 -47.5t52 -116.5zM1032 123q0 -47 -75 -94q-69 -42 -120 -42q-91 0 -444 366q-343 356 -343 413q0 13 30 45q59 63 165 229q100 155 172 225q112 108 233 108
q51 0 100 -23q61 -29 61 -73q0 -58 -58 -138q-62 -85 -117 -85q-22 0 -62 15t-60 16l-70 34l-220 -311q466 -519 629 -589q28 -11 103.5 -40t75.5 -56zM749 1489q0 -40 -99 -47q-69 68 -306 250q-8 6 -71 18q-51 9 -51 33q0 40 62 49q10 1 94 11q10 4 22 4q65 0 207 -127.5
t142 -190.5z" />
    <glyph glyph-name="uni2CB50300" unicode="&#x2cb5;&#x300;" horiz-adv-x="777" 
d="M645 503q0 -49 -35 -85t-84 -36q-47 0 -83 34t-36 81t36 83t83 36q48 0 83.5 -32.5t35.5 -80.5zM727 85q0 -32 -52 -65q-46 -29 -82 -29q-65 0 -307 252q-236 245 -236 285q0 9 21 31q40 42 114 158q67 106 118 155q77 75 161 75q35 0 69 -16q42 -19 42 -50
q0 -40 -41 -95q-42 -59 -80 -59q-15 0 -42.5 10t-41.5 11l-48 24l-152 -215q320 -357 434 -406q19 -7 71 -27.5t52 -38.5zM563 1167q0 -40 -100 -47q-60 60 -306 250q-4 3 -62 16l-9 2q-50 11 -50 33q0 40 62 49q24 4 93 11q12 4 22 4q65 0 207.5 -127.5t142.5 -190.5z" />
    <glyph glyph-name="uni2CB60300" unicode="&#x2cb6;&#x300;" horiz-adv-x="1485" 
d="M844 1489q0 -40 -99 -47q-66 65 -306 250q-8 6 -71 18q-51 9 -51 33q0 40 62 49q10 1 94 11q11 4 22 4q65 0 207 -127.5t142 -190.5zM1435 549q0 -43 -43 -104q-47 -66 -93 -66q-7 0 -82 63.5t-109 63.5h-912q-65 0 -107 58q-39 52 -39 119q0 42 44 104q48 67 92 67
q8 0 82.5 -63t108.5 -63h912q65 0 108 -58q38 -53 38 -121zM1435 43q0 -42 -44 -104q-48 -67 -92 -67q-7 0 -82 64t-109 64h-912q-66 0 -108 57q-38 52 -38 120q0 45 46 107t90 62q8 0 82 -62t109 -62h912q65 0 108 -59q38 -53 38 -120zM1435 1055q0 -43 -43 -103
q-47 -66 -93 -66q-7 0 -82 63.5t-109 63.5h-912q-65 0 -107 57q-39 52 -39 119q0 42 44 104q48 67 92 67q8 0 82.5 -62.5t108.5 -62.5h912q65 0 108 -59q38 -53 38 -121z" />
    <glyph glyph-name="uni2CB70300" unicode="&#x2cb7;&#x300;" horiz-adv-x="1055" 
d="M1005 708q0 -33 -31 -82q-33 -53 -63 -53q-6 0 -57 50.5t-75 50.5h-629q-46 0 -75 49q-25 42 -25 91q0 34 30 82q32 53 63 53q6 0 57.5 -49.5t74.5 -49.5h629q47 0 76 -50q25 -42 25 -92zM1005 372q0 -35 -29 -83q-33 -52 -65 -52q-6 0 -57 50.5t-75 50.5h-629
q-46 0 -75 49q-25 42 -25 91q0 34 30 82q32 53 63 53q6 0 57.5 -49.5t74.5 -49.5h629q47 0 76 -50q25 -42 25 -92zM1005 36q0 -35 -29 -83q-33 -52 -65 -52q-6 0 -57 50.5t-75 50.5h-629q-46 0 -75 49q-25 42 -25 91q0 34 30 82q32 53 63 53q6 0 57.5 -49.5t74.5 -49.5h629
q46 0 75 -50q26 -43 26 -92zM642 1167q0 -40 -100 -47q-60 60 -306 250q-4 3 -62 16l-9 2q-50 11 -50 33q0 40 62 49q24 4 93 11q12 4 22 4q65 0 207.5 -127.5t142.5 -190.5z" />
    <glyph glyph-name="uni2CB80300" unicode="&#x2cb8;&#x300;" horiz-adv-x="1274" 
d="M1224 -88q0 -69 -35 -69q-23 0 -68 -13t-68 -13q-62 0 -92 44q-16 23 -30 82q-10 44 -26 44h-686q-45 0 -104 42q-65 47 -65 94q0 27 67 57q25 10 88 39q144 69 548 589l-192 311l-60 -34q-17 -4 -52 -17.5t-54 -13.5q-52 0 -105 87q-49 80 -49 136q0 45 53 73
q44 23 87 23q169 0 421 -425q31 -65 75 -137q20 -32 20 -45q0 -41 -234 -334q-213 -267 -281 -333h681q161 0 161 -187zM648 1489q0 -40 -99 -47q-66 65 -306 250q-8 6 -71 18q-51 9 -51 33q0 40 62 49q10 1 94 11q11 4 22 4q66 0 207.5 -127.5t141.5 -190.5z" />
    <glyph glyph-name="uni2CB90300" unicode="&#x2cb9;&#x300;" horiz-adv-x="1031" 
d="M981 -61q0 -47 -28 -47q-18 0 -54 -9t-54 -9q-50 0 -73 30q-12 15 -23 57q-8 30 -21 30h-544q-37 0 -83 29q-51 31 -51 65q0 18 53 39q20 7 70 27q112 47 434 406l-152 215l-48 -24q-13 -1 -40.5 -11t-43.5 -10q-38 0 -80 59q-41 55 -41 95q0 31 42 50q34 16 69 16
q140 0 333 -293q15 -25 60 -95q16 -19 16 -30q0 -29 -186 -231q-171 -186 -222 -230h539q128 0 128 -129zM559 1167q0 -40 -100 -47q-60 60 -306 250q-4 3 -62 16l-9 2q-50 11 -50 33q0 40 62 49q24 4 93 11q12 4 22 4q65 0 207.5 -127.5t142.5 -190.5z" />
    <glyph glyph-name="uni2CBA0300" unicode="&#x2cba;&#x300;" horiz-adv-x="1485" 
d="M834 1489q0 -40 -99 -47q-66 65 -306 250q-8 6 -71 18q-51 9 -51 33q0 40 62 49q10 1 94 11q11 4 22 4q65 0 207 -127.5t142 -190.5zM1435 855q0 -44 -43 -104q-47 -66 -93 -66q-7 0 -82 63.5t-109 63.5h-912q-65 0 -107 58q-39 52 -39 119q0 42 44 103q48 67 92 67
q8 0 82.5 -62.5t108.5 -62.5h912q65 0 108 -59q38 -53 38 -120z" />
    <glyph glyph-name="uni2CBB0300" unicode="&#x2cbb;&#x300;" horiz-adv-x="1055" 
d="M1005 571q0 -35 -29 -83q-33 -52 -65 -52q-6 0 -57 50.5t-75 50.5h-629q-46 0 -75 49q-25 42 -25 91q0 34 30 82q32 53 63 53q6 0 57.5 -49.5t74.5 -49.5h629q47 0 76 -50q25 -42 25 -92zM625 1167q0 -40 -100 -47q-60 60 -306 250q-4 3 -62 16l-9 2q-50 11 -50 33
q0 40 62 49q24 4 93 11q12 4 22 4q65 0 207.5 -127.5t142.5 -190.5z" />
    <glyph glyph-name="uni2CBC0300" unicode="&#x2cbc;&#x300;" horiz-adv-x="1461" 
d="M1411 123q0 -46 -66 -93q-60 -43 -104 -43q-68 0 -121 38q-58 43 -58 108v912q0 35 -62.5 109t-62.5 82q0 46 67 93q60 43 103 43q67 0 119 -39q58 -42 58 -107v-912q0 -34 63.5 -109t63.5 -82zM970 123q0 -44 -62.5 -90t-107.5 -46q-63 0 -117 36q-63 43 -63 110v912
q0 35 -62.5 109t-62.5 82q0 46 67 93q60 43 103 43q68 0 120 -38q58 -43 58 -108v-912q0 -34 63.5 -109t63.5 -82zM524 123q0 -44 -64 -91q-60 -45 -106 -45q-67 0 -120 38q-59 43 -59 108v912q0 35 -62.5 109t-62.5 82q0 46 66 93q60 43 104 43q67 0 119 -38
q58 -43 58 -108v-912q0 -34 63.5 -109t63.5 -82zM829 1489q0 -40 -99 -47q-65 65 -306 250q-8 6 -71 18q-51 9 -51 33q0 40 62 49q10 1 94 11q11 4 22 4q66 0 207.5 -127.5t141.5 -190.5z" />
    <glyph glyph-name="uni2CBD0300" unicode="&#x2cbd;&#x300;" horiz-adv-x="1179" 
d="M1129 85q0 -32 -52 -64q-47 -30 -82 -30q-51 0 -93 25q-50 29 -50 76v629q0 23 -49 74.5t-49 57.5q0 31 52 63q48 30 82 30q49 0 91 -25q49 -29 49 -75v-630q0 -24 50.5 -75t50.5 -56zM779 85q0 -32 -52 -64q-47 -30 -82 -30q-51 0 -93 25q-50 29 -50 76v629
q0 23 -49.5 74.5t-49.5 57.5q0 31 53 63q48 30 82 30q49 0 91 -25q49 -29 49 -75v-630q0 -24 50.5 -75t50.5 -56zM426 85q0 -32 -52 -64q-47 -30 -82 -30q-51 0 -93 25q-50 29 -50 76v629q0 23 -49.5 74.5t-49.5 57.5q0 31 53 63q48 30 82 30q49 0 91 -25q49 -29 49 -75
v-630q0 -24 50.5 -75t50.5 -56zM689 1167q0 -40 -100 -47q-60 60 -306 250q-4 3 -62 16l-9 2q-50 11 -50 33q0 40 62 49q24 4 93 11q12 4 22 4q65 0 207.5 -127.5t142.5 -190.5z" />
    <glyph glyph-name="uni2CBE0300" unicode="&#x2cbe;&#x300;" horiz-adv-x="1744" 
d="M1734 809q0 -187 -162 -187h-288v-309q0 -34 64 -108.5t64 -81.5q0 -44 -62.5 -90t-107.5 -46q-63 0 -117 36q-63 43 -63 110v489h-219v-309q0 -34 63.5 -108.5t63.5 -81.5q0 -44 -67 -92q-60 -44 -102 -44q-64 0 -118 36q-63 43 -63 110v489h-223v-309
q0 -34 63.5 -108.5t63.5 -81.5q0 -45 -61 -90.5t-108 -45.5q-68 0 -121 38q-59 42 -59 108v912q0 34 -62.5 108.5t-62.5 83.5q0 43 63 89t108 46q66 0 118 -38q58 -43 58 -107v-493h223v311q0 34 -62.5 108.5t-62.5 83.5q0 43 65 90q61 45 106 45q66 0 119 -38
q58 -43 58 -107v-493h219v311q0 34 -62 108.5t-62 83.5q0 43 64 90q61 45 105 45q67 0 119 -38q58 -43 58 -107v-493h131q16 0 26 44q13 58 29 81q30 44 93 44q23 0 67.5 -13t68.5 -13q35 0 35 -68zM805 1489q0 -40 -99 -47q-66 65 -306 250q-8 6 -71 18q-51 9 -51 33
q0 40 62 49q10 1 94 11q11 4 22 4q65 0 207 -127.5t142 -190.5z" />
    <glyph glyph-name="uni2CBF0300" unicode="&#x2cbf;&#x300;" horiz-adv-x="1395" 
d="M1385 558q0 -129 -128 -129h-229v-213q0 -24 50.5 -75t50.5 -56q0 -32 -52 -64q-47 -30 -82 -30q-51 0 -93 25q-50 29 -50 76v337h-174v-213q0 -24 50.5 -75t50.5 -56q0 -32 -52 -64q-47 -30 -82 -30q-51 0 -93 25q-50 29 -50 76v337h-177v-213q0 -24 50.5 -75t50.5 -56
q0 -32 -52 -64q-47 -30 -82 -30q-51 0 -93 25q-50 29 -50 76v629q0 23 -49.5 74.5t-49.5 57.5q0 31 53 63q48 30 82 30q49 0 91 -25q49 -29 49 -75v-340h177v215q0 23 -49.5 74.5t-49.5 57.5q0 31 53 63q48 30 82 30q49 0 91 -25q49 -29 49 -75v-340h174v215q0 23 -49 74.5
t-49 57.5q0 31 52 63q48 30 82 30q49 0 91 -25q49 -29 49 -75v-340h104q13 0 21 30q11 43 22 57q23 30 74 30q18 0 54 -9t54 -9q28 0 28 -47zM689 1167q0 -40 -100 -47q-60 60 -306 250q-4 3 -62 16l-9 2q-50 11 -50 33q0 40 62 49q24 4 93 11q12 4 22 4q65 0 207.5 -127.5
t142.5 -190.5z" />
    <glyph glyph-name="uni2CC00300" unicode="&#x2cc0;&#x300;" horiz-adv-x="1421" 
d="M1371 174h-704v-290q0 -34 63.5 -110t63.5 -82q0 -43 -63 -89t-107 -46q-116 0 -165 88q-14 27 -14 57v472h-435v112h435v759q0 32 -62.5 109t-62.5 82q0 42 63 90q60 46 107 46q70 0 123 -43q96 25 206 25q239 0 393 -115q159 -120 159 -312q0 -199 -158 -357
q-172 -172 -425 -172q-60 0 -121 11v-123h704v-112zM1126 851q0 176 -97.5 283t-262.5 107q-53 0 -99 -31v-701q13 0 50 -3q32 -3 51 -3q84 0 169 53q79 49 131 125q58 85 58 170zM921 1489q0 -40 -99 -47q-69 68 -306 250q-9 6 -71 18q-51 9 -51 33q0 41 62 49q19 2 94 11
q10 4 22 4q67 0 208 -126.5t141 -191.5z" />
    <glyph glyph-name="uni2CC10300" unicode="&#x2cc1;&#x300;" horiz-adv-x="1134" 
d="M1085 639q0 -145 -138.5 -255t-324.5 -110q-50 0 -96 8v-119h558v-77h-558v-186q0 -23 50.5 -75t50.5 -56q0 -28 -48.5 -61t-85.5 -33q-90 0 -131 60q-12 19 -12 40v311h-340v77h340v558q0 22 -49.5 73.5t-49.5 58.5q0 27 51 61q48 32 84 32q54 0 98 -29q79 17 162 17
q188 0 313.5 -80.5t125.5 -214.5zM890 587q0 121 -76 194q-79 75 -209 75q-42 0 -79 -21v-484q92 -4 77 -4q101 0 194 75.5t93 164.5zM720 1167q0 -40 -99 -47q-69 69 -306 250q-8 6 -71 18q-51 9 -51 33q0 40 62 49q19 2 94 11q10 4 22 4q67 0 208 -126.5t141 -191.5z" />
    <glyph glyph-name="uni2CC40300" unicode="&#x2cc4;&#x300;" horiz-adv-x="1435" 
d="M1385 185q0 -251 -188 -403q-169 -136 -396 -136q-109 0 -293 81q-17 -1 -26 -45q-13 -59 -29 -82q-30 -43 -94 -43q-23 0 -68 13.5t-68 13.5q-35 0 -35 68q0 82 40 132q44 55 124 55q158 -70 261 -70q201 0 350 97q181 117 181 332q0 163 -85 291q-97 145 -252 145
q-125 0 -299 -173q-201 0 -200 61l497 721l-180 -19q-39 -4 -170 -27q-110 -19 -172 -19q-114 0 -168 37q-65 45 -65 155q0 68 35 68q23 0 68 13t68 13q75 0 98 -47l26 -87q23 -48 98 -48q54 0 141 22q107 27 140 31q134 17 408 54l-470 -696q107 30 189 30q209 0 367 -147
q167 -156 167 -391zM664 1489q0 -40 -99 -47q-66 65 -306 250q-8 6 -71 18q-51 9 -51 33q0 40 62 49q10 1 94 11q11 4 22 4q66 0 207.5 -127.5t141.5 -190.5z" />
    <glyph glyph-name="uni2CC50300" unicode="&#x2cc5;&#x300;" horiz-adv-x="1149" 
d="M1099 13q0 -169 -147 -275q-132 -95 -309 -95q-95 0 -240 56q-13 -1 -21 -31q-10 -39 -23 -56q-23 -30 -74 -30q-18 0 -53.5 9t-53.5 9q-28 0 -28 47q0 129 129 129q124 -48 215 -48q156 0 273 68q140 81 140 226q0 115 -63 204q-71 100 -181 100q-88 0 -260 -121
q-160 0 -159 42l382 610l-143 -13q-32 -3 -135 -19q-77 -12 -136 -12q-185 0 -185 132q0 47 28 47q18 0 54 9t54 9q56 0 87.5 -63t88.5 -63q45 0 112 15q86 19 111 22l323 37l-372 -593q87 21 162 21q169 0 292 -100q132 -107 132 -273zM555 1167q0 -40 -100 -47
q-60 60 -306 250q-4 3 -62 16l-9 2q-50 11 -50 33q0 40 62 49q24 4 93 11q12 4 22 4q65 0 207.5 -127.5t142.5 -190.5z" />
    <glyph glyph-name="uni2CC60300" unicode="&#x2cc6;&#x300;" horiz-adv-x="866" 
d="M856 1192q0 -22 -8 -44l-507 -1407q-28 -76 -128 -76q-103 0 -169 107q-34 55 -34 92q0 34 83 69q88 38 101 74l391 1097q0 36 -28 106.5t-28 96.5q0 32 63 51q46 14 84 14q66 0 123 -57t57 -123zM814 1489q0 -40 -99 -47q-66 65 -306 250q-9 6 -71 18q-51 9 -51 33
q0 40 62 49q10 1 94 11q11 4 22 4q65 0 207 -127.5t142 -190.5z" />
    <glyph glyph-name="uni2CC70300" unicode="&#x2cc7;&#x300;" horiz-adv-x="700" 
d="M690 821q0 -16 -6 -30l-408 -985q-22 -54 -103 -54q-56 0 -108 41q-55 44 -55 98q0 25 66 49q73 27 83 51l314 769q0 25 -22.5 74.5t-22.5 66.5q0 23 50 36q38 10 68 10q50 0 97 -38.5t47 -87.5zM644 1167q0 -40 -100 -47q-60 60 -306 250q-6 4 -62 16l-9 2
q-50 11 -50 33q0 40 62 49q25 4 93 11q12 4 22 4q65 0 207.5 -127.5t142.5 -190.5z" />
    <glyph glyph-name="uni2CC80300" unicode="&#x2cc8;&#x300;" 
d="M604 1489q0 -40 -99 -47q-67 68 -306 250q-8 6 -71 18q-51 9 -51 33q0 41 62 49q19 2 94 11q10 4 22 4q65 0 207 -127.5t142 -190.5zM1049 -172q-183 -271 -476 -271q-121 0 -195 28q-80 29 -163 110q-165 163 -165 374q0 194 107 357h-107v112h190q61 64 195 105
q165 51 197 69q89 51 89 158q0 120 -73 266q-82 163 -176 163q-72 0 -119 -64q-42 -59 -42 -133q0 -88 57 -152q9 -11 111 -115q-1 -16 -16 -36t-30 -20q-146 0 -238 59q-108 70 -108 209q0 167 145 260q119 76 278 76q211 0 335 -139q118 -133 118 -346q0 -147 -135 -221
q-16 -9 -277 -139h412v-112h-539q-122 -152 -122 -430q0 -137 82 -239q87 -110 221 -110q205 0 359 187q17 -2 85 -6z" />
    <glyph glyph-name="uni2CC90300" unicode="&#x2cc9;&#x300;" horiz-adv-x="892" 
d="M514 1167q0 -40 -99 -47q-68 68 -306 250q-8 6 -71 18q-51 9 -51 33q0 40 62 49q10 1 94 11q10 4 22 4q65 0 207 -127.5t142 -190.5zM842 -139q-145 -187 -377 -187q-179 0 -288 99q-127 116 -127 274q0 135 85 247h-85v77h151q49 43 155 72q127 34 155 48q71 36 71 109
q0 82 -58 183q-65 113 -139 113q-55 0 -91.5 -40.5t-36.5 -95.5q0 -56 45 -105q44 -40 88 -79q-1 -12 -13 -25.5t-23 -13.5q-109 0 -182 38q-93 48 -93 147q0 115 115 179q95 53 221 53q158 0 256 -88q103 -91 103 -247q0 -101 -108 -152q-9 -4 -219 -96h327v-77h-427
q-97 -105 -97 -297q0 -102 68 -180q71 -81 172 -81q162 0 285 129q13 -1 67 -4z" />
    <glyph glyph-name="uni2CCA0300" unicode="&#x2cca;&#x300;" horiz-adv-x="977" 
d="M927 747q0 -421 -298 -747q-256 -281 -468 -281q-92 0 -92 37t87 74q33 12 116 48q114 52 251 270q183 291 183 701q0 162 -44 293q-61 178 -180 178q-109 0 -167 -143q-45 -112 -45 -250q0 -128 172 -303q-7 -56 -45 -56q-137 0 -242 109t-105 246q0 192 116 327
q122 142 311 142q221 0 343 -202q107 -177 107 -443zM577 1489q0 -40 -99 -47q-66 65 -306 250q-8 6 -71 18q-51 9 -51 33q0 40 62 49q10 1 94 11q11 4 22 4q65 0 207 -127.5t142 -190.5z" />
    <glyph glyph-name="uni2CCB0300" unicode="&#x2ccb;&#x300;" horiz-adv-x="795" 
d="M745 515q0 -290 -236 -515q-203 -194 -371 -194q-73 0 -73 26q0 25 69 51q26 8 92 33q90 36 199 186q145 200 145 483q0 113 -35 202q-48 123 -143 123q-86 0 -132 -98q-36 -77 -36 -173q0 -88 137 -208q-6 -39 -36 -39q-103 0 -187 70q-88 74 -88 175q0 141 100 233
q97 90 239 90q176 0 272 -140q84 -121 84 -305zM490 1167q0 -40 -100 -47q-60 60 -306 250q-4 3 -62 16l-9 2q-50 11 -50 33q0 40 62 49q24 4 93 11q12 4 22 4q65 0 207.5 -127.5t142.5 -190.5z" />
    <glyph glyph-name="uni2CCC0300" unicode="&#x2ccc;&#x300;" horiz-adv-x="1306" 
d="M577 1489q0 -40 -99 -47q-66 65 -306 250q-8 6 -71 18q-51 9 -51 33q0 40 62 49q10 1 94 11q11 4 22 4q65 0 207 -127.5t142 -190.5zM1256 164q-8 -241 -198 -388q-167 -130 -387 -130q-109 0 -293 81q-16 0 -26 -44q-13 -59 -28 -82q-29 -44 -95 -44q-23 0 -67.5 13.5
t-68.5 13.5q-34 0 -34 68q0 82 40 132q43 55 123 55q159 -70 262 -70q193 0 343 93q182 113 187 318q4 168 -82 294q-94 137 -255 160l-266 -28q18 41 48 94q319 0 319 280q0 140 -69 221q-74 87 -211 87q-90 0 -130 -35q-28 -23 -44 -76q-11 -34 -39 -88q-36 -41 -114 -41
q-49 0 -83 25q-38 28 -38 75q0 110 139 176q116 55 259 55q234 0 423 -100q201 -106 201 -255q0 -60 -35 -120q-114 -192 -315 -181q27 4 56 4q212 0 353 -179q132 -168 125 -384z" />
    <glyph glyph-name="uni2CCD0300" unicode="&#x2ccd;&#x300;" horiz-adv-x="1056" 
d="M1006 0q-6 -162 -144 -260q-119 -84 -291 -96q-100 -7 -261 55q-12 0 -20 -30q-10 -41 -23 -57q-23 -30 -74 -30q-18 0 -54 9t-54 9q-28 0 -28 47q0 129 130 129q139 -53 235 -47q153 10 257 70q132 76 136 212q3 122 -71.5 210.5t-195.5 103.5l-211 -20q14 28 38 65
q132 0 201 114q52 86 52 192q0 101 -61 158q-59 54 -161 54q-110 0 -138 -76q-8 -22 -32 -61q-28 -29 -90 -29q-96 0 -96 70q0 75 111 121q92 38 205 38q172 0 299 -53q173 -72 173 -221q0 -26 -6 -54q-43 -202 -249 -237q22 2 44 2q159 0 272 -114.5t107 -273.5zM577 1167
q0 -40 -100 -47q-60 60 -306 250q-4 3 -62 16l-9 2q-50 11 -50 33q0 40 62 49q24 4 93 11q12 4 22 4q65 0 207.5 -127.5t142.5 -190.5z" />
    <glyph glyph-name="uni2CCE0300" unicode="&#x2cce;&#x300;" horiz-adv-x="1364" 
d="M1354 834q0 -137 -105.5 -246t-241.5 -109q-39 0 -45 56q172 175 172 303q0 114 -43 241q-53 159 -136 159q-74 0 -107 -93l-507 -1407q-28 -76 -128 -76q-102 0 -169 107q-34 54 -34 91q0 33 83 69q89 38 101 74l396 1131q0 33 -30.5 93t-30.5 76q0 37 80 56
q52 13 107 13q47 0 211 -69q52 -15 157 -46q88 -28 143 -86q127 -134 127 -337zM820 1489q0 -40 -99 -47q-66 65 -306 250q-9 6 -71 18q-51 9 -51 33q0 40 62 49q10 1 94 11q11 4 22 4q65 0 207 -127.5t142 -190.5z" />
    <glyph glyph-name="uni2CCF0300" unicode="&#x2ccf;&#x300;" horiz-adv-x="1101" 
d="M1091 584q0 -101 -90 -177q-86 -72 -189 -72q-31 0 -36 40q138 122 138 212q0 80 -34 169q-42 110 -109 110q-60 0 -87 -64l-408 -985q-22 -54 -103 -54q-83 0 -136 75q-27 38 -27 64q0 25 66 49q73 27 83 51l318 791q0 23 -24.5 65.5t-24.5 53.5q0 48 150 48
q39 0 86 -17q28 -10 84 -31q42 -10 127 -32q70 -20 114 -60q102 -93 102 -236zM679 1167q0 -40 -100 -47q-60 60 -306 250q-4 3 -62 16l-9 2q-50 11 -50 33q0 40 62 49q24 4 93 11q12 4 22 4q65 0 207.5 -127.5t142.5 -190.5z" />
    <glyph glyph-name="uni2CD00300" unicode="&#x2cd0;&#x300;" horiz-adv-x="1361" 
d="M1311 174q0 -187 -162 -187h-928q-47 0 -103 30q-68 36 -68 80q0 8 62.5 82t62.5 108v758q0 34 -62.5 108.5t-62.5 83.5q0 45 67 92q61 43 104 43q66 0 118 -38q58 -43 58 -107v-1128h594q17 0 26 45q13 58 28 81q30 45 93 45q24 0 69 -14t68 -14q36 0 36 -68zM406 1489
q0 -40 -99 -47q-66 65 -306 250q-8 6 -71 18q-51 9 -51 33q0 40 62 49q10 1 94 11q11 4 22 4q65 0 207 -127.5t142 -190.5z" />
    <glyph glyph-name="uni2CD10300" unicode="&#x2cd1;&#x300;" 
d="M1049 120q0 -129 -128 -129h-736q-35 0 -81 21q-54 25 -54 55q0 6 49.5 56.5t49.5 74.5v523q0 23 -49.5 74.5t-49.5 57.5q0 31 53 63q48 30 82 30q49 0 91 -25q49 -29 49 -75v-778h471q13 0 21 31q10 40 22 56q23 31 74 31q18 0 54 -9.5t54 -9.5q28 0 28 -47zM336 1167
q0 -40 -100 -47q-60 60 -306 250q-4 3 -62 16l-9 2q-50 11 -50 33q0 40 62 49q24 4 93 11q12 4 22 4q65 0 207.5 -127.5t142.5 -190.5z" />
    <glyph glyph-name="uni2CD20300" unicode="&#x2cd2;&#x300;" horiz-adv-x="977" 
d="M927 441q0 -192 -116 -327q-122 -142 -311 -142q-221 0 -343 202q-107 177 -107 444q0 420 298 746q257 282 468 282q92 0 92 -38q0 -36 -88 -74q-32 -12 -115 -48q-114 -52 -251 -270q-183 -291 -183 -700q0 -162 44 -293q61 -179 180 -179q108 0 167 143q45 111 45 251
q0 127 -172 302q7 56 45 56q137 0 242 -109t105 -246zM443 1533q0 -40 -99 -47q-63 62 -273 206q-10 7 -71 18q-51 9 -51 33q0 40 62 49q10 1 94 11q11 4 22 4q65 0 190.5 -105.5t125.5 -168.5z" />
    <glyph glyph-name="uni2CD30300" unicode="&#x2cd3;&#x300;" horiz-adv-x="795" 
d="M745 304q0 -141 -98.5 -232t-240.5 -91q-176 0 -272 140q-84 121 -84 305q0 290 236 515q203 194 371 194q73 0 73 -26t-69 -51q-26 -8 -92 -33q-90 -36 -199 -186q-145 -200 -145 -483q0 -113 35 -202q48 -123 143 -123q86 0 132 98q36 77 36 173q0 88 -137 208
q6 39 36 39q103 0 187 -70q88 -74 88 -175zM527 1167q0 -40 -100 -47q-60 60 -306 250q-4 3 -62 16l-9 2q-50 11 -50 33q0 40 62 49q24 4 93 11q12 4 22 4q65 0 207.5 -127.5t142.5 -190.5z" />
    <glyph glyph-name="uni2CD40300" unicode="&#x2cd4;&#x300;" horiz-adv-x="867" 
d="M817 -307q0 -46 -66 -93q-60 -43 -103 -43q-68 0 -121 38q-59 42 -59 108v1081q0 43 -41 111q-45 74 -84 74h-293q36 47 153 255q113 199 185 287q113 135 217 135q44 0 87 -23q53 -28 53 -72q0 -57 -48 -137q-53 -87 -105 -87q-68 0 -166 66l-192 -312h279
q176 0 176 -116v-1082q0 -36 64 -108.5t64 -81.5zM387 1578q0 -40 -99 -47q-28 18 -217 161q-9 7 -71 18q-51 9 -51 33q0 40 62 49q10 1 94 11q11 4 22 4q64 0 161 -82q99 -85 99 -147z" />
    <glyph glyph-name="uni2CD50300" unicode="&#x2cd5;&#x300;" horiz-adv-x="708" 
d="M658 -231q0 -32 -52 -64q-47 -30 -82 -30q-51 0 -93 25q-50 29 -50 76v841q0 32 -34 80t-64 48h-233q97 145 192 280q131 187 248 187q35 0 69 -16q42 -19 42 -50q0 -40 -41 -95q-42 -59 -80 -59q-54 0 -132 45l-152 -215h221q140 0 140 -80v-842q0 -24 50.5 -74.5
t50.5 -56.5zM568 1318q0 -40 -100 -47q-60 60 -306 250q-4 3 -62 16l-9 2q-50 11 -50 33q0 41 62 49q22 3 93 11q12 4 22 4q65 0 207.5 -128t142.5 -190z" />
    <glyph glyph-name="uni2CD60300" unicode="&#x2cd6;&#x300;" horiz-adv-x="1494" 
d="M1444 439q0 -187 -161 -187h-714l1 -71q2 -130 -65 -228q-75 -111 -199 -111q-110 0 -183 74t-73 184q0 105 63 182q66 82 169 82h66v681q0 35 -62.5 109t-62.5 83q0 44 64 91q60 44 106 44q68 0 120 -37q56 -42 56 -108v-863h555q16 0 27 44q14 60 28 82q30 44 94 44
q23 0 68 -13.5t68 -13.5q35 0 35 -68zM348 177v74q-64 -7 -117 -36q-72 -39 -72 -98q0 -44 31.5 -80.5t75.5 -36.5q82 0 82 177zM527 1489q0 -40 -99 -47q-66 65 -306 250q-8 6 -71 18q-51 9 -51 33q0 40 62 49q10 1 94 11q11 4 22 4q65 0 207 -127.5t142 -190.5z" />
    <glyph glyph-name="uni2CD70300" unicode="&#x2cd7;&#x300;" horiz-adv-x="1205" 
d="M1155 303q0 -129 -128 -129h-565l1 -49q2 -93 -57 -162q-61 -72 -153 -72q-83 0 -141 47q-62 50 -62 131q0 77 53.5 129.5t130.5 52.5h52v470q0 23 -49.5 74t-49.5 58q0 31 53 63q48 30 82 30q49 0 91 -25q49 -29 49 -75v-595h440q13 0 21 30q11 43 22 57q23 30 75 30
q18 0 53.5 -9t53.5 -9q28 0 28 -47zM286 122v51q-49 -4 -93 -25q-57 -27 -57 -67q0 -32 26.5 -56.5t58.5 -24.5q65 0 65 122zM472 1167q0 -40 -100 -47q-60 60 -306 250q-4 3 -62 16l-9 2q-50 11 -50 33q0 40 62 49q24 4 93 11q12 4 22 4q65 0 207.5 -127.5t142.5 -190.5z
" />
    <glyph glyph-name="uni2CD80300" unicode="&#x2cd8;&#x300;" horiz-adv-x="1360" 
d="M1310 123q0 -44 -67 -92q-61 -44 -103 -44h-918q-43 0 -103 43q-66 47 -66 93q0 8 62 82t62 109v731q0 34 -63.5 109t-63.5 82q0 46 66 93q60 43 104 43q63 0 116 -36q64 -43 64 -110l-1 -1093q0 -17 -4 -33h572q-4 16 -4 33v912q0 34 -63.5 109t-63.5 82q0 46 66 93
q60 43 103 43q68 0 121 -38q58 -43 58 -108v-912q0 -35 63 -109t63 -82zM772 1489q0 -40 -99 -47q-66 65 -306 250q-9 6 -71 18q-51 9 -51 33q0 40 62 49q10 1 94 11q11 4 22 4q65 0 207 -127.5t142 -190.5z" />
    <glyph glyph-name="uni2CD90300" unicode="&#x2cd9;&#x300;" 
d="M1049 85q0 -32 -52 -65q-48 -29 -83 -29h-727q-35 0 -83 29q-52 33 -52 65q0 5 49.5 56t49.5 75v505q0 24 -50.5 75t-50.5 57q0 31 53 63q48 30 82 30q50 0 92 -25q50 -29 50 -75v-754q0 -12 -3 -23h453q-3 11 -3 23v629q0 24 -50.5 75t-50.5 57q0 31 53 63q48 30 82 30
q50 0 92 -25q50 -29 50 -75v-630q0 -24 49.5 -75t49.5 -56zM650 1167q0 -40 -100 -47q-60 60 -306 250q-4 3 -62 16l-9 2q-50 11 -50 33q0 40 62 49q24 4 93 11q12 4 22 4q65 0 207.5 -127.5t142.5 -190.5z" />
    <glyph glyph-name="uni2CDA0300" unicode="&#x2cda;&#x300;" horiz-adv-x="1719" 
d="M1709 -80q0 -68 -35 -68q-23 0 -68 -13.5t-68 -13.5q-66 0 -94 44q-15 23 -28 82q-10 44 -26 44h-1218q-162 0 -162 187q0 68 36 68q23 0 67.5 13.5t67.5 13.5q65 0 94 -44q16 -23 28 -82q10 -45 26 -44q74 114 194 356l-192 123q-88 56 -88 151q0 50 25 102q22 45 46 45
q6 0 14 -5q19 -13 64.5 -26t65.5 -26q65 -41 65 -108q0 -17 -8.5 -51.5t-8.5 -50.5q0 -14 10 -21l54 -35q131 280 131 366q0 5 -47.5 92.5t-47.5 134.5q0 49 45 118q49 74 95 74h13q29 -7 61 -102q4 -13 41 -129q135 -327 182 -426q104 -220 232 -392q101 -136 111 -145
q52 -45 161 -45q162 0 162 -187zM1107 219q-65 108 -165 297q-115 217 -163 300q-48 -97 -140 -299zM1083 107l-489 311q-88 -190 -155 -311h644zM866 1489q0 -40 -99 -47q-66 65 -306 250q-8 6 -71 18q-51 9 -51 33q0 40 62 49q10 1 94 11q11 4 22 4q65 0 207 -127.5
t142 -190.5z" />
    <glyph glyph-name="uni2CDB0300" unicode="&#x2cdb;&#x300;" horiz-adv-x="1367" 
d="M1357 -55q0 -47 -28 -47q-18 0 -54 -9.5t-54 -9.5q-51 0 -75 31q-12 16 -22 56q-7 30 -21 30h-965q-128 0 -128 130q0 46 28 46q18 0 54 9.5t54 9.5q50 0 74 -31q12 -15 22 -56q8 -31 21 -30q59 79 153 246l-152 84q-70 39 -70 104q0 28 15 61q18 40 42 40q-10 0 63 -20
q32 -9 51 -19q51 -28 51 -74q0 -12 -6.5 -35.5t-6.5 -35.5q0 -10 8 -14l43 -24q103 193 103 253q0 1 -37.5 62t-37.5 94q0 36 38 84.5t73 48.5q8 0 10 -1q24 -5 49 -70q7 -19 32 -89q110 -231 144 -294q83 -153 184 -270q82 -94 89 -100q39 -31 127 -31q129 0 129 -129z
M879 151q-84 138 -259 412q-39 -67 -112 -206zM860 74l-388 215q-70 -132 -122 -215h510zM719 1167q0 -40 -100 -47q-60 60 -306 250q-4 3 -62 16l-9 2q-50 11 -50 33q0 40 62 49q24 4 93 11q12 4 22 4q65 0 207.5 -127.5t142.5 -190.5z" />
    <glyph glyph-name="uni2CDC0300" unicode="&#x2cdc;&#x300;" horiz-adv-x="1163" 
d="M1450 1759q0 -104 -59 -192q-66 -99 -166 -99q-64 0 -216 85q-73 41 -219 124q-49 0 -83 -50q-29 -45 -29 -97q0 -97 113 -217q169 -179 209 -241q112 -175 112 -409q0 -270 -132 -466q-151 -225 -409 -225q-247 0 -392 204q-129 181 -129 438q0 273 135 459
q151 209 414 209q-20 42 -20 86q0 191 87 314q98 139 282 139q30 0 159 -76.5t202 -76.5q21 0 51 72.5t60 72.5t30 -54zM885 552q0 231 -69 408q-90 232 -265 232q-148 0 -221 -157q-56 -123 -56 -310q0 -242 67 -424q91 -243 271 -243q273 0 273 494zM527 1489
q0 -40 -99 -47q-67 66 -306 250q-8 6 -71 18q-51 9 -51 33q0 40 62 49q19 2 94 11q11 4 22 4q67 0 208 -126.5t141 -191.5z" />
    <glyph glyph-name="uni2CDD0300" unicode="&#x2cdd;&#x300;" horiz-adv-x="1007" 
d="M1245 1308q0 -82 -54 -147q-56 -69 -137 -69q-55 0 -186 63l-186 92q-40 0 -68 -34t-28 -75q0 -72 96 -161q148 -137 179 -179q96 -129 96 -304q0 -212 -123 -358q-131 -155 -339 -155q-200 0 -325 140q-120 135 -120 337q0 214 126 353q130 143 342 143q-16 31 -16 64
q0 151 81 242q85 94 234 94q27 0 136.5 -57t171.5 -57q18 0 43.5 54t51.5 54q25 0 25 -40zM763 412q0 173 -58 303q-77 172 -227 172q-128 0 -189 -116q-48 -91 -48 -231q0 -180 58 -315q77 -180 231 -180q233 0 233 367zM498 1188q0 -40 -100 -47q-67 67 -277 229
q-4 3 -62 16l-9 2q-50 11 -50 33q0 40 62 49q31 5 93 11q12 4 22 4q65 0 207 -128q114 -102 114 -169z" />
    <glyph glyph-name="uni2CDE0300" unicode="&#x2cde;&#x300;" horiz-adv-x="1361" 
d="M1311 1159q0 -69 -36 -69q-23 0 -67.5 -13t-67.5 -13q-66 0 -95 44q-15 24 -28 81q-9 45 -26 45h-594v-1135h385q16 0 26 45q12 58 28 81q29 45 94 45q23 0 67.5 -14t67.5 -14q36 0 36 -68q0 -187 -162 -187h-718q-47 0 -103 30q-68 36 -68 80q0 8 62.5 82t62.5 108v758
q0 34 -62.5 108t-62.5 84q0 42 68 78q58 31 103 31h928q162 0 162 -187zM694 1489q0 -40 -99 -47q-66 65 -306 250q-9 6 -71 18q-51 9 -51 33q0 40 62 49q10 1 94 11q11 4 22 4q65 0 207 -127.5t142 -190.5z" />
    <glyph glyph-name="uni2CDF0300" unicode="&#x2cdf;&#x300;" 
d="M1049 799q0 -47 -28 -47q-18 0 -53.5 -9t-53.5 -9q-52 0 -75 30q-12 15 -22 56q-8 31 -21 31h-471v-783h305q13 0 21 31q10 40 22 56q23 31 74 31q18 0 54 -9.5t54 -9.5q28 0 28 -47q0 -129 -128 -129h-570q-35 0 -81 21q-54 25 -54 55q0 6 49.5 56.5t49.5 74.5v523
q0 23 -49.5 74t-49.5 58q0 29 54 54q46 21 81 21h736q128 0 128 -129zM575 1167q0 -40 -100 -47q-60 60 -306 250q-4 3 -62 16l-9 2q-50 11 -50 33q0 40 62 49q24 4 93 11q12 4 22 4q65 0 207.5 -127.5t142.5 -190.5z" />
    <glyph glyph-name="uni2CE00300" unicode="&#x2ce0;&#x300;" horiz-adv-x="1484" 
d="M1434 927q0 -225 -120 -375q-131 -162 -351 -162h-121l1 -535q0 -34 63.5 -108.5t63.5 -81.5q0 -45 -63 -92q-59 -44 -106 -44q-62 0 -117 36q-64 42 -64 109v716h-39q-237 0 -327 116q-79 101 -79 348v199q0 34 -62.5 108.5t-62.5 82.5q0 44 64 91q60 44 107 44
q66 0 118 -38q58 -43 58 -107v-380q0 -184 33 -253q47 -97 190 -99v543q0 125 79 216q82 96 205 96q530 0 530 -430zM1188 851q0 206 -44 289q-54 101 -202 101q-100 0 -100 -137v-602h98q124 0 192 118q56 97 56 231zM836 1489q0 -40 -99 -47q-66 65 -306 250q-9 6 -71 18
q-51 9 -51 33q0 40 62 49q10 1 94 11q11 4 22 4q65 0 207 -127.5t142 -190.5z" />
    <glyph glyph-name="uni2CE10300" unicode="&#x2ce1;&#x300;" horiz-adv-x="1197" 
d="M1147 639q0 -165 -104 -267.5t-269 -102.5h-96v-369q0 -24 50.5 -75t50.5 -56q0 -32 -52 -64q-47 -30 -82 -30q-50 0 -93 25q-50 28 -50 75v494h-31q-179 0 -250.5 70.5t-71.5 249.5v137q0 23 -49.5 74.5t-49.5 57.5q0 31 53 63q48 30 82 30q49 0 91 -25q49 -29 49 -75
v-262q0 -126 27 -175q37 -67 150 -67v374q0 91 66.5 153t158.5 62q420 0 420 -297zM952 587q0 142 -35 199q-43 70 -160 70q-79 0 -79 -94v-415h78q93 0 147 76q49 68 49 164zM693 1167q0 -40 -100 -47q-60 60 -306 250q-4 3 -62 16l-9 2q-50 11 -50 33q0 40 62 49
q24 4 93 11q12 4 22 4q65 0 207.5 -127.5t142.5 -190.5z" />
    <glyph glyph-name="uni2CE20300" unicode="&#x2ce2;&#x300;" horiz-adv-x="1538" 
d="M1528 1159q0 -69 -36 -69q-23 0 -67.5 -13t-67.5 -13q-64 0 -93 44q-16 23 -29 82q-10 44 -26 44h-215l1 -562q106 -137 106 -374q0 -222 -120 -386q-98 -135 -307 -265q-143 -89 -215 -89q-26 0 -31 30l4 8q10 9 103 75q186 133 275 256q109 152 120 346
q-118 -301 -361 -301q-170 0 -282 132q-105 125 -105 298t117 304q121 136 291 136q99 0 182 -24v416h-442q-16 0 -26 -44q-13 -60 -28 -82q-29 -44 -95 -44q-23 0 -67.5 13t-67.5 13q-36 0 -36 69q0 187 163 187h1193q162 0 162 -187zM772 455v245q-69 62 -143 62
q-38 0 -74 -17q-170 -79 -179 -312q-5 -145 52 -255q65 -123 172 -112q172 17 172 389zM999 1489q0 -40 -99 -47q-66 65 -306 250q-9 6 -71 18q-51 9 -51 33q0 40 62 49q10 1 94 11q11 4 22 4q65 0 207 -127.5t142 -190.5z" />
    <glyph glyph-name="uni2CE30300" unicode="&#x2ce3;&#x300;" horiz-adv-x="1241" 
d="M1231 797q0 -48 -28 -48q-19 0 -55 -9t-55 -9q-50 0 -74 31q-13 17 -23 57q-8 31 -21 31h-173v-393q86 -96 86 -263q0 -153 -97 -269q-80 -96 -247 -186q-115 -62 -173 -62q-21 0 -24 21l3 5q6 6 82 53q149 92 221 179q89 107 98 242q-96 -210 -291 -210q-130 0 -221 86
t-91 215q0 128 102 219q98 88 227 88q80 0 146 -16v291h-355q-13 0 -21 -31q-11 -41 -23 -57q-24 -31 -76 -31q-19 0 -55 9t-55 9q-28 0 -28 48q0 131 131 131h960q130 0 130 -131zM623 318v172q-55 44 -115 44q-31 0 -60 -12q-136 -56 -143 -219q-4 -95 38 -172
q51 -93 141 -85q139 12 139 272zM816 1167q0 -40 -100 -47q-60 60 -306 250q-4 3 -62 16l-9 2q-50 11 -50 33q0 40 62 49q24 4 93 11q12 4 22 4q65 0 207.5 -127.5t142.5 -190.5z" />
    <glyph glyph-name="uni2CE40300" unicode="&#x2ce4;&#x300;" horiz-adv-x="1034" 
d="M984 95q-1 -2 -3 -10q-17 -63 -163 -201q-78 -74 -223 -153q-161 -88 -247 -88q-29 0 -35 30l4 8q11 9 118 75q132 81 181 120q97 77 142 160q-100 74 -232 215q-125 135 -201 246v-281q0 -25 50.5 -74t50.5 -57q0 -33 -52 -65q-47 -29 -83 -29q-51 0 -93 25
q-49 28 -49 76v629q0 25 -49.5 74t-49.5 58q0 33 52 64q47 29 83 29q49 0 91 -25q49 -29 49 -75v-287q88 128 168 239q107 149 225 149q35 0 69 -16q42 -19 42 -50q0 -40 -41 -95q-42 -59 -80 -59q-15 0 -42 10.5t-42 10.5l-48 24l-152 -215q142 -160 203 -220
q126 -125 231 -186q126 -39 126 -56zM589 1167q0 -40 -100 -47q-60 60 -306 250q-4 3 -62 16l-9 2q-50 11 -50 33q0 40 62 49q24 4 93 11q12 4 22 4q65 0 207.5 -127.5t142.5 -190.5z" />
    <glyph glyph-name="uni2CEB0300" unicode="&#x2ceb;&#x300;" horiz-adv-x="1515" 
d="M1465 1049q0 -156 -93 -261q-97 -110 -251 -110q-145 0 -237 100t-92 246q0 157 96 257.5t252 100.5q147 0 236 -93t89 -240zM724 1049q0 -154 -93 -260q-97 -111 -249 -111q-145 0 -238.5 100t-93.5 246q0 157 96 257.5t252 100.5q147 0 236.5 -92.5t89.5 -240.5z
M1297 991q0 119 -39 205q-51 113 -147 113q-156 0 -156 -228q0 -122 41 -213q52 -116 152 -116q149 0 149 239zM558 991q0 116 -41 205q-52 113 -147 113q-154 0 -154 -228q0 -124 39 -213q51 -116 152 -116q151 0 151 239zM858 1489q0 -40 -99 -47q-66 65 -306 250
q-8 6 -71 18q-51 9 -51 33q0 40 62 49q10 1 94 11q11 4 22 4q65 0 207 -127.5t142 -190.5zM1450 393q0 44 -43 104q-47 66 -93 66q-7 0 -82 -63.5t-109 -63.5h-912q-65 0 -107 -57q-39 -53 -39 -120q0 -42 44 -103q48 -67 92 -67q8 0 82.5 62.5t108.5 62.5h912q65 0 108 59
q38 53 38 120z" />
    <glyph glyph-name="uni2CEC0300" unicode="&#x2cec;&#x300;" horiz-adv-x="1075" 
d="M1025 723q0 -107 -64 -180q-66 -76 -172 -76q-100 0 -164 71q-63 68 -63 169q0 107 67 177t173 70q102 0 162.5 -64.5t60.5 -166.5zM515 723q0 -104 -65 -178q-67 -78 -170 -78q-101 0 -165.5 69.5t-64.5 170.5q0 107 67 177t173 70q102 0 163.5 -64.5t61.5 -166.5z
M1017 264q0 -51 -24 -92q-29 -47 -77 -47h-628q-25 0 -76.5 -51t-56.5 -51q-31 0 -65 53q-30 47 -30 82q0 48 27 92q31 51 76 51h629q22 0 73 49t58 49q32 0 63 -50.5t31 -84.5zM910 684q0 81 -25 140q-34 79 -104 79q-106 0 -106 -158q0 -83 28 -147q35 -80 103 -80
q104 0 104 166zM400 684q0 80 -28 141q-36 78 -101 78q-106 0 -106 -158q0 -84 25 -144q34 -83 106 -83q104 0 104 166zM638 1167q0 -40 -100 -47q-60 60 -306 250q-4 3 -62 16l-9 2q-50 11 -50 33q0 40 62 49q24 4 93 11q12 4 22 4q65 0 207.5 -127.5t142.5 -190.5z" />
    <glyph glyph-name="uni2CED0300" unicode="&#x2ced;&#x300;" horiz-adv-x="1802" 
d="M1752 123q0 -47 -76 -93q-70 -42 -121 -42q-73 0 -133 35q-71 42 -71 110v96l-449 377l-424 -354q15 -19 76 -74q43 -39 43 -55q0 -46 -76 -93q-68 -42 -119 -42q-75 0 -135 35q-71 42 -71 110v911q0 36 -73 110t-73 83q0 45 78 92q71 43 119 43q72 0 132 -36
q71 -42 71 -109v-92l452 -381l420 354q-13 16 -74 74q-41 39 -41 55q0 45 76 92q70 43 119 43q71 0 133 -37q72 -43 72 -108v-914q0 -34 72.5 -108.5t72.5 -81.5zM1351 375v610l-363 -305zM816 680l-366 307v-614l4 2zM996 1489q0 -40 -99 -47q-66 65 -306 250q-8 6 -71 18
q-51 9 -51 33q0 40 62 49q10 1 94 11q11 4 22 4q65 0 207 -127.5t142 -190.5z" />
    <glyph glyph-name="uni2CEE0300" unicode="&#x2cee;&#x300;" horiz-adv-x="1274" 
d="M1224 86q0 -34 -52 -65q-47 -29 -84 -29q-51 0 -92 24q-49 28 -49 76v66l-309 260l-293 -244q9 -10 53 -51q29 -27 29 -37q0 -34 -51 -65q-46 -29 -82 -29q-53 0 -94 23q-49 28 -49 77v629q0 23 -50.5 74t-50.5 59q0 32 52 63q48 29 83 29q51 0 93 -24q49 -29 49 -76v-64
l311 -264l289 246q-10 14 -49 51q-29 27 -29 39q0 32 52 63q48 29 83 29q51 0 91 -24q48 -28 48 -76v-631q0 -24 50.5 -74.5t50.5 -54.5zM947 258v422l-250 -211zM579 469l-252 213l2 -424zM737 1167q0 -40 -100 -47q-60 60 -306 250q-4 3 -62 16l-9 2q-50 11 -50 33
q0 40 62 49q24 4 93 11q12 4 22 4q65 0 207.5 -127.5t142.5 -190.5z" />
    <glyph glyph-name="uni03E20301" unicode="&#x3e2;&#x301;" horiz-adv-x="1963" 
d="M1410 1743q0 -25 -50 -33l-6 -1q-55 -9 -65 -17q-247 -191 -306 -250q-100 7 -100 47q0 63 142.5 190.5t207.5 127.5q10 0 22 -4q42 -4 93 -10q62 -13 62 -50zM1913 565q0 -272 -153 -515q-129 -206 -331 -343q-223 -150 -447 -150q-39 0 -44 43l5 12q133 43 241 99
q260 134 344 302q-94 -41 -198 -41q-152 0 -233 17q-117 24 -216 99q-135 -116 -271 -116q-256 0 -416 224q-144 202 -144 468q0 291 146 493q164 227 445 227q41 0 41 -38q0 -59 -93 -59q-168 0 -248 -193q-52 -126 -52 -311q0 -256 75 -455q98 -262 291 -262
q217 0 217 532v447q0 36 -62 107.5t-62 83.5q0 45 63 92q59 44 106 44q68 0 120 -38q57 -42 57 -108v-929q0 -110 96 -176q80 -55 183 -55q166 0 240 182q54 135 54 350q0 250 -74 439q-53 137 -130 197q-35 27 -118 45q-40 9 -81 18q-15 13 -15 49q0 28 9 35q9 4 33 4
l68 -1q266 -4 418 -260q136 -228 136 -559z" />
    <glyph glyph-name="uni03E30301" unicode="&#x3e3;&#x301;" horiz-adv-x="1577" 
d="M1216 1421q0 -24 -51 -33q-63 -12 -71 -18q-240 -185 -306 -250q-99 7 -99 47q0 63 142 190.5t207 127.5q11 0 22 -4l94 -11q62 -7 62 -49zM1527 390q0 -337 -268 -591q-76 -72 -223 -152q-163 -89 -247 -89q-29 0 -35 30l4 8q7 7 118 75q218 134 346 338
q-74 -28 -157 -28q-130 0 -185 10q-88 16 -171 69q-107 -79 -214 -79q-191 0 -321 144q-124 139 -124 333q0 213 127 352q131 144 342 144q32 0 32 -26q0 -41 -73 -41q-126 0 -188 -117q-50 -94 -50 -230q0 -173 60 -313q78 -182 229 -182q173 0 173 367v309q0 27 -49.5 74
t-49.5 58q0 31 53 63q48 30 82 30q49 0 91 -25q49 -29 49 -75v-641q0 -75 76 -121q65 -39 145 -39q234 0 234 367q0 172 -59 303q-77 172 -226 172q-47 0 -47 41q0 28 33 27l55 -1q207 -4 330 -186q108 -160 108 -378z" />
    <glyph glyph-name="uni03E40301" unicode="&#x3e4;&#x301;" horiz-adv-x="1298" 
d="M1069 1743q0 -24 -51 -33q-61 -11 -71 -18q-150 -111 -326 -250q-79 6 -79 47q0 63 142 190.5t207 127.5q11 0 22 -4l94 -11q62 -7 62 -49zM1248 -292q0 -46 -66 -93q-60 -43 -104 -43q-67 0 -120 38q-59 43 -59 108v643q-133 -110 -317 -110q-242 0 -392 184
q-140 171 -140 420q0 157 72 295q76 145 206 222q26 15 50 15q28 0 51 -15q-61 -82 -101 -246q-37 -147 -37 -271q0 -179 89 -337q100 -178 247 -178q113 0 194 90q78 87 78 201v414q0 38 -62.5 108t-62.5 83q0 44 67 92q61 44 102 44q68 0 120 -38q58 -43 58 -108v-1327
q0 -38 63.5 -108t63.5 -83z" />
    <glyph glyph-name="uni03E50301" unicode="&#x3e5;&#x301;" horiz-adv-x="1050" 
d="M934 1421q0 -21 -50 -33l-8 -2q-20 -5 -63 -16q-245 -190 -306 -250q-100 7 -100 47q0 62 143 190t207 128q10 0 22 -4q43 -4 93 -10q62 -13 62 -50zM1000 -201q0 -32 -52 -65q-48 -29 -83 -29q-50 0 -92 25q-50 29 -50 75v444q-106 -76 -251 -76q-182 0 -302 117.5
t-120 298.5q0 112 60.5 209t160.5 148q20 10 39 10q22 0 41 -10q-50 -57 -81 -169q-29 -101 -29 -188q0 -121 71 -231q80 -124 195 -124q85 0 150.5 58.5t65.5 142.5v286q0 26 -49.5 74.5t-49.5 56.5q0 32 52 65q48 29 83 29q49 0 91 -25q49 -29 49 -75v-916
q0 -26 50.5 -74.5t50.5 -56.5z" />
    <glyph glyph-name="uni03E60301" unicode="&#x3e6;&#x301;" horiz-adv-x="1299" 
d="M1152 1743q0 -24 -51 -33q-62 -12 -71 -18q-237 -182 -306 -250q-99 7 -99 47q0 63 142.5 190.5t206.5 127.5q11 0 22 -4l94 -11q62 -7 62 -49zM1249 278q0 -129 -38.5 -236.5t-123.5 -204.5q-170 -190 -388 -190q-145 0 -329 80q-7 -1 -14.5 -18.5t-15 -39t-14 -42
t-11.5 -27.5q-30 -43 -93 -43q-10 0 -29 4t-39.5 9.5t-39.5 9.5t-29 4q-35 0 -35 68q0 88 44.5 137.5t119.5 49.5q156 -69 297 -69q106 0 196.5 39t157 109t104 166t37.5 210q0 112 -24.5 212t-69 175t-106.5 119t-136 44q-53 0 -102.5 -23.5t-87.5 -63t-60.5 -92.5
t-22.5 -112v-239q0 -40 63 -109q64 -70 64 -82q0 -22 -18.5 -46t-45 -44t-55.5 -33t-51 -13q-34 0 -66 11t-57 30.5t-40.5 46t-15.5 58.5v912q0 36 -63 108q-62 71 -62 83q0 21 18.5 45t44.5 44.5t55.5 33.5t51.5 13q34 0 66 -11.5t57 -31t39.5 -46.5t14.5 -57v-403
q133 109 316 109q114 0 211 -49t170.5 -135t114 -202.5t40.5 -251.5v-16z" />
    <glyph glyph-name="uni03E70301" unicode="&#x3e7;&#x301;" horiz-adv-x="1061" 
d="M1004 1421q0 -24 -51 -33q-63 -12 -71 -18q-237 -182 -306 -250q-99 7 -99 47q0 63 142 190.5t207 127.5q11 0 22 -4l94 -11q62 -7 62 -49zM1011 192q0 -178 -129 -313.5t-318 -135.5q-117 0 -260 55q-14 0 -21 -30q-10 -41 -22 -57q-23 -30 -75 -30q-18 0 -54 9t-54 9
q-28 0 -28 47q0 129 130 129q123 -47 235 -47q172 0 288 102.5t116 272.5q0 139 -63 248q-76 131 -215 131q-85 0 -150 -58.5t-65 -142.5l-1 2v-167q0 -25 50.5 -74t50.5 -57q0 -32 -52 -65q-48 -29 -83 -29q-50 0 -92 25q-50 29 -50 76v629q0 25 -49.5 74t-49.5 58
q0 31 53 63q48 30 82 30q50 0 91 -25q49 -29 49 -75l1 -279q105 76 250 76q198 0 318 -133q117 -129 117 -318z" />
    <glyph glyph-name="uni03E80301" unicode="&#x3e8;&#x301;" 
d="M933 1743q0 -24 -51 -33q-62 -12 -71 -18q-237 -182 -306 -250q-99 7 -99 47q0 63 142 190.5t207 127.5q11 0 22 -4l94 -11q62 -7 62 -49zM1049 -172q-183 -271 -476 -271q-120 0 -198 30q-85 32 -165 114q-160 165 -160 397q0 230 174 375q39 32 323 189q174 96 174 208
q0 120 -72 265q-82 164 -177 164q-72 0 -119 -64q-42 -59 -42 -133q0 -79 57 -152q8 -11 111 -115q-10 -56 -46 -56q-137 0 -229 55q-117 70 -117 213q0 167 146 260q119 76 277 76q210 0 334 -139q119 -134 119 -346q0 -153 -171 -240q-275 -140 -318 -180
q-172 -158 -172 -482q0 -137 82 -239q87 -110 221 -110q205 0 359 187z" />
    <glyph glyph-name="uni03E90301" unicode="&#x3e9;&#x301;" horiz-adv-x="894" 
d="M844 1421q0 -24 -51 -33q-63 -12 -71 -18q-237 -182 -306 -250q-99 7 -99 47q0 63 142 190.5t207 127.5q11 0 22 -4l94 -11q62 -7 62 -49zM842 -139q-145 -187 -377 -187q-179 0 -288 99q-127 115 -127 274q0 89 35 153q21 39 97 124q46 52 156 92q144 52 166 65
q78 44 78 119q0 81 -58 183q-64 113 -139 113q-55 0 -91.5 -40.5t-36.5 -95.5q0 -56 45 -105q44 -40 88 -79q-5 -39 -36 -39q-109 0 -182 38q-93 48 -93 147q0 115 115 179q96 53 221 53q158 0 256 -88q103 -91 103 -247q0 -105 -136 -165q-218 -97 -252 -124
q-136 -109 -136 -333q0 -102 68 -180q71 -81 172 -81q162 0 285 129z" />
    <glyph glyph-name="uni03EA0301" unicode="&#x3ea;&#x301;" horiz-adv-x="1718" 
d="M1240 1743q0 -21 -50 -33l-8 -2q-20 -5 -63 -16q-245 -190 -306 -250q-100 7 -100 47q0 63 142.5 190.5t207.5 127.5q10 0 22 -4q43 -4 93 -10q62 -13 62 -50zM1708 -80q0 -68 -35 -68q-23 0 -67.5 -13.5t-67.5 -13.5q-65 0 -94 44q-16 23 -28 82q-9 44 -26 44h-1218
q-162 0 -162 187q0 68 35 68q23 0 67.5 13.5t68.5 13.5q65 0 94 -44q15 -23 28 -82q10 -45 26 -44l431 711q-166 279 -176 279q-12 0 -47 -15t-54 -15q-57 0 -95 76q-24 59 -53 131q-6 13 -6 18q0 36 52 67q46 27 82 27q47 0 112 -24q73 -27 94 -61l191 -317l191 317
q52 85 127 85q36 0 81 -27q53 -31 53 -67q0 -6 -6 -18q-12 -28 -53 -131q-38 -76 -95 -76q-19 0 -54 15t-47 15q-9 0 -139 -210l357 -590q75 -124 106 -149q51 -41 166 -41q161 0 161 -187zM1176 107l-359 615q-113 -186 -369 -615h728z" />
    <glyph glyph-name="uni03EB0301" unicode="&#x3eb;&#x301;" horiz-adv-x="1367" 
d="M1078 1421q0 -24 -51 -33q-63 -12 -71 -18q-240 -185 -306 -250q-99 7 -99 47q0 63 142 190.5t207 127.5q11 0 22 -4l94 -11q62 -7 62 -49zM1357 -55q0 -47 -28 -47q-18 0 -54 -9.5t-54 -9.5q-51 0 -75 31q-12 16 -22 56q-7 30 -21 30h-965q-128 0 -128 130q0 46 28 46
q18 0 54 9.5t54 9.5q50 0 74 -31q12 -15 22 -56q8 -31 21 -30l341 490q-131 193 -139 193q-11 0 -38.5 -10.5t-41.5 -10.5q-45 0 -76 52l-42 90q-4 9 -4 13q0 25 42 46q36 19 64 19q38 0 88 -16q58 -18 75 -43l152 -218l152 218q41 59 100 59q28 0 64 -19q42 -21 42 -46
q0 -5 -5 -13q-20 -45 -42 -90q-26 -52 -75 -52q-14 0 -41.5 10.5t-38.5 10.5q-7 0 -110 -145l282 -407q59 -85 85 -103q40 -28 131 -28q129 0 129 -129zM934 74l-284 424q-90 -128 -293 -424h577z" />
    <glyph glyph-name="uni03EC0301" unicode="&#x3ec;&#x301;" horiz-adv-x="1469" 
d="M1031 1743q0 -26 -50 -33l-7 -1q-52 -7 -64 -17q-249 -193 -306 -250q-100 7 -100 47q0 63 142 190.5t208 127.5q10 0 22 -4q42 -4 93 -10q62 -13 62 -50zM1419 1045q0 -134 -112 -134q-99 0 -124 101q-42 168 -57 190q-67 101 -267 101q-144 0 -267 -54
q-140 -60 -220 -178q311 -5 537 -141q285 -172 285 -493q0 -232 -200 -360q-164 -105 -383 -105q-251 0 -409 204q-152 196 -152 488q0 345 280 551q243 177 560 177q203 0 338 -62q191 -88 191 -285zM949 521q0 218 -219 352q-184 112 -391 110l-13 -1q-35 -90 -35 -199
q0 -261 72 -456q97 -262 293 -262q141 0 223 153q70 129 70 303z" />
    <glyph glyph-name="uni03ED0301" unicode="&#x3ed;&#x301;" horiz-adv-x="1185" 
d="M948 1421q0 -24 -51 -33q-63 -12 -71 -18q-240 -185 -306 -250q-99 7 -99 47q0 63 142 190.5t207 127.5q11 0 22 -4l94 -11q62 -7 62 -49zM1135 721q0 -93 -89 -93q-78 0 -98 70q-34 116 -45 131q-53 70 -212 70q-261 0 -385 -160q246 -4 425 -97q226 -119 226 -341
q0 -160 -159 -248q-129 -72 -303 -72q-199 0 -325 140q-120 135 -120 337q0 238 222 380q192 122 444 122q161 0 268 -42q151 -61 151 -197zM763 359q0 151 -174 243q-146 77 -310 76h-10q-28 -63 -28 -138q0 -180 57 -315q77 -180 232 -180q113 0 178 105q55 90 55 209z
" />
    <glyph glyph-name="uni03EE0301" unicode="&#x3ee;&#x301;" horiz-adv-x="1449" 
d="M1425 1743q0 -25 -50 -33l-6 -1q-55 -9 -65 -17q-247 -191 -306 -250q-100 7 -100 47q0 63 142.5 190.5t207.5 127.5q10 0 22 -4q43 -4 93 -10q62 -13 62 -50zM1439 911q0 -68 -35 -68q-24 0 -68.5 -13.5t-67.5 -13.5q-66 0 -95 44q-15 23 -28 82q-9 44 -26 44h-285
v-1102q0 -37 63.5 -108.5t63.5 -82.5q0 -46 -66 -93q-60 -43 -104 -43q-63 0 -116 36q-63 42 -63 110v1283h-283q-16 0 -26 -44q-12 -58 -28 -82q-28 -44 -94 -44q-24 0 -68.5 13.5t-67.5 13.5q-35 0 -35 68q0 187 162 187h440v215q0 37 -62 108.5t-62 82.5q0 46 66 93
q60 43 103 43q68 0 120 -38q57 -43 57 -108v-396h443q162 0 162 -187z" />
    <glyph glyph-name="uni03EF0301" unicode="&#x3ef;&#x301;" horiz-adv-x="1153" 
d="M1003 1743q0 -24 -51 -33q-63 -12 -71 -18q-240 -185 -306 -250q-99 7 -99 47q0 63 142 190.5t207 127.5q11 0 22 -4l94 -11q62 -7 62 -49zM1143 628q0 -46 -28 -46q-18 0 -54 -9.5t-54 -9.5q-52 0 -75 30q-12 16 -22 57q-7 30 -21 30h-226v-750q0 -25 50.5 -74.5
t50.5 -56.5q0 -32 -52 -64q-47 -30 -82 -30q-49 0 -92 25q-51 29 -51 75v875h-224q-13 0 -21 -30q-11 -43 -22 -57q-23 -30 -74 -30q-18 0 -54 9.5t-54 9.5q-28 0 -28 46q0 129 128 129h349v283q0 25 -49.5 74.5t-49.5 57.5q0 31 53 63q48 30 82 30q49 0 91 -25
q49 -29 49 -75v-408h351q129 0 129 -129z" />
    <glyph glyph-name="uni2C800301" unicode="&#x2c80;&#x301;" horiz-adv-x="1344" 
d="M1037 1743q0 -22 -50 -33l-9 -2q-34 -8 -62 -16q-250 -194 -306 -250q-100 7 -100 47q0 63 142.5 190.5t207.5 127.5q10 0 22 -4q77 -7 93 -11q62 -14 62 -49zM1334 123q0 -45 -61.5 -90.5t-108.5 -45.5q-75 0 -159 113q-23 32 -115 188q-352 -288 -489 -288
q-142 0 -245 95q-106 98 -106 240q0 153 193 308q135 108 315 186q-116 156 -197 216q-32 23 -126 89.5t-94 101.5q0 45 64 92q59 44 106 44q51 0 101 -50q21 -21 76 -96q170 -228 421 -586q12 -18 97 -168q59 -104 108 -158q9 -10 122 -97q98 -76 98 -94zM829 393
q-64 115 -203 338l-4 1q-118 -64 -212 -148q-133 -119 -133 -216q0 -86 52 -144q54 -61 139 -61q108 0 361 230z" />
    <glyph glyph-name="uni2C810301" unicode="&#x2c81;&#x301;" horiz-adv-x="1078" 
d="M935 1421q0 -24 -51 -33q-63 -12 -71 -18q-241 -185 -306 -250q-99 7 -99 47q0 63 142 190.5t207 127.5q11 0 22 -4l94 -11q62 -7 62 -49zM1068 85q0 -32 -52 -64q-47 -30 -82 -30q-59 0 -126 78q-21 24 -92 130q-279 -199 -387 -199q-109 0 -190 59q-89 66 -89 172
q0 105 153 212q107 75 250 129q-96 112 -156 149l-99 61q-75 46 -75 71q0 33 52 64q47 29 82 29q56 0 141 -100q102 -120 333 -405q48 -80 163 -225q6 -5 96 -66q78 -53 78 -65zM668 271q-51 79 -161 233l-3 1q-91 -43 -168 -103q-106 -83 -106 -148q0 -62 44 -101.5
t107 -39.5q87 0 287 158z" />
    <glyph glyph-name="uni2C820301" unicode="&#x2c82;&#x301;" horiz-adv-x="1151" 
d="M998 1743q0 -22 -50 -33l-9 -2q-27 -6 -62 -16q-250 -194 -306 -250q-100 7 -100 47q0 65 142 191.5t208 126.5q10 0 22 -4q75 -7 93 -11q62 -14 62 -49zM1101 424q0 -200 -213 -323q-176 -101 -370 -101q-51 0 -101 6q-36 -19 -63 -19q-67 0 -120 38q-59 43 -59 108v912
q0 36 -62.5 109t-62.5 82q0 44 67 92q62 44 103 44q71 0 127 -46q94 20 228 20q191 0 294 -32q183 -57 183 -216q0 -122 -66.5 -220.5t-178.5 -146.5q294 -88 294 -307zM807 1037q0 137 -106 187q-66 31 -205 31q-53 0 -99 -24v-476l187 14q223 17 223 268zM856 363
q0 147 -97 231q-92 80 -241 80q-44 0 -121 -29v-536q72 -21 134 -21q97 0 205 81q120 89 120 194z" />
    <glyph glyph-name="uni2C830301" unicode="&#x2c83;&#x301;" horiz-adv-x="934" 
d="M894 1421q0 -24 -51 -33q-63 -12 -71 -18q-240 -184 -306 -250q-99 7 -99 47q0 65 141 191.5t208 126.5q11 0 22 -4l94 -11q62 -7 62 -49zM884 292q0 -143 -171 -224q-141 -67 -314 -67q-30 0 -57 3q-29 -13 -50 -13q-51 0 -93 25q-50 29 -50 76v629q0 23 -49.5 75
t-49.5 57q0 31 53 63q48 30 82 30q57 0 101 -31q75 13 180 13q117 0 213 -32q135 -45 135 -138v-31q0 -91 -38 -140.5t-126 -82.5q234 -60 234 -212zM619 715q0 151 -215 151q-42 0 -79 -17v-329q162 9 203 26q91 38 91 169zM689 250q0 108 -83 165q-72 50 -185 50
q-35 0 -96 -20v-370q58 -14 107 -14q77 0 163 56q94 61 94 133z" />
    <glyph glyph-name="uni2C840301" unicode="&#x2c84;&#x301;" horiz-adv-x="1150" 
d="M1016 1743q0 -22 -50 -33l-9 -2q-32 -7 -62 -16q-246 -190 -306 -250q-100 7 -100 47q0 63 142 190.5t208 127.5q10 0 22 -4q42 -4 93 -10q62 -13 62 -50zM1100 1158q0 -68 -35 -68q-23 0 -67.5 -13t-67.5 -13q-66 0 -95 44q-14 21 -27 82q-10 44 -27 44h-384v-920
q0 -34 63.5 -109t63.5 -82q0 -44 -64 -91q-60 -45 -106 -45q-67 0 -120 38q-59 43 -59 108v912q0 35 -62.5 109t-62.5 82q0 42 65 78q58 32 105 32h719q161 0 161 -188z" />
    <glyph glyph-name="uni2C850301" unicode="&#x2c85;&#x301;" horiz-adv-x="953" 
d="M903 1421q0 -26 -50 -33l-7 -1q-52 -7 -64 -17q-249 -193 -306 -250q-100 7 -100 47q0 63 142.5 190.5t207.5 127.5q10 0 22 -4q43 -4 93 -10q62 -13 62 -50zM883 799q0 -47 -28 -47q-18 0 -54 -9t-54 -9q-51 0 -74 30q-12 15 -22 56q-8 31 -21 31h-305v-635
q0 -24 50.5 -75t50.5 -56q0 -32 -52 -64q-47 -30 -82 -30q-51 0 -93 25q-50 29 -50 76v629q0 23 -49.5 74.5t-49.5 57.5q0 30 54 54q47 21 81 21h570q128 0 128 -129z" />
    <glyph glyph-name="uni2C860301" unicode="&#x2c86;&#x301;" horiz-adv-x="1719" 
d="M1192 1743q0 -22 -50 -33l-9 -2q-31 -7 -62 -16q-246 -190 -306 -250q-100 7 -100 47q0 63 142.5 190.5t207.5 127.5q10 0 22 -4q43 -4 93 -10q62 -13 62 -50zM1709 -80q0 -68 -35 -68q-23 0 -68 -13.5t-68 -13.5q-66 0 -94 44q-15 23 -28 82q-10 44 -26 44h-1218
q-162 0 -162 187q0 68 36 68q23 0 67.5 13.5t67.5 13.5q65 0 94 -44q16 -23 28 -82q10 -45 26 -44q89 138 219 407q153 318 153 413q0 5 -47.5 92.5t-47.5 134.5q0 49 45 118q49 74 95 74h13q29 -7 61 -102q4 -13 41 -129q135 -327 182 -426q104 -220 232 -392
q101 -136 111 -145q52 -45 161 -45q162 0 162 -187zM1176 107q-6 13 -14 26q-81 122 -196 338q-143 271 -187 345q-107 -240 -340 -709h737z" />
    <glyph glyph-name="uni2C870301" unicode="&#x2c87;&#x301;" horiz-adv-x="1367" 
d="M1047 1421q0 -24 -51 -33q-63 -12 -71 -18q-240 -185 -306 -250q-99 7 -99 47q0 63 142 190.5t207 127.5q11 0 22 -4l94 -11q62 -7 62 -49zM1357 -55q0 -47 -28 -47q-18 0 -54 -9.5t-54 -9.5q-51 0 -75 31q-12 16 -22 56q-7 30 -21 30h-965q-128 0 -128 130q0 46 28 46
q18 0 54 9.5t54 9.5q50 0 74 -31q12 -15 22 -56q8 -31 21 -30q73 99 173 280q121 219 121 286q0 1 -37.5 62t-37.5 94q0 36 38 84.5t73 48.5q8 0 10 -1q24 -5 49 -70q7 -19 32 -89q110 -231 144 -294q83 -153 184 -270q82 -94 89 -100q39 -31 127 -31q129 0 129 -129z
M934 74q-45 64 -167 251l-147 238q-86 -166 -270 -489h584z" />
    <glyph glyph-name="uni2C880301" unicode="&#x2c88;&#x301;" horiz-adv-x="1087" 
d="M1086 1743q0 -24 -51 -33q-62 -12 -71 -18q-240 -185 -306 -250q-99 7 -99 47q0 63 142 190.5t207 127.5q11 0 22 -4l94 -11q62 -7 62 -49zM1037 301q0 -155 -152 -250q-126 -79 -274 -79q-263 0 -421 221q-140 197 -140 471q0 292 146 494q164 226 446 226
q142 0 260 -85q135 -98 135 -253q0 -135 -112 -135q-95 0 -123 97q-6 21 -48 181q-43 98 -165 98q-151 0 -229 -154q-63 -123 -70 -314h383q161 0 161 -188q0 -68 -35 -68q-23 0 -67.5 -13t-68.5 -13q-65 0 -94 44q-14 21 -27 82q-10 44 -27 44h-223q13 -243 83 -414
q92 -226 254 -226q100 0 134 95q16 73 42 178q24 96 120 96q112 0 112 -135z" />
    <glyph glyph-name="uni2C890301" unicode="&#x2c89;&#x301;" horiz-adv-x="883" 
d="M949 1421q0 -24 -51 -33q-63 -12 -71 -18q-240 -185 -306 -250q-99 7 -99 47q0 63 142 190.5t207 127.5q11 0 22 -4l94 -11q62 -7 62 -49zM833 208q0 -107 -121 -173q-99 -54 -217 -54q-199 0 -324 140q-121 136 -121 337q0 214 127 353q130 143 342 143q114 0 207 -58
q107 -67 107 -175q0 -93 -89 -93q-76 0 -98 68q-6 17 -38 124q-34 67 -130 67q-120 0 -182 -106q-50 -85 -55 -216h303q128 0 128 -130q0 -46 -28 -46q-18 0 -54 -9.5t-54 -9.5q-51 0 -74 30q-11 14 -22 57q-8 30 -21 30h-177q11 -167 66 -285q73 -156 202 -156q79 0 106 66
q17 61 33 123q24 66 95 66q89 0 89 -93z" />
    <glyph glyph-name="uni2C8A0301" unicode="&#x2c8a;&#x301;" horiz-adv-x="1272" 
d="M964 1743q0 -24 -51 -33q-62 -12 -71 -18q-240 -185 -306 -250q-99 7 -99 47q0 63 142 190.5t207 127.5q11 0 22 -4l94 -11q62 -7 62 -49zM1222 1297q0 -139 -79 -259q-89 -134 -222 -134q-89 0 -336.5 141t-250.5 141q-66 0 -111 -68q-39 -60 -39 -130q0 -101 83 -215
q47 -63 175 -191q115 -114 150 -174q161 -276 161 -454q0 -78 -57 -207q-20 -47 -46 -71q-40 -38 -114 -68t-128 -30q-46 0 -46 48q0 51 105 67q113 18 126 52q26 67 26 147q0 118 -87 187q-216 171 -314 289q-168 201 -168 401q0 259 116 423q133 187 381 187q76 0 148 -53
l133 -99q90 -53 204 -53q46 0 60 50q5 17 22 94q18 51 69 51q39 0 39 -72z" />
    <glyph glyph-name="uni2C8B0301" unicode="&#x2c8b;&#x301;" horiz-adv-x="1029" 
d="M874 1421q0 -24 -51 -33q-63 -12 -71 -18q-240 -185 -306 -250q-99 7 -99 47q0 63 142 190.5t207 127.5q11 0 22 -4l94 -11q62 -7 62 -49zM979 894q0 -103 -67 -184q-71 -86 -172 -86q-72 0 -266 97t-198 97q-50 0 -85 -42.5t-35 -94.5q0 -70 67 -148q37 -43 138 -131
q92 -80 119 -120q128 -190 128 -313q0 -56 -45 -144q-16 -31 -37 -48q-85 -68 -192 -68q-36 0 -36 33q0 34 83 46q89 12 100 36q21 46 21 102q0 80 -69 128q-175 121 -250 199q-133 138 -133 278q0 189 101 302q106 118 293 118q37 0 169 -71t216 -71q27 0 55 67.5t64 67.5
q31 0 31 -50z" />
    <glyph glyph-name="uni2C8C0301" unicode="&#x2c8c;&#x301;" horiz-adv-x="1288" 
d="M983 1743q0 -24 -51 -33q-62 -12 -71 -18q-240 -185 -306 -250q-99 7 -99 47q0 63 142 190.5t207 127.5q11 0 22 -4l94 -11q62 -7 62 -49zM1278 -75q0 -69 -35 -69q-24 0 -68.5 -13t-68.5 -13q-64 0 -93 40q-15 20 -28 77q-10 45 -28 53q-133 58 -415 58q-198 0 -532 -58
l777 1243l-180 -19q-46 -5 -171 -27q-107 -19 -171 -19q-110 0 -163 33q-70 44 -70 159q0 68 35 68q23 0 68 13t68 13q76 0 98 -47l26 -87q22 -48 98 -48q53 0 141 22q106 27 140 31l408 54l-783 -1251q193 27 313 27t470 -53q88 -13 126 -55.5t38 -131.5z" />
    <glyph glyph-name="uni2C8D0301" unicode="&#x2c8d;&#x301;" horiz-adv-x="1025" 
d="M879 1421q0 -24 -51 -33q-63 -12 -71 -18q-240 -185 -306 -250q-99 7 -99 47q0 63 142 190.5t207 127.5q11 0 22 -4l94 -11q62 -7 62 -49zM1015 -52q0 -47 -28 -47q-18 0 -54 -9t-54 -9q-51 0 -74 27q-12 14 -22 53q-8 32 -22 37q-108 40 -329 40q-157 0 -422 -40
l616 857l-143 -13q-32 -3 -135 -19q-77 -12 -136 -12q-185 0 -185 132q0 47 28 47q18 0 54 9t54 9q57 0 88 -63t88 -63q44 0 112 15q89 19 111 22l323 37l-620 -863q153 19 248 19q90 0 372 -37q130 -17 130 -129z" />
    <glyph glyph-name="uni2C8E0301" unicode="&#x2c8e;&#x301;" horiz-adv-x="1360" 
d="M1095 1743q0 -22 -50 -33l-9 -2q-35 -8 -62 -16q-250 -194 -306 -250q-100 7 -100 47q0 63 142.5 190.5t207.5 127.5q10 0 22 -4q77 -7 93 -11q62 -14 62 -49zM1310 123q0 -44 -67 -92q-61 -44 -103 -44q-67 0 -121 39q-59 42 -59 107v486h-563v-305q0 -34 63.5 -109
t63.5 -82q0 -44 -64 -91q-60 -45 -106 -45q-67 0 -120 38q-59 43 -59 108v912q0 35 -62.5 109t-62.5 82q0 46 66 93q60 43 104 43q67 0 119 -38q58 -43 58 -108v-495h563v314q0 35 -62 109t-62 82q0 46 66 93q60 43 103 43q68 0 120 -38q58 -43 58 -108v-912
q0 -34 63.5 -109t63.5 -82z" />
    <glyph glyph-name="uni2C8F0301" unicode="&#x2c8f;&#x301;" 
d="M973 1421q0 -22 -50 -33l-9 -2q-31 -7 -62 -16q-246 -190 -306 -250q-100 7 -100 47q0 63 142.5 190.5t207.5 127.5q10 0 22 -4q43 -4 93 -10q62 -13 62 -50zM1049 85q0 -32 -52 -65q-48 -29 -83 -29q-51 0 -93 25q-49 28 -49 76v335h-447v-211q0 -24 50.5 -75t50.5 -56
q0 -32 -52 -64q-47 -30 -82 -30q-51 0 -93 25q-50 29 -50 76v629q0 23 -49.5 74.5t-49.5 57.5q0 31 53 63q48 30 82 30q49 0 91 -25q49 -29 49 -75v-342h447v217q0 23 -49.5 74.5t-49.5 57.5q0 31 53 63q48 30 82 30q49 0 91 -25q49 -29 49 -75v-630q0 -24 50.5 -75
t50.5 -56z" />
    <glyph glyph-name="uni2C900301" unicode="&#x2c90;&#x301;" horiz-adv-x="1243" 
d="M1071 1743q0 -24 -51 -33q-63 -12 -71 -18q-242 -185 -306 -250q-99 7 -99 47q0 63 141.5 190.5t207.5 127.5q11 0 22 -4l94 -11q62 -7 62 -49zM1193 717q0 -302 -157 -517q-167 -228 -426 -228q-264 0 -421 221q-139 196 -139 471q0 293 146 494q163 226 445 226
q267 0 417 -206q135 -184 135 -461zM940 750q-24 220 -99 360q-95 177 -252 177q-160 0 -238 -170q-62 -134 -62 -334v-33h651zM949 598q0 20 -1 40h-652q23 -234 98 -382q96 -190 261 -190q294 0 294 532z" />
    <glyph glyph-name="uni2C910301" unicode="&#x2c91;&#x301;" horiz-adv-x="1007" 
d="M943 1421q0 -24 -51 -33q-63 -12 -71 -18q-240 -185 -306 -250q-99 7 -99 47q0 63 142 190.5t207 127.5q11 0 22 -4l94 -11q62 -7 62 -49zM957 494q0 -211 -124 -358q-130 -155 -338 -155q-199 0 -324 140q-121 136 -121 337q0 214 127 353q130 143 342 143
q200 0 321 -131q117 -127 117 -329zM756 517q-18 147 -75 243q-75 127 -203 127q-127 0 -189 -117q-49 -92 -49 -230v-23h516zM763 412q0 14 -1 28h-516q17 -159 77 -263q76 -132 206 -132q234 0 234 367z" />
    <glyph glyph-name="uni2C920301" unicode="&#x2c92;&#x301;" horiz-adv-x="574" 
d="M713 1743q0 -22 -50 -33l-9 -2q-32 -7 -62 -16q-246 -190 -306 -250q-100 7 -100 47q0 63 142 190.5t208 127.5q10 0 22 -4q42 -4 93 -10q62 -13 62 -50zM524 123q0 -44 -64 -91q-60 -45 -106 -45q-67 0 -120 38q-59 43 -59 108v912q0 35 -62.5 109t-62.5 82q0 46 66 93
q60 43 104 43q67 0 119 -38q58 -43 58 -108v-912q0 -34 63.5 -109t63.5 -82z" />
    <glyph glyph-name="uni2C930301" unicode="&#x2c93;&#x301;" horiz-adv-x="476" 
d="M661 1421q0 -22 -50 -33l-9 -2q-34 -8 -62 -16q-250 -194 -306 -250q-101 7 -101 47q0 63 143 190.5t208 127.5q10 0 22 -4q77 -7 93 -11q62 -14 62 -49zM426 85q0 -32 -52 -64q-47 -30 -82 -30q-51 0 -93 25q-50 29 -50 76v629q0 23 -49.5 74.5t-49.5 57.5q0 31 53 63
q48 30 82 30q49 0 91 -25q49 -29 49 -75v-630q0 -24 50.5 -75t50.5 -56z" />
    <glyph glyph-name="uni2C940301" unicode="&#x2c94;&#x301;" horiz-adv-x="1274" 
d="M954 1743q0 -22 -50 -33l-9 -2q-34 -8 -62 -16q-250 -194 -306 -250q-100 7 -100 47q0 63 142.5 190.5t207.5 127.5q10 0 22 -4q77 -7 93 -11q62 -14 62 -49zM1224 123q0 -45 -61.5 -90.5t-108.5 -45.5q-82 0 -345 315q-222 267 -313 419v-407q0 -36 63.5 -107.5
t63.5 -83.5q0 -45 -61.5 -90.5t-107.5 -45.5q-68 0 -121 38q-59 43 -59 108v912q0 36 -62 107t-62 84q0 46 66 93q60 43 104 43q63 0 115 -36q61 -42 61 -110v-416q45 57 146 234q92 160 153 227q93 102 197 102q42 0 86 -24q54 -29 54 -72q0 -55 -49 -136q-53 -87 -104 -87
q-19 0 -53.5 15t-51.5 16l-61 35l-191 -312q103 -133 203 -249q228 -264 344 -340l89 -39q66 -30 66 -57z" />
    <glyph glyph-name="uni2C950301" unicode="&#x2c95;&#x301;" horiz-adv-x="1031" 
d="M873 1421q0 -22 -50 -33l-9 -2q-31 -7 -62 -16q-246 -190 -306 -250q-100 7 -100 47q0 63 142.5 190.5t207.5 127.5q10 0 22 -4q43 -4 93 -10q62 -13 62 -50zM981 85q0 -32 -52 -64q-47 -30 -82 -30q-66 0 -274 217q-173 181 -248 289v-281q0 -25 50.5 -74t50.5 -57
q0 -33 -52 -65q-47 -29 -83 -29q-51 0 -93 25q-49 28 -49 76v629q0 25 -49.5 74t-49.5 58q0 33 52 64q47 29 83 29q49 0 91 -25q49 -29 49 -75v-287q38 42 115 161q70 109 121 157q74 70 157 70q33 0 68 -16q43 -20 43 -50q0 -40 -41 -95q-42 -59 -80 -59q-15 0 -42 10.5
t-42 10.5l-48 24l-152 -215q293 -327 434 -406q123 -46 123 -66z" />
    <glyph glyph-name="uni2C960301" unicode="&#x2c96;&#x301;" horiz-adv-x="1257" 
d="M993 1743q0 -22 -50 -33l-9 -2q-31 -7 -62 -16q-246 -190 -306 -250q-100 7 -100 47q0 63 142.5 190.5t207.5 127.5q10 0 22 -4q42 -4 93 -10q62 -13 62 -50zM1247 123q0 -20 -18.5 -44t-45 -44.5t-55.5 -34t-51 -13.5q-135 0 -348 464l-158 351l-304 -669
q-13 -29 -35 -55.5t-48.5 -46.5t-55 -32t-53.5 -12q-12 0 -23.5 8t-20.5 20.5t-15 29t-6 33.5q0 50 74 118q96 89 110 118l297 653q-137 264 -267 379l-101 89q-68 66 -68 102q0 21 17.5 44.5t43.5 44t55.5 33.5t52.5 13q99 0 281 -302q49 -81 128.5 -231t191.5 -373
q94 -186 157 -298.5t95 -153.5l96 -96q37 -38 55 -62t19 -33z" />
    <glyph glyph-name="uni2C970301" unicode="&#x2c97;&#x301;" horiz-adv-x="1001" 
d="M882 1421q0 -21 -50 -33l-8 -2q-20 -5 -63 -16q-245 -190 -306 -250q-100 7 -100 47q0 63 142.5 190.5t207.5 127.5q10 0 22 -4q43 -4 93 -10q62 -13 62 -50zM991 85q0 -15 -14.5 -32t-35 -30.5t-44 -22.5t-41.5 -9q-108 0 -276 320q-9 17 -40 77t-85 165l-242 -461
q-10 -20 -27 -38t-37.5 -32t-43 -22.5t-44.5 -8.5q-20 0 -35.5 15.5t-15.5 47.5q0 34 59 81q76 61 86 81l236 451q-54 90 -106 155.5t-105 105.5l-79 60q-56 42 -56 72q0 15 15 31t36 30t44 23t40 9q79 0 223 -208q35 -52 98.5 -155.5t154.5 -261.5q148 -255 200 -312
l75 -65q60 -53 60 -66z" />
    <glyph glyph-name="uni2C980301" unicode="&#x2c98;&#x301;" horiz-adv-x="1529" 
d="M1190 1743q0 -22 -50 -33l-9 -2q-29 -7 -62 -16q-246 -190 -306 -250q-100 7 -100 47q0 65 143 192q140 126 207 126q10 0 22 -4q30 -2 93 -10q62 -11 62 -50zM1479 123q0 -45 -60.5 -90.5t-107.5 -45.5q-70 0 -122 37q-58 42 -58 109v762q-19 -179 -120 -326
q-110 -161 -246 -161t-247 161q-102 147 -121 326v-582q0 -32 63.5 -108.5t63.5 -81.5q0 -45 -61 -90.5t-108 -45.5q-68 0 -121 38q-59 42 -59 108v912q0 32 -62.5 108.5t-62.5 83.5q0 44 64 91q60 44 107 44q66 0 115 -40t61 -105q54 -283 109 -430q103 -276 249 -276
q240 0 375 533q-4 31 -64 102.5t-60 80.5q0 45 66 92q60 43 103 43q69 0 120 -37q58 -42 58 -108v-914q0 -32 63 -108.5t63 -81.5z" />
    <glyph glyph-name="uni2C990301" unicode="&#x2c99;&#x301;" horiz-adv-x="1233" 
d="M1047 1421q0 -24 -51 -33q-63 -12 -71 -18q-239 -184 -306 -250q-99 7 -99 47q0 65 141 191.5t208 126.5q11 0 22 -4l94 -11q62 -7 62 -49zM1183 85q0 -32 -52 -64q-47 -30 -82 -30q-51 0 -93 25q-49 28 -49 76v525q-15 -122 -95 -224q-88 -112 -195 -112
q-112 0 -200 115q-77 101 -92 221v-401q0 -22 50.5 -74.5t50.5 -56.5q0 -32 -52 -64q-47 -30 -82 -30q-51 0 -93 25q-50 29 -50 76v629q0 22 -49.5 74.5t-49.5 57.5q0 33 52 64q47 29 83 29q118 0 140 -100q107 -487 284 -487q190 0 297 368q-4 21 -51 70.5t-47 55.5
q0 31 52 63q48 30 82 30q50 0 92 -25q49 -28 49 -75v-630q0 -22 50 -74.5t50 -56.5z" />
    <glyph glyph-name="uni2C9A0301" unicode="&#x2c9a;&#x301;" horiz-adv-x="1361" 
d="M1100 1743q0 -22 -50 -33l-9 -2q-35 -8 -62 -16q-250 -194 -306 -250q-100 7 -100 47q0 63 142.5 190.5t207.5 127.5q10 0 22 -4q77 -7 93 -11q62 -14 62 -49zM1311 123q0 -46 -66 -93q-61 -43 -105 -43q-65 0 -117 35q-62 41 -62 111v96l-564 758v-674
q0 -35 63.5 -108.5t63.5 -81.5q0 -45 -61 -90.5t-108 -45.5q-68 0 -121 38q-59 42 -59 108v912q0 35 -62.5 109t-62.5 83q0 45 67 92q61 43 104 43q66 0 118 -38q58 -43 58 -107v-93l564 -760v671q0 34 -62.5 108.5t-62.5 83.5q0 44 63 91q61 44 107 44q68 0 120 -37
q57 -42 57 -108v-914q0 -34 64 -108.5t64 -81.5z" />
    <glyph glyph-name="uni2C9B0301" unicode="&#x2c9b;&#x301;" 
d="M964 1421q0 -22 -50 -33l-9 -2q-31 -7 -62 -16q-246 -190 -306 -250q-100 7 -100 47q0 63 142.5 190.5t207.5 127.5q10 0 22 -4q43 -4 93 -10q62 -13 62 -50zM1049 85q0 -32 -52 -65q-48 -29 -83 -29q-51 0 -93 25q-49 28 -49 76v66l-447 523v-465q0 -24 50.5 -75
t50.5 -56q0 -32 -52 -64q-47 -30 -82 -30q-51 0 -93 25q-50 29 -50 76v629q0 23 -49.5 74t-49.5 58q0 31 53 63q48 30 82 30q49 0 91 -25q49 -29 49 -75v-64l447 -524v463q0 23 -49.5 74.5t-49.5 57.5q0 33 52 64q47 29 83 29q49 0 91 -25q49 -29 49 -75v-630
q0 -24 50.5 -75t50.5 -56z" />
    <glyph glyph-name="uni2C9C0301" unicode="&#x2c9c;&#x301;" horiz-adv-x="1267" 
d="M963 1743q0 -24 -51 -33q-63 -12 -71 -18q-240 -185 -306 -250q-99 7 -99 47q0 63 142 190.5t207 127.5q11 0 22 -4l94 -11q62 -7 62 -49zM1257 -75q0 -69 -36 -69q-23 0 -68 -13t-69 -13q-63 0 -91 37q-14 19 -27 75q-10 46 -30 58q-45 26 -201 44q-123 14 -214 14
q-255 0 -477 -58q222 155 425 319q335 270 335 351q0 67 -135 67q-74 0 -216 -49.5t-217 -49.5l512 602l-163 -16q-43 -4 -170 -27q-107 -19 -172 -19q-114 0 -168 37q-65 45 -65 155q0 68 36 68q23 0 67.5 13t67.5 13q74 0 98 -47q13 -44 27 -87q23 -48 98 -48q56 0 141 21
q120 29 140 32q212 27 407 54l-473 -574q15 3 82 17q48 10 82 10q222 0 222 -134q0 -102 -189 -304q-126 -134 -273 -253q92 21 173 21t189 -22l187 -38q88 -18 121 -51q44 -43 44 -136z" />
    <glyph glyph-name="uni2C9D0301" unicode="&#x2c9d;&#x301;" horiz-adv-x="1008" 
d="M865 1421q0 -24 -51 -33q-63 -12 -71 -18q-241 -185 -306 -250q-99 7 -99 47q0 63 142 190.5t207 127.5q11 0 22 -4l94 -11q62 -7 62 -49zM998 -52q0 -47 -28 -47q-18 0 -54 -9t-54 -9q-69 0 -87 50q-22 62 -31 67q-76 40 -329 40q-202 0 -378 -40q602 367 602 462
q0 46 -106 46q-59 0 -172 -34t-172 -34l406 415l-129 -11q-39 -3 -135 -18q-85 -13 -136 -13q-185 0 -185 132q0 47 28 47q18 0 54 9t54 9q55 0 87.5 -63t88.5 -63q43 0 112 15q89 19 111 22l323 37l-375 -396q14 2 65 12q37 7 65 7q176 0 176 -93q0 -70 -150 -209
q-97 -89 -216 -175q72 14 137 14q43 0 298 -41q68 -11 96 -35q34 -30 34 -94z" />
    <glyph glyph-name="uni2C9E0301" unicode="&#x2c9e;&#x301;" horiz-adv-x="1244" 
d="M1074 1743q0 -22 -50 -33l-9 -2q-32 -7 -62 -16q-246 -190 -306 -250q-100 7 -100 47q0 63 142 190.5t208 127.5q10 0 22 -4q42 -4 93 -10q62 -13 62 -50zM1194 717q0 -301 -158 -517q-167 -228 -425 -228q-263 0 -421 221q-140 197 -140 471q0 292 146 494
q164 226 446 226q267 0 417 -206q135 -184 135 -461zM949 598q0 248 -74 439q-97 250 -286 250q-159 0 -237 -170q-62 -134 -62 -334q0 -259 73 -455q98 -262 292 -262q294 0 294 532z" />
    <glyph glyph-name="uni2C9F0301" unicode="&#x2c9f;&#x301;" horiz-adv-x="1007" 
d="M952 1421q0 -24 -51 -33q-63 -12 -71 -18q-240 -185 -306 -250q-99 7 -99 47q0 63 142 190.5t207 127.5q11 0 22 -4l94 -11q62 -7 62 -49zM957 494q0 -211 -124 -358q-130 -155 -338 -155q-199 0 -324 140q-121 136 -121 337q0 214 127 353q130 143 342 143
q200 0 321 -131q117 -127 117 -329zM763 412q0 171 -59 303q-77 172 -226 172q-127 0 -189 -116q-48 -92 -48 -231q0 -178 58 -314q77 -181 231 -181q233 0 233 367z" />
    <glyph glyph-name="uni2CA00301" unicode="&#x2ca0;&#x301;" horiz-adv-x="1360" 
d="M1114 1743q0 -24 -51 -33q-63 -12 -71 -18q-242 -185 -306 -250q-99 7 -99 47q0 63 142 190.5t207 127.5q11 0 22 -4l94 -11q62 -7 62 -49zM1310 123q0 -44 -67 -92q-61 -44 -103 -44q-67 0 -121 39q-59 42 -59 107v1067q0 17 5 33h-572q4 -16 4 -33v-886
q0 -34 63.5 -109t63.5 -82q0 -44 -64 -91q-60 -45 -106 -45q-67 0 -120 38q-59 43 -59 108v886q0 34 -62.5 108.5t-62.5 82.5q0 46 66 93q60 43 104 43h917q44 0 104 -43q66 -47 66 -93q0 -9 -62 -83t-62 -108v-705q0 -34 63.5 -109t63.5 -82z" />
    <glyph glyph-name="uni2CA10301" unicode="&#x2ca1;&#x301;" 
d="M1049 85q0 -32 -52 -65q-48 -29 -83 -29q-51 0 -93 25q-49 28 -49 76v736q0 11 4 22h-454q3 -11 3 -22v-612q0 -24 50.5 -75t50.5 -56q0 -32 -52 -64q-47 -30 -82 -30q-51 0 -93 25q-50 29 -50 76v611q0 24 -49.5 75t-49.5 56q0 32 52 65q48 29 83 29h727q35 0 83 -29
q52 -33 52 -65q0 -5 -49.5 -56t-49.5 -75v-487q0 -24 50.5 -75t50.5 -56zM970 1421q0 -24 -51 -33q-63 -12 -71 -18q-241 -185 -306 -250q-99 7 -99 47q0 63 142 190.5t207 127.5q11 0 22 -4l94 -11q62 -7 62 -49z" />
    <glyph glyph-name="uni2CA20301" unicode="&#x2ca2;&#x301;" horiz-adv-x="1151" 
d="M973 1743q0 -24 -51 -33q-62 -12 -71 -18q-241 -185 -306 -250q-99 7 -99 47q0 63 142 190.5t207 127.5q11 0 22 -4l94 -11q62 -7 62 -49zM1101 927q0 -199 -158 -357q-173 -172 -425 -172q-62 0 -121 11v-525q0 -35 63.5 -109.5t63.5 -82.5q0 -44 -61.5 -89.5
t-108.5 -45.5q-67 0 -120 38q-59 42 -59 107v1343q0 35 -62.5 109t-62.5 82q0 46 66 93q60 43 104 43q69 0 123 -43q97 25 206 25q207 0 361 -93q191 -116 191 -334zM856 851q0 150 -74 255q-96 135 -286 135q-53 0 -99 -31v-701q-12 0 76 -5q53 -3 89 6q107 27 195 120
q99 103 99 221z" />
    <glyph glyph-name="uni2CA30301" unicode="&#x2ca3;&#x301;" horiz-adv-x="934" 
d="M874 1421q0 -24 -51 -33q-63 -12 -71 -18q-241 -185 -306 -250q-99 7 -99 47q0 63 142 190.5t207 127.5q11 0 22 -4l94 -11q62 -7 62 -49zM884 639q0 -136 -126 -246q-137 -119 -337 -119q-49 0 -96 8v-382q0 -24 50.5 -75t50.5 -56q0 -32 -52 -64q-47 -30 -82 -30
q-49 0 -92 25q-51 29 -51 75v946q0 23 -49.5 74.5t-49.5 57.5q0 31 53 63q48 30 82 30q55 0 98 -29q76 17 162 17q166 0 287 -64q152 -80 152 -231zM689 587q0 103 -59 176q-75 93 -226 93q-42 0 -79 -21v-484q-16 0 60 -4q39 -2 71 5q86 19 155 83q78 71 78 152z" />
    <glyph glyph-name="uni2CA40301" unicode="&#x2ca4;&#x301;" horiz-adv-x="1134" 
d="M1084 1743q0 -24 -51 -33q-62 -12 -71 -18q-240 -185 -306 -250q-99 7 -99 47q0 63 142 190.5t207 127.5q11 0 22 -4l94 -11q62 -7 62 -49zM1037 301q0 -155 -152 -250q-126 -79 -274 -79q-263 0 -421 221q-140 197 -140 471q0 292 146 494q164 226 446 226
q142 0 260 -85q135 -98 135 -253q0 -135 -112 -135q-95 0 -123 97q-6 21 -48 181q-43 98 -165 98q-159 0 -237 -170q-62 -134 -62 -334q0 -245 69 -446q92 -270 270 -270q100 0 134 95q16 73 42 178q24 96 120 96q112 0 112 -135z" />
    <glyph glyph-name="uni2CA50301" unicode="&#x2ca5;&#x301;" horiz-adv-x="883" 
d="M948 1421q0 -24 -51 -33q-63 -12 -71 -18q-240 -185 -306 -250q-99 7 -99 47q0 63 142 190.5t207 127.5q11 0 22 -4l94 -11q62 -7 62 -49zM833 208q0 -107 -121 -173q-99 -54 -217 -54q-199 0 -324 140q-121 136 -121 337q0 214 127 353q130 143 342 143q114 0 207 -58
q107 -67 107 -175q0 -93 -89 -93q-76 0 -98 68q-6 17 -38 124q-34 67 -130 67q-126 0 -188 -117q-49 -92 -49 -230q0 -170 54 -308q73 -186 215 -186q79 0 106 66q17 61 33 123q24 66 95 66q89 0 89 -93z" />
    <glyph glyph-name="uni2CA60301" unicode="&#x2ca6;&#x301;" horiz-adv-x="1449" 
d="M1153 1743q0 -24 -51 -33q-62 -12 -71 -18q-240 -185 -306 -250q-99 7 -99 47q0 63 142 190.5t207 127.5q11 0 22 -4l94 -11q62 -7 62 -49zM1439 1158q0 -68 -35 -68q-23 0 -68 -13t-68 -13q-65 0 -95 44q-14 21 -27 82q-9 44 -26 44h-284v-922q0 -34 63.5 -108.5
t63.5 -82.5q0 -44 -64 -91q-60 -44 -106 -44q-66 0 -120 39q-59 42 -59 106v1103h-285q-16 0 -26 -44q-13 -61 -27 -82q-29 -44 -95 -44q-23 0 -67.5 13t-67.5 13q-36 0 -36 68q0 188 162 188h1106q161 0 161 -188z" />
    <glyph glyph-name="uni2CA70301" unicode="&#x2ca7;&#x301;" horiz-adv-x="1153" 
d="M1003 1421q0 -22 -50 -33l-9 -2q-31 -7 -62 -16q-246 -190 -306 -250q-100 7 -100 47q0 63 142.5 190.5t207.5 127.5q10 0 22 -4q43 -4 93 -10q62 -13 62 -50zM1143 799q0 -47 -28 -47q-18 0 -54 -9t-54 -9q-52 0 -75 30q-13 17 -22 56q-7 31 -21 31h-225v-636
q0 -24 50.5 -75t50.5 -56q0 -32 -52 -65q-48 -29 -83 -29q-50 0 -92 25q-50 29 -50 76v760h-225q-13 0 -21 -31q-10 -41 -22 -56q-23 -30 -74 -30q-18 0 -54 9t-54 9q-28 0 -28 47q0 129 128 129h876q129 0 129 -129z" />
    <glyph glyph-name="uni2CA80301" unicode="&#x2ca8;&#x301;" horiz-adv-x="1334" 
d="M1159 1743q0 -25 -50 -33l-6 -1q-55 -9 -65 -17q-251 -195 -306 -250q-100 7 -100 47q0 63 142.5 190.5t207.5 127.5q10 0 22 -4q77 -7 93 -11q62 -14 62 -49zM1324 1277q0 -55 -50 -136q-53 -87 -103 -87q-20 0 -54 15t-52 16l-12 -9l-141 -225q-55 -88 -69 -216
q-7 -60 -7 -234v-517q0 -37 63.5 -109t63.5 -83q0 -44 -67 -92q-60 -43 -103 -43q-67 0 -121 38q-59 43 -59 107v506q0 308 -108 490q-74 125 -324 347q-51 45 -101 89q-70 68 -70 102q0 44 67 92q62 44 104 44q50 0 100 -50q18 -18 76 -96l371 -494l336 557q51 84 120 84
q41 0 86 -24q54 -29 54 -72z" />
    <glyph glyph-name="uni2CA90301" unicode="&#x2ca9;&#x301;" horiz-adv-x="1061" 
d="M1002 1421q0 -22 -50 -33l-9 -2q-31 -7 -62 -16q-246 -190 -306 -250q-100 7 -100 47q0 63 142.5 190.5t207.5 127.5q10 0 22 -4q43 -4 93 -10q62 -13 62 -50zM1051 881q0 -40 -41 -95q-42 -59 -80 -59q-15 0 -42 10.5t-42 10.5l-9 -6q-135 -193 -145 -217
q-28 -65 -28 -248v-377q0 -24 50.5 -74.5t50.5 -56.5q0 -33 -52 -65q-47 -29 -83 -29q-50 0 -92 25q-50 29 -50 75v369q0 212 -86 337q-60 87 -257 240q-135 105 -135 132q0 31 53 63q48 30 82 30q54 0 140 -100l293 -341l267 384q40 58 95 58q35 0 69 -16q42 -19 42 -50z
" />
    <glyph glyph-name="uni2CAA0301" unicode="&#x2caa;&#x301;" horiz-adv-x="1526" 
d="M1473 1761q0 -22 -51 -33q-63 -13 -70 -18q-211 -155 -306 -250q-100 7 -100 47q0 63 143 190.5t207 127.5q53 0 104 -12q73 -17 73 -52zM1476 681q0 -254 -195 -425q-167 -146 -404 -182v-190q0 -34 63.5 -109t63.5 -82q0 -43 -62 -89.5t-107 -46.5q-68 0 -121 38
q-58 43 -58 108v368q-247 29 -413 173q-193 168 -193 435q0 258 197 427q167 144 409 176v31q0 35 -62.5 109t-62.5 82q0 46 66 93q60 43 104 43q68 0 119 -38q57 -42 57 -108v-211q246 -30 409 -172q190 -165 190 -430zM1234 667q0 169 -99 310.5t-258 194.5v-999
q167 42 264 183q93 135 93 311zM656 174v1009q-171 -35 -275 -177q-100 -137 -100 -315q0 -173 104 -320q106 -150 271 -197z" />
    <glyph glyph-name="uni2CAB0301" unicode="&#x2cab;&#x301;" horiz-adv-x="1231" 
d="M1038 1743q0 -26 -50 -33l-7 -1q-52 -7 -64 -17q-249 -193 -306 -250q-100 7 -100 47q0 63 142.5 190.5t207.5 127.5q10 0 22 -4q43 -4 93 -10q62 -13 62 -50zM1180 494q12 -185 -144 -310q-133 -107 -330 -133v-151q0 -24 50.5 -75t50.5 -56q0 -32 -52 -64
q-47 -30 -82 -30q-49 0 -92 25q-51 29 -51 75v274q-191 19 -323 117q-153 113 -157 292q-4 183 152 302q133 101 328 124v156q0 23 -49.5 74.5t-49.5 57.5q0 31 53 63q48 30 82 30q49 0 91 -25q49 -29 49 -75v-280q187 -20 314 -111q149 -107 160 -280zM989 460
q0 122 -83 220q-79 94 -200 128v-689q243 54 279 293q4 27 4 48zM530 120v696q-239 -43 -290 -276q-7 -32 -7 -64q0 -124 89 -226q85 -99 208 -130z" />
    <glyph glyph-name="uni2CAC0301" unicode="&#x2cac;&#x301;" horiz-adv-x="1293" 
d="M1110 1743q0 -24 -51 -33q-63 -12 -71 -18q-240 -185 -306 -250q-99 7 -99 47q0 63 142 190.5t207 127.5q11 0 22 -4l94 -11q62 -7 62 -49zM1243 123q0 -44 -67 -92q-61 -44 -103 -44q-85 0 -179 146l-278 431l-290 -480q-52 -85 -121 -85q-44 0 -85 22q-49 25 -54 64
q-2 12 5 25q27 72 52 130q33 77 96 77q13 0 57 -17q41 -16 48 -14l12 9l219 361q-170 241 -335 389q-51 45 -101 89q-69 68 -69 102q0 44 67 92q62 44 103 44q52 0 101 -50q11 -12 76 -96q104 -134 279 -369l261 432q51 84 120 84q40 0 82 -22q52 -27 58 -65q1 -11 -6 -24
q-26 -71 -52 -131q-33 -77 -95 -77q-13 0 -56 16.5t-50 14.5l-11 -9l-186 -307l332 -455q6 -8 96 -97q74 -73 74 -94z" />
    <glyph glyph-name="uni2CAD0301" unicode="&#x2cad;&#x301;" horiz-adv-x="1046" 
d="M974 1421q0 -24 -51 -33q-63 -12 -71 -18q-241 -185 -306 -250q-99 7 -99 47q0 63 142 190.5t207 127.5q11 0 22 -4l94 -11q62 -7 62 -49zM996 85q0 -33 -52 -65q-47 -29 -83 -29q-68 0 -142 101l-219 297l-231 -331q-41 -59 -96 -59q-33 0 -66 15q-40 17 -44 45
q-2 8 4 17q21 44 41 89q30 53 76 53q11 0 45.5 -10.5t38.5 -9.5l9 5l173 249q-23 29 -214 216q-182 178 -186 185q0 31 53 63q48 30 82 30q39 0 80 -35q10 -8 60 -65q101 -114 221 -255l208 298q34 49 81 57q31 5 72 -12q46 -18 52 -47q2 -9 -4 -17q-10 -23 -41 -90
q-25 -53 -76 -53q-10 0 -44.5 11.5t-39.5 9.5l-9 -6l-147 -212q21 -25 263 -314q3 -3 76 -66q59 -51 59 -65z" />
    <glyph glyph-name="uni2CAE0301" unicode="&#x2cae;&#x301;" horiz-adv-x="1334" 
d="M1437 1761q0 -22 -51 -33q-64 -13 -70 -18q-211 -155 -306 -250q-100 7 -100 47q0 63 142.5 190.5t207.5 127.5q53 0 104 -12q73 -17 73 -52zM1324 1277q0 -56 -49 -136q-53 -87 -104 -87q-19 0 -53.5 15t-52.5 16l-12 -9q-153 -254 -179 -333q-38 -115 -38 -391v-468
q0 -37 63.5 -109t63.5 -83q0 -45 -66 -92q-61 -43 -104 -43q-67 0 -121 38q-59 43 -59 107v507q0 307 -108 489q-74 125 -324 347q-29 24 -100 88t-71 103q0 45 63 92q60 44 108 44q50 0 100 -50q16 -17 76 -96l256 -339v431q0 36 -62.5 108t-62.5 83q0 46 63 92
q59 43 107 43q67 0 120 -38q58 -42 58 -107v-588l228 378q51 84 120 84q42 0 87 -24q53 -29 53 -72z" />
    <glyph glyph-name="uni2CAF0301" unicode="&#x2caf;&#x301;" horiz-adv-x="1061" 
d="M995 1743q0 -24 -51 -33q-63 -12 -71 -18q-240 -185 -306 -250q-99 7 -99 47q0 63 142 190.5t207 127.5q11 0 22 -4l94 -11q62 -7 62 -49zM1051 881q0 -40 -41 -95q-42 -59 -80 -59q-15 0 -42 10.5t-42 10.5l-9 -6q-125 -179 -146 -236q-27 -73 -27 -264v-342
q0 -24 50.5 -74.5t50.5 -56.5q0 -33 -52 -65q-47 -29 -83 -29q-50 0 -92 25q-50 29 -50 75v369q0 212 -86 337q-60 87 -257 240q-135 105 -135 132q0 31 53 63q48 30 82 30q53 0 140 -100l203 -234v398q0 25 -49.5 75t-49.5 57q0 31 53 63q48 30 82 30q51 0 92 -24
q48 -28 48 -76v-507l181 261q40 58 95 58q35 0 69 -16q42 -19 42 -50z" />
    <glyph glyph-name="uni2CB00301" unicode="&#x2cb0;&#x301;" horiz-adv-x="1963" 
d="M1406 1743q0 -24 -51 -33q-63 -12 -71 -18q-240 -185 -306 -250q-99 7 -99 47q0 63 142 190.5t207 127.5q11 0 22 -4l94 -11q62 -7 62 -49zM1913 717q0 -301 -159 -517q-167 -228 -424 -228q-165 0 -241 16q-106 22 -208 100q-137 -116 -271 -116q-258 0 -417 224
q-143 200 -143 468q0 293 146 494q163 226 445 226q41 0 41 -38q0 -59 -93 -59q-158 0 -237 -170q-63 -135 -63 -334q0 -253 76 -454q99 -263 290 -263q217 0 217 532v447q0 36 -62 108.5t-62 82.5q0 46 66 93q60 43 103 43q67 0 120 -39q57 -42 57 -107v-929
q0 -111 96 -176q81 -55 183 -55q294 0 294 532q0 249 -74 439q-97 250 -285 250q-28 0 -37 4q-22 9 -22 55q0 28 9 35q7 4 33 4l68 -1q265 -4 417 -208q137 -185 137 -459z" />
    <glyph glyph-name="uni2CB10301" unicode="&#x2cb1;&#x301;" horiz-adv-x="1577" 
d="M1215 1421q0 -22 -50 -33l-9 -2q-31 -7 -62 -16q-246 -190 -306 -250q-100 7 -100 47q0 63 142.5 190.5t207.5 127.5q10 0 22 -4q43 -4 93 -10q62 -13 62 -50zM1527 494q0 -210 -124 -357q-132 -156 -338 -156q-130 0 -191 11q-83 15 -165 68q-108 -79 -214 -79
q-194 0 -322 143q-123 137 -123 334q0 214 127 353q130 143 342 143q32 0 32 -26q0 -41 -73 -41q-126 0 -189 -117q-49 -91 -49 -230q0 -174 60 -313q79 -182 229 -182q173 0 173 367v309q0 24 -49.5 74.5t-49.5 57.5q0 31 53 63q48 30 82 30q49 0 91 -25q49 -29 49 -75
v-641q0 -75 76 -121q65 -39 145 -39q234 0 234 367q0 171 -59 303q-77 172 -226 172q-47 0 -47 41q0 28 33 27l55 -1q200 -4 319 -131.5t119 -328.5z" />
    <glyph glyph-name="uni2CB20301" unicode="&#x2cb2;&#x301;" horiz-adv-x="1305" 
d="M1151 1743q0 -24 -51 -33q-63 -12 -71 -18q-240 -185 -306 -250q-99 7 -99 47q0 63 142 190.5t207 127.5q11 0 22 -4l94 -11q62 -7 62 -49zM1255 604q0 -49 -38 -119q-42 -77 -81 -77q-7 0 -72 73.5t-94 73.5h-794q-59 0 -96 70q-30 59 -30 103q0 49 37 119q41 77 80 77
q7 0 72 -72t95 -72h231v239q0 34 -62 108t-62 84q0 43 62 89t106 46q63 0 116 -36q63 -43 63 -109v-421h339q58 0 96 -72q32 -62 32 -104z" />
    <glyph glyph-name="uni2CB30301" unicode="&#x2cb3;&#x301;" horiz-adv-x="1055" 
d="M1005 396q0 -36 -29 -83q-31 -52 -65 -52q-5 0 -56.5 50.5t-75.5 50.5h-629q-46 0 -75 49q-25 42 -25 91q0 34 30 82q32 53 63 53q6 0 57.5 -49.5t74.5 -49.5h184v165q0 23 -49.5 74t-49.5 58q0 31 52 63q48 30 82 30q49 0 92 -25q49 -29 49 -75v-290h269q47 0 76 -50
q25 -42 25 -92zM969 1421q0 -24 -51 -33q-63 -12 -71 -18q-240 -185 -306 -250q-99 7 -99 47q0 63 142 190.5t207 127.5q11 0 22 -4l94 -11q62 -7 62 -49z" />
    <glyph glyph-name="uni2CB40301" unicode="&#x2cb4;&#x301;" horiz-adv-x="1082" 
d="M913 729q0 -72 -50.5 -123.5t-122.5 -51.5q-68 0 -120 49.5t-52 117.5q0 70 51 121t121 51q69 0 121 -47.5t52 -116.5zM1032 123q0 -47 -75 -94q-69 -42 -120 -42q-91 0 -444 366q-343 356 -343 413q0 13 30 45q59 63 165 229q100 155 172 225q112 108 233 108
q51 0 100 -23q61 -29 61 -73q0 -58 -58 -138q-62 -85 -117 -85q-22 0 -62 15t-60 16l-70 34l-220 -311q466 -519 629 -589q28 -11 103.5 -40t75.5 -56zM874 1743q0 -24 -51 -33q-63 -12 -71 -18q-240 -185 -306 -250q-99 7 -99 47q0 63 142 190.5t207 127.5q11 0 22 -4
l94 -11q62 -7 62 -49z" />
    <glyph glyph-name="uni2CB50301" unicode="&#x2cb5;&#x301;" horiz-adv-x="777" 
d="M645 503q0 -49 -35 -85t-84 -36q-47 0 -83 34t-36 81t36 83t83 36q48 0 83.5 -32.5t35.5 -80.5zM727 85q0 -32 -52 -65q-46 -29 -82 -29q-65 0 -307 252q-236 245 -236 285q0 9 21 31q40 42 114 158q67 106 118 155q77 75 161 75q35 0 69 -16q42 -19 42 -50
q0 -40 -41 -95q-42 -59 -80 -59q-15 0 -42.5 10t-41.5 11l-48 24l-152 -215q320 -357 434 -406q19 -7 71 -27.5t52 -38.5zM744 1421q0 -24 -51 -33q-63 -12 -71 -18q-240 -185 -306 -250q-99 7 -99 47q0 63 142 190.5t207 127.5q11 0 22 -4l94 -11q62 -7 62 -49z" />
    <glyph glyph-name="uni2CB60301" unicode="&#x2cb6;&#x301;" horiz-adv-x="1485" 
d="M1166 1743q0 -24 -51 -33q-63 -12 -71 -18q-240 -185 -306 -250q-99 7 -99 47q0 63 142 190.5t207 127.5q11 0 22 -4l94 -11q62 -7 62 -49zM1435 549q0 -43 -43 -104q-47 -66 -93 -66q-7 0 -82 63.5t-109 63.5h-912q-65 0 -107 58q-39 52 -39 119q0 42 44 104
q48 67 92 67q8 0 82.5 -63t108.5 -63h912q65 0 108 -58q38 -53 38 -121zM1435 43q0 -42 -44 -104q-48 -67 -92 -67q-7 0 -82 64t-109 64h-912q-66 0 -108 57q-38 52 -38 120q0 45 46 107t90 62q8 0 82 -62t109 -62h912q65 0 108 -59q38 -53 38 -120zM1435 1055
q0 -43 -43 -103q-47 -66 -93 -66q-7 0 -82 63.5t-109 63.5h-912q-65 0 -107 57q-39 52 -39 119q0 42 44 104q48 67 92 67q8 0 82.5 -62.5t108.5 -62.5h912q65 0 108 -59q38 -53 38 -121z" />
    <glyph glyph-name="uni2CB70301" unicode="&#x2cb7;&#x301;" horiz-adv-x="1055" 
d="M1005 708q0 -33 -31 -82q-33 -53 -63 -53q-6 0 -57 50.5t-75 50.5h-629q-46 0 -75 49q-25 42 -25 91q0 34 30 82q32 53 63 53q6 0 57.5 -49.5t74.5 -49.5h629q47 0 76 -50q25 -42 25 -92zM1005 372q0 -35 -29 -83q-33 -52 -65 -52q-6 0 -57 50.5t-75 50.5h-629
q-46 0 -75 49q-25 42 -25 91q0 34 30 82q32 53 63 53q6 0 57.5 -49.5t74.5 -49.5h629q47 0 76 -50q25 -42 25 -92zM1005 36q0 -35 -29 -83q-33 -52 -65 -52q-6 0 -57 50.5t-75 50.5h-629q-46 0 -75 49q-25 42 -25 91q0 34 30 82q32 53 63 53q6 0 57.5 -49.5t74.5 -49.5h629
q46 0 75 -50q26 -43 26 -92zM954 1421q0 -24 -51 -33q-63 -12 -71 -18q-240 -185 -306 -250q-99 7 -99 47q0 63 142 190.5t207 127.5q11 0 22 -4l94 -11q62 -7 62 -49z" />
    <glyph glyph-name="uni2CB80301" unicode="&#x2cb8;&#x301;" horiz-adv-x="1274" 
d="M1224 -88q0 -69 -35 -69q-23 0 -68 -13t-68 -13q-62 0 -92 44q-16 23 -30 82q-10 44 -26 44h-686q-45 0 -104 42q-65 47 -65 94q0 27 67 57q25 10 88 39q144 69 548 589l-192 311l-60 -34q-17 -4 -52 -17.5t-54 -13.5q-52 0 -105 87q-49 80 -49 136q0 45 53 73
q44 23 87 23q169 0 421 -425q31 -65 75 -137q20 -32 20 -45q0 -41 -234 -334q-213 -267 -281 -333h681q161 0 161 -187zM981 1743q0 -24 -51 -33q-62 -12 -71 -18q-241 -185 -306 -250q-99 7 -99 47q0 63 142 190.5t207 127.5q11 0 22 -4l94 -11q62 -7 62 -49z" />
    <glyph glyph-name="uni2CB90301" unicode="&#x2cb9;&#x301;" horiz-adv-x="1031" 
d="M981 -61q0 -47 -28 -47q-18 0 -54 -9t-54 -9q-50 0 -73 30q-12 15 -23 57q-8 30 -21 30h-544q-37 0 -83 29q-51 31 -51 65q0 18 53 39q20 7 70 27q112 47 434 406l-152 215l-48 -24q-13 -1 -40.5 -11t-43.5 -10q-38 0 -80 59q-41 55 -41 95q0 31 42 50q34 16 69 16
q140 0 333 -293q15 -25 60 -95q16 -19 16 -30q0 -29 -186 -231q-171 -186 -222 -230h539q128 0 128 -129zM891 1421q0 -24 -51 -33q-63 -12 -71 -18q-240 -185 -306 -250q-99 7 -99 47q0 63 142 190.5t207 127.5q11 0 22 -4l94 -11q62 -7 62 -49z" />
    <glyph glyph-name="uni2CBA0301" unicode="&#x2cba;&#x301;" horiz-adv-x="1485" 
d="M1155 1743q0 -24 -51 -33q-63 -12 -71 -18q-240 -185 -306 -250q-99 7 -99 47q0 63 142 190.5t207 127.5q11 0 22 -4l94 -11q62 -7 62 -49zM1435 855q0 -44 -43 -104q-47 -66 -93 -66q-7 0 -82 63.5t-109 63.5h-912q-65 0 -107 58q-39 52 -39 119q0 42 44 103
q48 67 92 67q8 0 82.5 -62.5t108.5 -62.5h912q65 0 108 -59q38 -53 38 -120z" />
    <glyph glyph-name="uni2CBB0301" unicode="&#x2cbb;&#x301;" horiz-adv-x="1055" 
d="M1005 571q0 -35 -29 -83q-33 -52 -65 -52q-6 0 -57 50.5t-75 50.5h-629q-46 0 -75 49q-25 42 -25 91q0 34 30 82q32 53 63 53q6 0 57.5 -49.5t74.5 -49.5h629q47 0 76 -50q25 -42 25 -92zM940 1421q0 -24 -51 -33q-63 -12 -71 -18q-240 -185 -306 -250q-99 7 -99 47
q0 63 142 190.5t207 127.5q11 0 22 -4l94 -11q62 -7 62 -49z" />
    <glyph glyph-name="uni2CBC0301" unicode="&#x2cbc;&#x301;" horiz-adv-x="1461" 
d="M1411 123q0 -46 -66 -93q-60 -43 -104 -43q-68 0 -121 38q-58 43 -58 108v912q0 35 -62.5 109t-62.5 82q0 46 67 93q60 43 103 43q67 0 119 -39q58 -42 58 -107v-912q0 -34 63.5 -109t63.5 -82zM970 123q0 -44 -62.5 -90t-107.5 -46q-63 0 -117 36q-63 43 -63 110v912
q0 35 -62.5 109t-62.5 82q0 46 67 93q60 43 103 43q68 0 120 -38q58 -43 58 -108v-912q0 -34 63.5 -109t63.5 -82zM524 123q0 -44 -64 -91q-60 -45 -106 -45q-67 0 -120 38q-59 43 -59 108v912q0 35 -62.5 109t-62.5 82q0 46 66 93q60 43 104 43q67 0 119 -38
q58 -43 58 -108v-912q0 -34 63.5 -109t63.5 -82zM1150 1743q0 -24 -51 -33q-62 -12 -71 -18q-241 -185 -306 -250q-99 7 -99 47q0 63 142 190.5t207 127.5q11 0 22 -4l94 -11q62 -7 62 -49z" />
    <glyph glyph-name="uni2CBD0301" unicode="&#x2cbd;&#x301;" horiz-adv-x="1179" 
d="M1129 85q0 -32 -52 -64q-47 -30 -82 -30q-51 0 -93 25q-50 29 -50 76v629q0 23 -49 74.5t-49 57.5q0 31 52 63q48 30 82 30q49 0 91 -25q49 -29 49 -75v-630q0 -24 50.5 -75t50.5 -56zM779 85q0 -32 -52 -64q-47 -30 -82 -30q-51 0 -93 25q-50 29 -50 76v629
q0 23 -49.5 74.5t-49.5 57.5q0 31 53 63q48 30 82 30q49 0 91 -25q49 -29 49 -75v-630q0 -24 50.5 -75t50.5 -56zM426 85q0 -32 -52 -64q-47 -30 -82 -30q-51 0 -93 25q-50 29 -50 76v629q0 23 -49.5 74.5t-49.5 57.5q0 31 53 63q48 30 82 30q49 0 91 -25q49 -29 49 -75
v-630q0 -24 50.5 -75t50.5 -56zM1020 1421q0 -24 -51 -33q-63 -12 -71 -18q-240 -185 -306 -250q-99 7 -99 47q0 63 142 190.5t207 127.5q11 0 22 -4l94 -11q62 -7 62 -49z" />
    <glyph glyph-name="uni2CBE0301" unicode="&#x2cbe;&#x301;" horiz-adv-x="1744" 
d="M1734 809q0 -187 -162 -187h-288v-309q0 -34 64 -108.5t64 -81.5q0 -44 -62.5 -90t-107.5 -46q-63 0 -117 36q-63 43 -63 110v489h-219v-309q0 -34 63.5 -108.5t63.5 -81.5q0 -44 -67 -92q-60 -44 -102 -44q-64 0 -118 36q-63 43 -63 110v489h-223v-309
q0 -34 63.5 -108.5t63.5 -81.5q0 -45 -61 -90.5t-108 -45.5q-68 0 -121 38q-59 42 -59 108v912q0 34 -62.5 108.5t-62.5 83.5q0 43 63 89t108 46q66 0 118 -38q58 -43 58 -107v-493h223v311q0 34 -62.5 108.5t-62.5 83.5q0 43 65 90q61 45 106 45q66 0 119 -38
q58 -43 58 -107v-493h219v311q0 34 -62 108.5t-62 83.5q0 43 64 90q61 45 105 45q67 0 119 -38q58 -43 58 -107v-493h131q16 0 26 44q13 58 29 81q30 44 93 44q23 0 67.5 -13t68.5 -13q35 0 35 -68zM1134 1743q0 -24 -51 -33q-63 -12 -71 -18q-237 -182 -306 -250
q-99 7 -99 47q0 63 142 190.5t207 127.5q11 0 22 -4l94 -11q62 -7 62 -49z" />
    <glyph glyph-name="uni2CBF0301" unicode="&#x2cbf;&#x301;" horiz-adv-x="1395" 
d="M1385 558q0 -129 -128 -129h-229v-213q0 -24 50.5 -75t50.5 -56q0 -32 -52 -64q-47 -30 -82 -30q-51 0 -93 25q-50 29 -50 76v337h-174v-213q0 -24 50.5 -75t50.5 -56q0 -32 -52 -64q-47 -30 -82 -30q-51 0 -93 25q-50 29 -50 76v337h-177v-213q0 -24 50.5 -75t50.5 -56
q0 -32 -52 -64q-47 -30 -82 -30q-51 0 -93 25q-50 29 -50 76v629q0 23 -49.5 74.5t-49.5 57.5q0 31 53 63q48 30 82 30q49 0 91 -25q49 -29 49 -75v-340h177v215q0 23 -49.5 74.5t-49.5 57.5q0 31 53 63q48 30 82 30q49 0 91 -25q49 -29 49 -75v-340h174v215q0 23 -49 74.5
t-49 57.5q0 31 52 63q48 30 82 30q49 0 91 -25q49 -29 49 -75v-340h104q13 0 21 30q11 43 22 57q23 30 74 30q18 0 54 -9t54 -9q28 0 28 -47zM1017 1421q0 -24 -51 -33q-63 -12 -71 -18q-240 -185 -306 -250q-99 7 -99 47q0 63 142 190.5t207 127.5q11 0 22 -4l94 -11
q62 -7 62 -49z" />
    <glyph glyph-name="uni2CC00301" unicode="&#x2cc0;&#x301;" horiz-adv-x="1421" 
d="M1371 174h-704v-290q0 -34 63.5 -110t63.5 -82q0 -43 -63 -89t-107 -46q-116 0 -165 88q-14 27 -14 57v472h-435v112h435v759q0 32 -62.5 109t-62.5 82q0 42 63 90q60 46 107 46q70 0 123 -43q96 25 206 25q239 0 393 -115q159 -120 159 -312q0 -199 -158 -357
q-172 -172 -425 -172q-60 0 -121 11v-123h704v-112zM1126 851q0 176 -97.5 283t-262.5 107q-53 0 -99 -31v-701q13 0 50 -3q32 -3 51 -3q84 0 169 53q79 49 131 125q58 85 58 170zM1247 1743q0 -24 -51 -33q-63 -12 -71 -18q-238 -181 -306 -250q-99 7 -99 47
q0 65 141 191.5t208 126.5q11 0 22 -4l94 -11q62 -7 62 -49z" />
    <glyph glyph-name="uni2CC10301" unicode="&#x2cc1;&#x301;" horiz-adv-x="1134" 
d="M1085 639q0 -145 -138.5 -255t-324.5 -110q-50 0 -96 8v-119h558v-77h-558v-186q0 -23 50.5 -75t50.5 -56q0 -28 -48.5 -61t-85.5 -33q-90 0 -131 60q-12 19 -12 40v311h-340v77h340v558q0 22 -49.5 73.5t-49.5 58.5q0 27 51 61q48 32 84 32q54 0 98 -29q79 17 162 17
q188 0 313.5 -80.5t125.5 -214.5zM890 587q0 121 -76 194q-79 75 -209 75q-42 0 -79 -21v-484q92 -4 77 -4q101 0 194 75.5t93 164.5zM1054 1421q0 -24 -51 -33q-62 -12 -71 -18q-240 -184 -306 -250q-99 7 -99 47q0 65 141 191.5t208 126.5q11 0 22 -4l94 -11q62 -7 62 -49
z" />
    <glyph glyph-name="uni2CC40301" unicode="&#x2cc4;&#x301;" horiz-adv-x="1435" 
d="M1385 185q0 -251 -188 -403q-169 -136 -396 -136q-109 0 -293 81q-17 -1 -26 -45q-13 -59 -29 -82q-30 -43 -94 -43q-23 0 -68 13.5t-68 13.5q-35 0 -35 68q0 82 40 132q44 55 124 55q158 -70 261 -70q201 0 350 97q181 117 181 332q0 163 -85 291q-97 145 -252 145
q-125 0 -299 -173q-201 0 -200 61l497 721l-180 -19q-39 -4 -170 -27q-110 -19 -172 -19q-114 0 -168 37q-65 45 -65 155q0 68 35 68q23 0 68 13t68 13q75 0 98 -47l26 -87q23 -48 98 -48q54 0 141 22q107 27 140 31q134 17 408 54l-470 -696q107 30 189 30q209 0 367 -147
q167 -156 167 -391zM993 1743q0 -24 -51 -33q-62 -12 -71 -18q-241 -185 -306 -250q-99 7 -99 47q0 63 142 190.5t207 127.5q11 0 22 -4l94 -11q62 -7 62 -49z" />
    <glyph glyph-name="uni2CC50301" unicode="&#x2cc5;&#x301;" horiz-adv-x="1149" 
d="M1099 13q0 -169 -147 -275q-132 -95 -309 -95q-95 0 -240 56q-13 -1 -21 -31q-10 -39 -23 -56q-23 -30 -74 -30q-18 0 -53.5 9t-53.5 9q-28 0 -28 47q0 129 129 129q124 -48 215 -48q156 0 273 68q140 81 140 226q0 115 -63 204q-71 100 -181 100q-88 0 -260 -121
q-160 0 -159 42l382 610l-143 -13q-32 -3 -135 -19q-77 -12 -136 -12q-185 0 -185 132q0 47 28 47q18 0 54 9t54 9q56 0 87.5 -63t88.5 -63q45 0 112 15q86 19 111 22l323 37l-372 -593q87 21 162 21q169 0 292 -100q132 -107 132 -273zM878 1421q0 -24 -51 -33
q-63 -12 -71 -18q-240 -185 -306 -250q-99 7 -99 47q0 63 142 190.5t207 127.5q11 0 22 -4l94 -11q62 -7 62 -49z" />
    <glyph glyph-name="uni2CC60301" unicode="&#x2cc6;&#x301;" horiz-adv-x="866" 
d="M856 1192q0 -22 -8 -44l-507 -1407q-28 -76 -128 -76q-103 0 -169 107q-34 55 -34 92q0 34 83 69q88 38 101 74l391 1097q0 36 -28 106.5t-28 96.5q0 32 63 51q46 14 84 14q66 0 123 -57t57 -123zM1142 1743q0 -24 -51 -33q-63 -12 -71 -18q-242 -185 -306 -250
q-99 7 -99 47q0 63 142 190.5t207 127.5q11 0 22 -4l94 -11q62 -7 62 -49z" />
    <glyph glyph-name="uni2CC70301" unicode="&#x2cc7;&#x301;" horiz-adv-x="700" 
d="M690 821q0 -16 -6 -30l-408 -985q-22 -54 -103 -54q-56 0 -108 41q-55 44 -55 98q0 25 66 49q73 27 83 51l314 769q0 25 -22.5 74.5t-22.5 66.5q0 23 50 36q38 10 68 10q50 0 97 -38.5t47 -87.5zM972 1421q0 -24 -51 -33q-63 -12 -71 -18q-241 -185 -306 -250
q-99 7 -99 47q0 63 142 190.5t207 127.5q11 0 22 -4l94 -11q62 -7 62 -49z" />
    <glyph glyph-name="uni2CC80301" unicode="&#x2cc8;&#x301;" 
d="M933 1743q0 -24 -51 -33q-62 -12 -71 -18q-237 -182 -306 -250q-99 7 -99 47q0 63 142 190.5t207 127.5q11 0 22 -4l94 -11q62 -7 62 -49zM1049 -172q-183 -271 -476 -271q-121 0 -195 28q-80 29 -163 110q-165 163 -165 374q0 194 107 357h-107v112h190q61 64 195 105
q165 51 197 69q89 51 89 158q0 120 -73 266q-82 163 -176 163q-72 0 -119 -64q-42 -59 -42 -133q0 -88 57 -152q9 -11 111 -115q-1 -16 -16 -36t-30 -20q-146 0 -238 59q-108 70 -108 209q0 167 145 260q119 76 278 76q211 0 335 -139q118 -133 118 -346q0 -147 -135 -221
q-16 -9 -277 -139h412v-112h-539q-122 -152 -122 -430q0 -137 82 -239q87 -110 221 -110q205 0 359 187q17 -2 85 -6z" />
    <glyph glyph-name="uni2CC90301" unicode="&#x2cc9;&#x301;" horiz-adv-x="892" 
d="M844 1421q0 -24 -51 -33q-63 -12 -71 -18q-237 -182 -306 -250q-99 7 -99 47q0 63 142 190.5t207 127.5q11 0 22 -4l94 -11q62 -7 62 -49zM842 -139q-145 -187 -377 -187q-179 0 -288 99q-127 116 -127 274q0 135 85 247h-85v77h151q49 43 155 72q127 34 155 48
q71 36 71 109q0 82 -58 183q-65 113 -139 113q-55 0 -91.5 -40.5t-36.5 -95.5q0 -56 45 -105q44 -40 88 -79q-1 -12 -13 -25.5t-23 -13.5q-109 0 -182 38q-93 48 -93 147q0 115 115 179q95 53 221 53q158 0 256 -88q103 -91 103 -247q0 -101 -108 -152q-9 -4 -219 -96h327
v-77h-427q-97 -105 -97 -297q0 -102 68 -180q71 -81 172 -81q162 0 285 129q13 -1 67 -4z" />
    <glyph glyph-name="uni2CCA0301" unicode="&#x2cca;&#x301;" horiz-adv-x="977" 
d="M927 747q0 -421 -298 -747q-256 -281 -468 -281q-92 0 -92 37t87 74q33 12 116 48q114 52 251 270q183 291 183 701q0 162 -44 293q-61 178 -180 178q-109 0 -167 -143q-45 -112 -45 -250q0 -128 172 -303q-7 -56 -45 -56q-137 0 -242 109t-105 246q0 192 116 327
q122 142 311 142q221 0 343 -202q107 -177 107 -443zM903 1743q0 -24 -51 -33q-62 -12 -71 -18q-240 -185 -306 -250q-99 7 -99 47q0 63 142 190.5t207 127.5q11 0 22 -4l94 -11q62 -7 62 -49z" />
    <glyph glyph-name="uni2CCB0301" unicode="&#x2ccb;&#x301;" horiz-adv-x="795" 
d="M745 515q0 -290 -236 -515q-203 -194 -371 -194q-73 0 -73 26q0 25 69 51q26 8 92 33q90 36 199 186q145 200 145 483q0 113 -35 202q-48 123 -143 123q-86 0 -132 -98q-36 -77 -36 -173q0 -88 137 -208q-6 -39 -36 -39q-103 0 -187 70q-88 74 -88 175q0 141 100 233
q97 90 239 90q176 0 272 -140q84 -121 84 -305zM818 1421q0 -24 -51 -33q-63 -12 -71 -18q-240 -185 -306 -250q-99 7 -99 47q0 63 142 190.5t207 127.5q11 0 22 -4l94 -11q62 -7 62 -49z" />
    <glyph glyph-name="uni2CCC0301" unicode="&#x2ccc;&#x301;" horiz-adv-x="1306" 
d="M902 1743q0 -24 -51 -33q-63 -12 -71 -18q-240 -185 -306 -250q-99 7 -99 47q0 63 142 190.5t207 127.5q11 0 22 -4l94 -11q62 -7 62 -49zM1256 164q-8 -241 -198 -388q-167 -130 -387 -130q-109 0 -293 81q-16 0 -26 -44q-13 -59 -28 -82q-29 -44 -95 -44
q-23 0 -67.5 13.5t-68.5 13.5q-34 0 -34 68q0 82 40 132q43 55 123 55q159 -70 262 -70q193 0 343 93q182 113 187 318q4 168 -82 294q-94 137 -255 160l-266 -28q18 41 48 94q319 0 319 280q0 140 -69 221q-74 87 -211 87q-90 0 -130 -35q-28 -23 -44 -76q-11 -34 -39 -88
q-36 -41 -114 -41q-49 0 -83 25q-38 28 -38 75q0 110 139 176q116 55 259 55q234 0 423 -100q201 -106 201 -255q0 -60 -35 -120q-114 -192 -315 -181q27 4 56 4q212 0 353 -179q132 -168 125 -384z" />
    <glyph glyph-name="uni2CCD0301" unicode="&#x2ccd;&#x301;" horiz-adv-x="1056" 
d="M1006 0q-6 -162 -144 -260q-119 -84 -291 -96q-100 -7 -261 55q-12 0 -20 -30q-10 -41 -23 -57q-23 -30 -74 -30q-18 0 -54 9t-54 9q-28 0 -28 47q0 129 130 129q139 -53 235 -47q153 10 257 70q132 76 136 212q3 122 -71.5 210.5t-195.5 103.5l-211 -20q14 28 38 65
q132 0 201 114q52 86 52 192q0 101 -60 156.5t-162 55.5q-110 0 -138 -76q-8 -22 -32 -61q-28 -29 -90 -29q-96 0 -96 70q0 75 111 121q92 38 205 38q172 0 299 -53q173 -72 173 -221q0 -26 -6 -54q-43 -202 -249 -237q22 2 44 2q159 0 272 -114.5t107 -273.5zM835 1421
q0 -24 -51 -33q-63 -12 -71 -18q-241 -185 -306 -250q-99 7 -99 47q0 63 142 190.5t207 127.5q11 0 22 -4l94 -11q62 -7 62 -49z" />
    <glyph glyph-name="uni2CCE0301" unicode="&#x2cce;&#x301;" horiz-adv-x="1364" 
d="M1354 834q0 -137 -105.5 -246t-241.5 -109q-39 0 -45 56q172 175 172 303q0 114 -43 241q-53 159 -136 159q-74 0 -107 -93l-507 -1407q-28 -76 -128 -76q-102 0 -169 107q-34 54 -34 91q0 33 83 69q89 38 101 74l396 1131q0 33 -30.5 93t-30.5 76q0 37 80 56
q52 13 107 13q47 0 211 -69q52 -15 157 -46q88 -28 143 -86q127 -134 127 -337zM1148 1743q0 -24 -51 -33q-63 -12 -71 -18q-241 -185 -306 -250q-99 7 -99 47q0 63 141.5 190.5t207.5 127.5q11 0 22 -4l94 -11q62 -7 62 -49z" />
    <glyph glyph-name="uni2CCF0301" unicode="&#x2ccf;&#x301;" horiz-adv-x="1101" 
d="M1091 584q0 -101 -90 -177q-86 -72 -189 -72q-31 0 -36 40q138 122 138 212q0 80 -34 169q-42 110 -109 110q-60 0 -87 -64l-408 -985q-22 -54 -103 -54q-83 0 -136 75q-27 38 -27 64q0 25 66 49q73 27 83 51l318 791q0 23 -24.5 65.5t-24.5 53.5q0 48 150 48
q39 0 86 -17q28 -10 84 -31q42 -10 127 -32q70 -20 114 -60q102 -93 102 -236zM1006 1421q0 -24 -51 -33q-63 -12 -71 -18q-237 -182 -306 -250q-99 7 -99 47q0 63 142 190.5t207 127.5q11 0 22 -4l94 -11q62 -7 62 -49z" />
    <glyph glyph-name="uni2CD00301" unicode="&#x2cd0;&#x301;" horiz-adv-x="1361" 
d="M1311 174q0 -187 -162 -187h-928q-47 0 -103 30q-68 36 -68 80q0 8 62.5 82t62.5 108v758q0 34 -62.5 108.5t-62.5 83.5q0 45 67 92q61 43 104 43q66 0 118 -38q58 -43 58 -107v-1128h594q17 0 26 45q13 58 28 81q30 45 93 45q24 0 69 -14t68 -14q36 0 36 -68zM654 1743
q0 -24 -51 -33q-63 -12 -71 -18q-240 -185 -306 -250q-99 7 -99 47q0 63 142 190.5t207 127.5q11 0 22 -4l94 -11q62 -7 62 -49z" />
    <glyph glyph-name="uni2CD10301" unicode="&#x2cd1;&#x301;" 
d="M1049 120q0 -129 -128 -129h-736q-35 0 -81 21q-54 25 -54 55q0 6 49.5 56.5t49.5 74.5v523q0 23 -49.5 74.5t-49.5 57.5q0 31 53 63q48 30 82 30q49 0 91 -25q49 -29 49 -75v-778h471q13 0 21 31q10 40 22 56q23 31 74 31q18 0 54 -9.5t54 -9.5q28 0 28 -47zM661 1421
q0 -24 -51 -33q-63 -12 -71 -18q-240 -185 -306 -250q-99 7 -99 47q0 63 142 190.5t207 127.5q11 0 22 -4l94 -11q62 -7 62 -49z" />
    <glyph glyph-name="uni2CD20301" unicode="&#x2cd2;&#x301;" horiz-adv-x="977" 
d="M927 441q0 -192 -116 -327q-122 -142 -311 -142q-221 0 -343 202q-107 177 -107 444q0 420 298 746q257 282 468 282q92 0 92 -38q0 -36 -88 -74q-32 -12 -115 -48q-114 -52 -251 -270q-183 -291 -183 -700q0 -162 44 -293q61 -179 180 -179q108 0 167 143q45 111 45 251
q0 127 -172 302q7 56 45 56q137 0 242 -109t105 -246zM612 1743q0 -24 -51 -33q-62 -12 -71 -18q-236 -182 -306 -250q-99 7 -99 47q0 63 142.5 190.5t206.5 127.5q11 0 22 -4l94 -11q62 -7 62 -49z" />
    <glyph glyph-name="uni2CD30301" unicode="&#x2cd3;&#x301;" horiz-adv-x="795" 
d="M745 304q0 -141 -98.5 -232t-240.5 -91q-176 0 -272 140q-84 121 -84 305q0 290 236 515q203 194 371 194q73 0 73 -26t-69 -51q-26 -8 -92 -33q-90 -36 -199 -186q-145 -200 -145 -483q0 -113 35 -202q48 -123 143 -123q86 0 132 98q36 77 36 173q0 88 -137 208
q6 39 36 39q103 0 187 -70q88 -74 88 -175zM705 1421q0 -24 -51 -33q-63 -12 -71 -18q-240 -185 -306 -250q-99 7 -99 47q0 63 142 190.5t207 127.5q11 0 22 -4l94 -11q62 -7 62 -49z" />
    <glyph glyph-name="uni2CD40301" unicode="&#x2cd4;&#x301;" horiz-adv-x="867" 
d="M817 -307q0 -46 -66 -93q-60 -43 -103 -43q-68 0 -121 38q-59 43 -59 108v1081q0 43 -41 111q-45 74 -84 74h-293q36 47 153 255q113 199 185 287q113 135 217 135q44 0 87 -23q53 -28 53 -72q0 -57 -48 -137q-53 -87 -105 -87q-68 0 -166 66l-192 -312h279
q176 0 176 -116v-1082q0 -36 64 -108.5t64 -81.5zM527 1743q0 -24 -51 -33q-63 -12 -71 -18q-240 -185 -306 -250q-99 7 -99 47q0 63 142 190.5t207 127.5q11 0 22 -4l94 -11q62 -7 62 -49z" />
    <glyph glyph-name="uni2CD50301" unicode="&#x2cd5;&#x301;" horiz-adv-x="708" 
d="M658 -231q0 -32 -52 -64q-47 -30 -82 -30q-51 0 -93 25q-50 29 -50 76v841q0 32 -34 80t-64 48h-233q97 145 192 280q131 187 248 187q35 0 69 -16q42 -19 42 -50q0 -40 -41 -95q-42 -59 -80 -59q-54 0 -132 45l-152 -215h221q140 0 140 -80v-842q0 -24 50.5 -74.5
t50.5 -56.5zM587 1421q0 -24 -51 -33q-63 -12 -71 -18q-237 -182 -306 -250q-99 7 -99 47q0 63 142 190.5t207 127.5q11 0 22 -4l94 -11q62 -7 62 -49z" />
    <glyph glyph-name="uni2CD60301" unicode="&#x2cd6;&#x301;" horiz-adv-x="1494" 
d="M1444 439q0 -187 -161 -187h-714l1 -71q2 -130 -65 -228q-75 -111 -199 -111q-110 0 -183 74t-73 184q0 105 63 182q66 82 169 82h66v681q0 35 -62.5 109t-62.5 83q0 44 64 91q60 44 106 44q68 0 120 -37q56 -42 56 -108v-863h555q16 0 27 44q14 60 28 82q30 44 94 44
q23 0 68 -13.5t68 -13.5q35 0 35 -68zM348 177v74q-64 -7 -117 -36q-72 -39 -72 -98q0 -44 31.5 -80.5t75.5 -36.5q82 0 82 177zM841 1743q0 -24 -51 -33q-63 -12 -71 -18q-242 -185 -306 -250q-99 7 -99 47q0 63 142 190.5t207 127.5q11 0 22 -4l94 -11q62 -7 62 -49z" />
    <glyph glyph-name="uni2CD70301" unicode="&#x2cd7;&#x301;" horiz-adv-x="1205" 
d="M1155 303q0 -129 -128 -129h-565l1 -49q2 -93 -57 -162q-61 -72 -153 -72q-83 0 -141 47q-62 50 -62 131q0 77 53.5 129.5t130.5 52.5h52v470q0 23 -49.5 74t-49.5 58q0 31 53 63q48 30 82 30q49 0 91 -25q49 -29 49 -75v-595h440q13 0 21 30q11 43 22 57q23 30 75 30
q18 0 53.5 -9t53.5 -9q28 0 28 -47zM286 122v51q-49 -4 -93 -25q-57 -27 -57 -67q0 -32 26.5 -56.5t58.5 -24.5q65 0 65 122zM796 1421q0 -24 -51 -33q-63 -12 -71 -18q-240 -185 -306 -250q-99 7 -99 47q0 63 142 190.5t207 127.5q11 0 22 -4l94 -11q62 -7 62 -49z" />
    <glyph glyph-name="uni2CD80301" unicode="&#x2cd8;&#x301;" horiz-adv-x="1360" 
d="M1310 123q0 -44 -67 -92q-61 -44 -103 -44h-918q-43 0 -103 43q-66 47 -66 93q0 8 62 82t62 109v731q0 34 -63.5 109t-63.5 82q0 46 66 93q60 43 104 43q63 0 116 -36q64 -43 64 -110l-1 -1093q0 -17 -4 -33h572q-4 16 -4 33v912q0 34 -63.5 109t-63.5 82q0 46 66 93
q60 43 103 43q68 0 121 -38q58 -43 58 -108v-912q0 -35 63 -109t63 -82zM1101 1743q0 -24 -51 -33q-63 -12 -71 -18q-242 -185 -306 -250q-99 7 -99 47q0 63 142 190.5t207 127.5q11 0 22 -4l94 -11q62 -7 62 -49z" />
    <glyph glyph-name="uni2CD90301" unicode="&#x2cd9;&#x301;" 
d="M1049 85q0 -32 -52 -65q-48 -29 -83 -29h-727q-35 0 -83 29q-52 33 -52 65q0 5 49.5 56t49.5 75v505q0 24 -50.5 75t-50.5 57q0 31 53 63q48 30 82 30q50 0 92 -25q50 -29 50 -75v-754q0 -12 -3 -23h453q-3 11 -3 23v629q0 24 -50.5 75t-50.5 57q0 31 53 63q48 30 82 30
q50 0 92 -25q50 -29 50 -75v-630q0 -24 49.5 -75t49.5 -56zM969 1421q0 -24 -51 -33q-63 -12 -71 -18q-240 -185 -306 -250q-99 7 -99 47q0 63 142 190.5t207 127.5q11 0 22 -4l94 -11q62 -7 62 -49z" />
    <glyph glyph-name="uni2CDA0301" unicode="&#x2cda;&#x301;" horiz-adv-x="1719" 
d="M1709 -80q0 -68 -35 -68q-23 0 -68 -13.5t-68 -13.5q-66 0 -94 44q-15 23 -28 82q-10 44 -26 44h-1218q-162 0 -162 187q0 68 36 68q23 0 67.5 13.5t67.5 13.5q65 0 94 -44q16 -23 28 -82q10 -45 26 -44q74 114 194 356l-192 123q-88 56 -88 151q0 50 25 102q22 45 46 45
q6 0 14 -5q19 -13 64.5 -26t65.5 -26q65 -41 65 -108q0 -17 -8.5 -51.5t-8.5 -50.5q0 -14 10 -21l54 -35q131 280 131 366q0 5 -47.5 92.5t-47.5 134.5q0 49 45 118q49 74 95 74h13q29 -7 61 -102q4 -13 41 -129q135 -327 182 -426q104 -220 232 -392q101 -136 111 -145
q52 -45 161 -45q162 0 162 -187zM1107 219q-65 108 -165 297q-115 217 -163 300q-48 -97 -140 -299zM1083 107l-489 311q-88 -190 -155 -311h644zM1194 1743q0 -24 -51 -33q-63 -12 -71 -18q-240 -185 -306 -250q-99 7 -99 47q0 63 142 190.5t207 127.5q11 0 22 -4l94 -11
q62 -7 62 -49z" />
    <glyph glyph-name="uni2CDB0301" unicode="&#x2cdb;&#x301;" horiz-adv-x="1367" 
d="M1357 -55q0 -47 -28 -47q-18 0 -54 -9.5t-54 -9.5q-51 0 -75 31q-12 16 -22 56q-7 30 -21 30h-965q-128 0 -128 130q0 46 28 46q18 0 54 9.5t54 9.5q50 0 74 -31q12 -15 22 -56q8 -31 21 -30q59 79 153 246l-152 84q-70 39 -70 104q0 28 15 61q18 40 42 40q-10 0 63 -20
q32 -9 51 -19q51 -28 51 -74q0 -12 -6.5 -35.5t-6.5 -35.5q0 -10 8 -14l43 -24q103 193 103 253q0 1 -37.5 62t-37.5 94q0 36 38 84.5t73 48.5q8 0 10 -1q24 -5 49 -70q7 -19 32 -89q110 -231 144 -294q83 -153 184 -270q82 -94 89 -100q39 -31 127 -31q129 0 129 -129z
M879 151q-84 138 -259 412q-39 -67 -112 -206zM860 74l-388 215q-70 -132 -122 -215h510zM1048 1421q0 -24 -51 -33q-63 -12 -71 -18q-240 -185 -306 -250q-99 7 -99 47q0 63 142 190.5t207 127.5q11 0 22 -4l94 -11q62 -7 62 -49z" />
    <glyph glyph-name="uni2CDC0301" unicode="&#x2cdc;&#x301;" horiz-adv-x="1163" 
d="M1450 1759q0 -104 -59 -192q-66 -99 -166 -99q-64 0 -216 85q-73 41 -219 124q-49 0 -83 -50q-29 -45 -29 -97q0 -97 113 -217q169 -179 209 -241q112 -175 112 -409q0 -270 -132 -466q-151 -225 -409 -225q-247 0 -392 204q-129 181 -129 438q0 273 135 459
q151 209 414 209q-20 42 -20 86q0 191 87 314q98 139 282 139q30 0 159 -76.5t202 -76.5q21 0 51 72.5t60 72.5t30 -54zM885 552q0 231 -69 408q-90 232 -265 232q-148 0 -221 -157q-56 -123 -56 -310q0 -242 67 -424q91 -243 271 -243q273 0 273 494zM599 1743
q0 -24 -51 -33q-62 -12 -71 -18q-240 -184 -306 -250q-99 7 -99 47q0 65 141 191.5t208 126.5q11 0 22 -4l94 -11q62 -7 62 -49z" />
    <glyph glyph-name="uni2CDD0301" unicode="&#x2cdd;&#x301;" horiz-adv-x="1007" 
d="M1245 1308q0 -82 -54 -147q-56 -69 -137 -69q-55 0 -186 63l-186 92q-40 0 -68 -34t-28 -75q0 -72 96 -161q148 -137 179 -179q96 -129 96 -304q0 -212 -123 -358q-131 -155 -339 -155q-200 0 -325 140q-120 135 -120 337q0 214 126 353q130 143 342 143q-16 31 -16 64
q0 151 81 242q85 94 234 94q27 0 136.5 -57t171.5 -57q18 0 43.5 54t51.5 54q25 0 25 -40zM763 412q0 173 -58 303q-77 172 -227 172q-128 0 -189 -116q-48 -91 -48 -231q0 -180 58 -315q77 -180 231 -180q233 0 233 367zM634 1421q0 -24 -51 -33q-63 -12 -71 -18
q-236 -181 -306 -250q-99 7 -99 47q0 65 141 191.5t208 126.5q11 0 22 -4l94 -11q62 -7 62 -49z" />
    <glyph glyph-name="uni2CDE0301" unicode="&#x2cde;&#x301;" horiz-adv-x="1361" 
d="M1311 1159q0 -69 -36 -69q-23 0 -67.5 -13t-67.5 -13q-66 0 -95 44q-15 24 -28 81q-9 45 -26 45h-594v-1135h385q16 0 26 45q12 58 28 81q29 45 94 45q23 0 67.5 -14t67.5 -14q36 0 36 -68q0 -187 -162 -187h-718q-47 0 -103 30q-68 36 -68 80q0 8 62.5 82t62.5 108v758
q0 34 -62.5 108t-62.5 84q0 42 68 78q58 31 103 31h928q162 0 162 -187zM1005 1743q0 -24 -51 -33q-63 -12 -71 -18q-240 -185 -306 -250q-99 7 -99 47q0 63 142 190.5t207 127.5q11 0 22 -4l94 -11q62 -7 62 -49z" />
    <glyph glyph-name="uni2CDF0301" unicode="&#x2cdf;&#x301;" 
d="M1049 799q0 -47 -28 -47q-18 0 -53.5 -9t-53.5 -9q-52 0 -75 30q-12 15 -22 56q-8 31 -21 31h-471v-783h305q13 0 21 31q10 40 22 56q23 31 74 31q18 0 54 -9.5t54 -9.5q28 0 28 -47q0 -129 -128 -129h-570q-35 0 -81 21q-54 25 -54 55q0 6 49.5 56.5t49.5 74.5v523
q0 23 -49.5 74t-49.5 58q0 29 54 54q46 21 81 21h736q128 0 128 -129zM900 1421q0 -24 -51 -33q-63 -12 -71 -18q-240 -185 -306 -250q-99 7 -99 47q0 63 142 190.5t207 127.5q11 0 22 -4l94 -11q62 -7 62 -49z" />
    <glyph glyph-name="uni2CE00301" unicode="&#x2ce0;&#x301;" horiz-adv-x="1484" 
d="M1434 927q0 -225 -120 -375q-131 -162 -351 -162h-121l1 -535q0 -34 63.5 -108.5t63.5 -81.5q0 -45 -63 -92q-59 -44 -106 -44q-62 0 -117 36q-64 42 -64 109v716h-39q-237 0 -327 116q-79 101 -79 348v199q0 34 -62.5 108.5t-62.5 82.5q0 44 64 91q60 44 107 44
q66 0 118 -38q58 -43 58 -107v-380q0 -184 33 -253q47 -97 190 -99v543q0 125 79 216q82 96 205 96q530 0 530 -430zM1188 851q0 206 -44 289q-54 101 -202 101q-100 0 -100 -137v-602h98q124 0 192 118q56 97 56 231zM1162 1743q0 -24 -51 -33q-63 -12 -71 -18
q-241 -185 -306 -250q-99 7 -99 47q0 63 141.5 190.5t207.5 127.5q11 0 22 -4l94 -11q62 -7 62 -49z" />
    <glyph glyph-name="uni2CE10301" unicode="&#x2ce1;&#x301;" horiz-adv-x="1197" 
d="M1147 639q0 -165 -104 -267.5t-269 -102.5h-96v-369q0 -24 50.5 -75t50.5 -56q0 -32 -52 -64q-47 -30 -82 -30q-50 0 -93 25q-50 28 -50 75v494h-31q-179 0 -250.5 70.5t-71.5 249.5v137q0 23 -49.5 74.5t-49.5 57.5q0 31 53 63q48 30 82 30q49 0 91 -25q49 -29 49 -75
v-262q0 -126 27 -175q37 -67 150 -67v374q0 91 66.5 153t158.5 62q420 0 420 -297zM952 587q0 142 -35 199q-43 70 -160 70q-79 0 -79 -94v-415h78q93 0 147 76q49 68 49 164zM1021 1421q0 -24 -51 -33q-63 -12 -71 -18q-240 -185 -306 -250q-99 7 -99 47q0 63 142 190.5
t207 127.5q11 0 22 -4l94 -11q62 -7 62 -49z" />
    <glyph glyph-name="uni2CE20301" unicode="&#x2ce2;&#x301;" horiz-adv-x="1538" 
d="M1528 1159q0 -69 -36 -69q-23 0 -67.5 -13t-67.5 -13q-64 0 -93 44q-16 23 -29 82q-10 44 -26 44h-215l1 -562q106 -137 106 -374q0 -222 -120 -386q-98 -135 -307 -265q-143 -89 -215 -89q-26 0 -31 30l4 8q10 9 103 75q186 133 275 256q109 152 120 346
q-118 -301 -361 -301q-170 0 -282 132q-105 125 -105 298t117 304q121 136 291 136q99 0 182 -24v416h-442q-16 0 -26 -44q-13 -60 -28 -82q-29 -44 -95 -44q-23 0 -67.5 13t-67.5 13q-36 0 -36 69q0 187 163 187h1193q162 0 162 -187zM772 455v245q-69 62 -143 62
q-38 0 -74 -17q-170 -79 -179 -312q-5 -145 52 -255q65 -123 172 -112q172 17 172 389zM1329 1743q0 -24 -51 -33q-63 -12 -71 -18q-241 -185 -306 -250q-99 7 -99 47q0 63 141.5 190.5t207.5 127.5q11 0 22 -4l94 -11q62 -7 62 -49z" />
    <glyph glyph-name="uni2CE30301" unicode="&#x2ce3;&#x301;" horiz-adv-x="1241" 
d="M1231 797q0 -48 -28 -48q-19 0 -55 -9t-55 -9q-50 0 -74 31q-13 17 -23 57q-8 31 -21 31h-173v-393q86 -96 86 -263q0 -153 -97 -269q-80 -96 -247 -186q-115 -62 -173 -62q-21 0 -24 21l3 5q6 6 82 53q149 92 221 179q89 107 98 242q-96 -210 -291 -210q-130 0 -221 86
t-91 215q0 128 102 219q98 88 227 88q80 0 146 -16v291h-355q-13 0 -21 -31q-11 -41 -23 -57q-24 -31 -76 -31q-19 0 -55 9t-55 9q-28 0 -28 48q0 131 131 131h960q130 0 130 -131zM623 318v172q-55 44 -115 44q-31 0 -60 -12q-136 -56 -143 -219q-4 -95 38 -172
q51 -93 141 -85q139 12 139 272zM1143 1421q0 -24 -51 -33q-63 -12 -71 -18q-240 -185 -306 -250q-99 7 -99 47q0 63 142 190.5t207 127.5q11 0 22 -4l94 -11q62 -7 62 -49z" />
    <glyph glyph-name="uni2CE40301" unicode="&#x2ce4;&#x301;" horiz-adv-x="1034" 
d="M984 95q-1 -2 -3 -10q-17 -63 -163 -201q-78 -74 -223 -153q-161 -88 -247 -88q-29 0 -35 30l4 8q11 9 118 75q132 81 181 120q97 77 142 160q-100 74 -232 215q-125 135 -201 246v-281q0 -25 50.5 -74t50.5 -57q0 -33 -52 -65q-47 -29 -83 -29q-51 0 -93 25
q-49 28 -49 76v629q0 25 -49.5 74t-49.5 58q0 33 52 64q47 29 83 29q49 0 91 -25q49 -29 49 -75v-287q88 128 168 239q107 149 225 149q35 0 69 -16q42 -19 42 -50q0 -40 -41 -95q-42 -59 -80 -59q-15 0 -42 10.5t-42 10.5l-48 24l-152 -215q142 -160 203 -220
q126 -125 231 -186q126 -39 126 -56zM869 1421q0 -22 -50 -33l-9 -2q-29 -7 -62 -16q-246 -190 -306 -250q-100 7 -100 47q0 65 141.5 191.5t208.5 126.5q10 0 22 -4q30 -2 93 -10q62 -11 62 -50z" />
    <glyph glyph-name="uni2CEB0301" unicode="&#x2ceb;&#x301;" horiz-adv-x="1515" 
d="M1465 1049q0 -156 -93 -261q-97 -110 -251 -110q-145 0 -237 100t-92 246q0 157 96 257.5t252 100.5q147 0 236 -93t89 -240zM724 1049q0 -154 -93 -260q-97 -111 -249 -111q-145 0 -238.5 100t-93.5 246q0 157 96 257.5t252 100.5q147 0 236.5 -92.5t89.5 -240.5z
M1297 991q0 119 -39 205q-51 113 -147 113q-156 0 -156 -228q0 -122 41 -213q52 -116 152 -116q149 0 149 239zM558 991q0 116 -41 205q-52 113 -147 113q-154 0 -154 -228q0 -124 39 -213q51 -116 152 -116q151 0 151 239zM1187 1743q0 -24 -51 -33q-63 -12 -71 -18
q-240 -185 -306 -250q-99 7 -99 47q0 63 142 190.5t207 127.5q11 0 22 -4l94 -11q62 -7 62 -49zM1450 393q0 44 -43 104q-47 66 -93 66q-7 0 -82 -63.5t-109 -63.5h-912q-65 0 -107 -57q-39 -53 -39 -120q0 -42 44 -103q48 -67 92 -67q8 0 82.5 62.5t108.5 62.5h912
q65 0 108 59q38 53 38 120z" />
    <glyph glyph-name="uni2CEC0301" unicode="&#x2cec;&#x301;" horiz-adv-x="1075" 
d="M1025 723q0 -107 -64 -180q-66 -76 -172 -76q-100 0 -164 71q-63 68 -63 169q0 107 67 177t173 70q102 0 162.5 -64.5t60.5 -166.5zM515 723q0 -104 -65 -178q-67 -78 -170 -78q-101 0 -165.5 69.5t-64.5 170.5q0 107 67 177t173 70q102 0 163.5 -64.5t61.5 -166.5z
M1017 264q0 -51 -24 -92q-29 -47 -77 -47h-628q-25 0 -76.5 -51t-56.5 -51q-31 0 -65 53q-30 47 -30 82q0 48 27 92q31 51 76 51h629q22 0 73 49t58 49q32 0 63 -50.5t31 -84.5zM910 684q0 81 -25 140q-34 79 -104 79q-106 0 -106 -158q0 -83 28 -147q35 -80 103 -80
q104 0 104 166zM400 684q0 80 -28 141q-36 78 -101 78q-106 0 -106 -158q0 -84 25 -144q34 -83 106 -83q104 0 104 166zM970 1421q0 -24 -51 -33q-63 -12 -71 -18q-240 -185 -306 -250q-99 7 -99 47q0 63 142 190.5t207 127.5q11 0 22 -4l94 -11q62 -7 62 -49z" />
    <glyph glyph-name="uni2CED0301" unicode="&#x2ced;&#x301;" horiz-adv-x="1581" 
d="M1531 123q0 -46 -64 -92q-59 -43 -108 -43q-68 0 -120 38q-57 41 -57 107v96l-391 377l-369 -354q14 -19 66 -74q38 -39 38 -55q0 -46 -66 -93q-60 -42 -104 -42q-69 0 -121 37q-58 42 -58 108v911q0 36 -63.5 110t-63.5 83q0 45 68 92q62 43 103 43q67 0 119 -38
q58 -43 58 -107v-92l393 -381l366 354q-12 16 -65 74q-35 39 -35 55q0 44 63 91q60 44 106 44q66 0 119 -39q60 -43 60 -106v-914q0 -34 63 -108.5t63 -81.5zM1182 375v610l-316 -305zM716 680l-318 307v-614l3 2zM1219 1743q0 -24 -51 -33q-62 -12 -71 -18
q-241 -185 -306 -250q-99 7 -99 47q0 63 142 190.5t207 127.5q11 0 22 -4l94 -11q62 -7 62 -49z" />
    <glyph glyph-name="uni2CEE0301" unicode="&#x2cee;&#x301;" horiz-adv-x="1274" 
d="M1224 86q0 -34 -52 -65q-47 -29 -84 -29q-51 0 -92 24q-49 28 -49 76v66l-309 260l-293 -244q9 -10 53 -51q29 -27 29 -37q0 -34 -51 -65q-46 -29 -82 -29q-53 0 -94 23q-49 28 -49 77v629q0 23 -50.5 74t-50.5 59q0 32 52 63q48 29 83 29q51 0 93 -24q49 -29 49 -76v-64
l311 -264l289 246q-10 14 -49 51q-29 27 -29 39q0 32 52 63q48 29 83 29q51 0 91 -24q48 -28 48 -76v-631q0 -24 50.5 -74.5t50.5 -54.5zM947 258v422l-250 -211zM579 469l-252 213l2 -424zM1066 1421q0 -24 -51 -33q-63 -12 -71 -18q-241 -185 -306 -250q-99 7 -99 47
q0 63 142 190.5t207 127.5q11 0 22 -4l94 -11q62 -7 62 -49z" />
    <glyph glyph-name="uni03E20302" unicode="&#x3e2;&#x302;" horiz-adv-x="1963" 
d="M1237 1534q0 -66 -77 -66q-50 0 -120.5 58.5t-108.5 58.5q-3 0 -43.5 -58.5t-88.5 -58.5q-35 0 -67 23q-35 24 -35 58q0 68 114 104q85 27 172 27q83 0 158 -33q96 -42 96 -113zM1913 565q0 -271 -153 -515q-130 -207 -331 -343q-222 -150 -447 -150q-39 0 -44 43l5 12
q132 43 241 99q260 134 344 302q-94 -41 -198 -41q-151 0 -233 17q-117 24 -216 99q-135 -116 -271 -116q-256 0 -416 224q-144 202 -144 468q0 291 146 493q164 227 445 227q41 0 41 -38q0 -59 -93 -59q-168 0 -248 -193q-52 -126 -52 -311q0 -255 75 -455
q98 -262 291 -262q217 0 217 532v447q0 34 -62 108t-62 83q0 46 62 92q59 44 107 44q69 0 120 -38q57 -42 57 -108v-929q0 -110 96 -176q80 -55 183 -55q167 0 240 182q54 134 54 350q0 249 -74 439q-54 138 -130 197q-34 27 -118 45l-81 18q-15 13 -15 49q0 28 9 35
q10 4 33 4l68 -1q266 -4 418 -260q136 -229 136 -559z" />
    <glyph glyph-name="uni03E30302" unicode="&#x3e3;&#x302;" horiz-adv-x="1577" 
d="M1527 390q0 -337 -268 -591q-76 -72 -223 -152q-163 -89 -247 -89q-29 0 -35 30l4 8q7 7 118 75q218 134 346 338q-74 -28 -157 -28q-130 0 -185 10q-88 16 -171 69q-107 -79 -214 -79q-193 0 -321 143q-124 138 -124 334q0 214 127 353q130 143 342 143q32 0 32 -26
q0 -41 -73 -41q-126 0 -188 -117q-50 -94 -50 -230q0 -173 60 -313q78 -182 229 -182q173 0 173 367v309q0 25 -49.5 74t-49.5 58q0 31 53 63q48 30 82 30q49 0 91 -25q49 -29 49 -75v-641q0 -75 76 -121q65 -39 145 -39q234 0 234 367q0 172 -59 303q-77 172 -226 172
q-47 0 -47 41q0 28 33 27l55 -1q206 -4 329 -186q109 -161 109 -378zM1041 1227q0 -66 -77 -66q-51 0 -121 58.5t-108 58.5q-3 0 -43.5 -58.5t-88.5 -58.5q-35 0 -67 23q-35 24 -35 58q0 68 114 104q85 27 172 27q82 0 158 -33q96 -42 96 -113z" />
    <glyph glyph-name="uni03E40302" unicode="&#x3e4;&#x302;" horiz-adv-x="1477" 
d="M969 1534q0 -66 -77 -66q-50 0 -121 58.5t-109 58.5q-2 0 -42.5 -58.5t-88.5 -58.5q-35 0 -67 23q-36 25 -36 58q0 68 115 104q86 27 172 27q83 0 158 -33q96 -42 96 -113zM1427 -292q0 -46 -76 -93q-69 -43 -119 -43q-73 0 -134 36q-72 42 -72 110v643
q-153 -110 -364 -110q-266 0 -439 169.5t-173 434.5q0 163 87 303t233 214q29 15 57 15q32 0 59 -15q-70 -82 -117 -246q-42 -147 -42 -271q0 -179 102 -337q115 -178 284 -178q124 0 218.5 84.5t94.5 206.5v414q0 36 -72 108.5t-72 82.5q0 44 77 92q71 44 118 44
q73 0 133 -36q71 -42 71 -110v-1327q0 -36 73 -108.5t73 -82.5z" />
    <glyph glyph-name="uni03E50302" unicode="&#x3e5;&#x302;" horiz-adv-x="1050" 
d="M1000 -201q0 -34 -52 -65q-47 -29 -83 -29q-50 0 -92 25q-50 29 -50 75v444q-106 -76 -251 -76q-184 0 -303 116.5t-119 299.5q0 112 60.5 209t160.5 148q20 10 39 10q22 0 41 -10q-49 -56 -81 -169q-29 -101 -29 -188q0 -121 71 -231q80 -124 195 -124q87 0 151.5 57.5
t64.5 143.5v286q0 23 -49.5 75t-49.5 56q0 34 52 65q47 29 83 29q49 0 91 -25q49 -29 49 -75v-916q0 -23 50.5 -75t50.5 -56zM795 1227q0 -66 -77 -66q-50 0 -120.5 58.5t-108.5 58.5q-3 0 -43.5 -58.5t-88.5 -58.5q-35 0 -67 23q-35 24 -35 58q0 68 114 104q85 27 172 27
q83 0 158 -33q96 -42 96 -113z" />
    <glyph glyph-name="uni03E60302" unicode="&#x3e6;&#x302;" horiz-adv-x="1299" 
d="M1061 1534q0 -66 -77 -66q-50 0 -121 58.5t-109 58.5q-2 0 -42.5 -58.5t-88.5 -58.5q-35 0 -67 23q-36 25 -36 58q0 68 115 104q86 27 172 27q83 0 158 -33q96 -42 96 -113zM1249 278q0 -259 -162 -441q-169 -190 -388 -190q-145 0 -329 80q-10 -1 -29 -58
q-9 -28 -26 -69q-30 -43 -93 -43q-18 0 -68.5 13.5t-68.5 13.5q-35 0 -35 68q0 82 40 132q44 55 124 55q156 -69 297 -69q213 0 354 148.5t141 375.5q0 229 -93 387q-97 163 -243 163q-107 0 -190 -86.5t-83 -204.5v-239q0 -38 63.5 -110.5t63.5 -80.5q0 -42 -62 -89
t-108 -47q-66 0 -120 39q-59 43 -59 107v912q0 34 -62.5 108t-62.5 83q0 40 63 90q59 46 107 46q115 0 163 -89q14 -27 14 -57v-403q133 109 316 109q224 0 382 -184q154 -181 154 -454v-16z" />
    <glyph glyph-name="uni03E70302" unicode="&#x3e7;&#x302;" horiz-adv-x="1061" 
d="M1011 192q0 -185 -131 -317t-316 -132q-117 0 -260 55q-14 0 -21 -30q-10 -41 -22 -57q-23 -30 -75 -30q-18 0 -54 9t-54 9q-28 0 -28 47q0 129 130 129q123 -47 235 -47q173 0 286 100q118 104 118 275q0 139 -63 248q-76 131 -215 131q-86 0 -149 -57q-66 -59 -66 -144
l-1 2v-167q0 -23 50.5 -74t50.5 -57q0 -33 -52 -65q-47 -29 -83 -29q-50 0 -92 25q-50 29 -50 76v629q0 23 -49.5 74t-49.5 58q0 31 53 63q48 30 82 30q50 0 91 -25q49 -29 49 -75l1 -279q105 76 250 76q194 0 316 -129q119 -127 119 -322zM834 1227q0 -66 -77 -66
q-50 0 -120.5 58.5t-108.5 58.5q-3 0 -43.5 -58.5t-88.5 -58.5q-35 0 -67 23q-35 24 -35 58q0 68 114 104q85 27 172 27q83 0 158 -33q96 -42 96 -113z" />
    <glyph glyph-name="uni03E80302" unicode="&#x3e8;&#x302;" horiz-adv-x="1248" 
d="M830 1534q0 -66 -76 -66q-51 0 -121.5 58.5t-108.5 58.5q-2 0 -42.5 -58.5t-88.5 -58.5q-35 0 -67 23q-36 25 -36 58q0 67 115 104q84 27 172 27q83 0 158 -33q95 -42 95 -113zM1198 -172q-210 -271 -547 -271q-136 0 -224 28q-100 32 -193 116q-184 165 -184 397
q0 231 200 375q44 32 371 189q200 96 200 208q0 120 -83 265q-94 164 -203 164q-79 0 -132 -59t-53 -138t65 -152q9 -10 128 -115q-11 -56 -53 -56q-157 0 -263 55q-135 70 -135 213q0 167 168 260q138 76 319 76q229 0 372 -127q149 -132 149 -358q0 -153 -197 -240
q-316 -140 -366 -180q-197 -158 -197 -482q0 -147 100.5 -248t247.5 -101q235 0 413 187z" />
    <glyph glyph-name="uni03E90302" unicode="&#x3e9;&#x302;" horiz-adv-x="892" 
d="M842 -139q-145 -187 -377 -187q-179 0 -288 99q-127 115 -127 274q0 89 35 153q21 39 97 124q47 52 156 92q143 52 166 65q78 44 78 119q0 81 -58 183q-64 113 -139 113q-55 0 -91.5 -40t-36.5 -96t45 -105q44 -40 88 -79q-5 -39 -36 -39q-109 0 -182 38q-93 48 -93 147
q0 115 115 179q96 53 221 53q158 0 256 -88q103 -91 103 -247q0 -105 -136 -165q-218 -97 -252 -124q-136 -109 -136 -333q0 -103 68 -180q70 -81 172 -81q162 0 285 129zM669 1227q0 -66 -77 -66q-50 0 -120.5 58.5t-108.5 58.5q-3 0 -43.5 -58.5t-88.5 -58.5q-35 0 -67 23
q-35 24 -35 58q0 68 114 104q85 27 172 27q83 0 158 -33q96 -42 96 -113z" />
    <glyph glyph-name="uni03EA0302" unicode="&#x3ea;&#x302;" horiz-adv-x="1972" 
d="M1192 1534q0 -66 -76 -66q-50 0 -121 58.5t-109 58.5q-2 0 -42.5 -58.5t-88.5 -58.5q-35 0 -67 23q-36 25 -36 58q0 67 115 104q84 27 172 27q83 0 158 -33q95 -42 95 -113zM1962 -80q0 -68 -40 -68q-27 0 -78.5 -13.5t-78.5 -13.5q-75 0 -108 44q-17 23 -32 82
q-11 44 -30 44h-1400q-185 0 -185 187q0 68 40 68q26 0 77.5 13.5t78.5 13.5q75 0 108 -44q18 -24 32 -82q11 -45 30 -44l495 711q-191 279 -202 279q-15 0 -55.5 -15t-60.5 -15q-69 0 -109 76q-13 25 -61 131q-7 11 -7 18q0 36 61 67q53 27 93 27q54 0 129 -24
q84 -27 108 -61l220 -317l220 317q59 85 145 85q40 0 93 -27q61 -31 61 -67q0 -7 -7 -18q-30 -69 -61 -131q-38 -76 -109 -76q-20 0 -60.5 15t-55.5 15q-10 0 -159 -210l409 -590q84 -122 123 -149q58 -41 190 -41q87 0 136.5 -50t49.5 -137zM1349 107l-412 615
q-130 -186 -425 -615h837z" />
    <glyph glyph-name="uni03EB0302" unicode="&#x3eb;&#x302;" horiz-adv-x="1367" 
d="M1357 -55q0 -47 -28 -47q-18 0 -54 -9.5t-54 -9.5q-51 0 -75 31q-12 16 -22 56q-7 30 -21 30h-965q-128 0 -128 130q0 46 28 46q18 0 54 9.5t54 9.5q50 0 74 -31q12 -15 22 -56q8 -31 21 -30l341 490q-131 193 -139 193q-11 0 -39 -10.5t-41 -10.5q-45 0 -76 52l-42 90
q-4 9 -4 13q0 25 42 46q36 19 64 19q38 0 88 -16q58 -18 75 -43l152 -218l152 218q41 59 100 59q28 0 64 -19q42 -21 42 -46q0 -5 -5 -13q-31 -75 -41 -90q-33 -52 -76 -52q-13 0 -41 10.5t-39 10.5q-7 0 -110 -145l282 -407q59 -85 85 -103q40 -28 131 -28q129 0 129 -129z
M934 74l-284 424q-90 -128 -293 -424h577zM954 1227q0 -66 -77 -66q-51 0 -121 58.5t-108 58.5q-3 0 -43.5 -58.5t-88.5 -58.5q-35 0 -67 23q-35 24 -35 58q0 68 114 104q85 27 172 27q82 0 158 -33q96 -42 96 -113z" />
    <glyph glyph-name="uni03EC0302" unicode="&#x3ec;&#x302;" horiz-adv-x="1674" 
d="M964 1534q0 -66 -76 -66q-51 0 -121.5 58.5t-108.5 58.5q-2 0 -42.5 -58.5t-88.5 -58.5q-35 0 -67 23q-36 25 -36 58q0 67 115 104q84 27 172 27q83 0 158 -33q95 -42 95 -113zM1624 1045q0 -134 -129 -134q-114 0 -143 101q-48 168 -65 190q-78 101 -307 101
q-165 0 -307 -54q-162 -61 -252 -178q357 -5 616 -141q328 -172 328 -493q0 -232 -230 -360q-188 -105 -440 -105q-290 0 -471 203q-174 196 -174 489q0 346 322 551q278 177 644 177q233 0 388 -62q220 -88 220 -285zM1084 521q0 218 -253 352q-210 112 -404 112
q-22 0 -45 -2l-15 -1q-40 -90 -40 -199q0 -261 83 -456q112 -262 336 -262q162 0 257 153q81 131 81 303z" />
    <glyph glyph-name="uni03ED0302" unicode="&#x3ed;&#x302;" horiz-adv-x="1185" 
d="M1135 721q0 -93 -89 -93q-78 0 -98 70q-34 116 -45 131q-53 70 -212 70q-261 0 -385 -160q247 -4 425 -97q226 -118 226 -341q0 -160 -159 -248q-130 -72 -303 -72q-201 0 -325 140q-120 134 -120 337q0 238 222 380q191 122 444 122q163 0 268 -42q151 -60 151 -197z
M763 359q0 151 -174 243q-144 76 -310 76h-10q-28 -63 -28 -138q0 -181 57 -315q77 -180 232 -180q113 0 178 105q55 89 55 209zM795 1227q0 -66 -77 -66q-50 0 -120.5 58.5t-108.5 58.5q-3 0 -43.5 -58.5t-88.5 -58.5q-35 0 -67 23q-35 24 -35 58q0 68 114 104
q85 27 172 27q83 0 158 -33q96 -42 96 -113z" />
    <glyph glyph-name="uni03EE0302" unicode="&#x3ee;&#x302;" horiz-adv-x="1662" 
d="M1080 1679q0 -65 -76 -65q-51 0 -121.5 58t-108.5 58q-2 0 -42.5 -58t-88.5 -58q-34 0 -67 23q-36 24 -36 57q0 67 115 104q84 27 172 27q82 0 158 -33q95 -41 95 -113zM1652 911q0 -68 -40 -68q-27 0 -78.5 -13.5t-78.5 -13.5q-75 0 -108 44q-17 23 -32 82
q-11 44 -30 44h-328v-1102q0 -35 73 -109.5t73 -81.5q0 -46 -76 -93q-69 -43 -119 -43q-73 0 -134 36q-72 42 -72 110v1283h-325q-19 0 -30 -44q-14 -59 -32 -82q-33 -44 -109 -44q-26 0 -77.5 13.5t-78.5 13.5q-40 0 -40 68q0 187 186 187h506v191q0 34 -72 108.5t-72 82.5
q0 44 77 92q71 44 119 44q72 0 132 -36q71 -43 71 -110v-372h509q186 0 186 -187z" />
    <glyph glyph-name="uni03EF0302" unicode="&#x3ef;&#x302;" horiz-adv-x="1152" 
d="M820 1335q0 -65 -76 -65q-50 0 -121 58t-109 58q-2 0 -42.5 -58t-88.5 -58q-34 0 -67 23q-36 24 -36 57q0 67 115 104q84 27 172 27q82 0 158 -33q95 -41 95 -113zM1142 628q0 -46 -28 -46q-18 0 -53.5 -9.5t-53.5 -9.5q-52 0 -75 30q-11 14 -22 57q-8 30 -21 30h-226
v-750q0 -24 50.5 -75t50.5 -56q0 -32 -52 -65q-48 -29 -83 -29q-50 0 -92 25q-50 29 -50 75v875h-224q-14 0 -21 -30q-10 -41 -22 -57q-23 -30 -75 -30q-18 0 -54 9.5t-54 9.5q-27 0 -27 46q0 129 128 129h349v283q0 23 -49.5 74.5t-49.5 57.5q0 31 53 63q48 30 82 30
q49 0 91 -25q49 -29 49 -75v-408h351q128 0 128 -129z" />
    <glyph glyph-name="uni2C800302" unicode="&#x2c80;&#x302;" horiz-adv-x="1344" 
d="M607 1534q0 -66 -76 -66q-51 0 -121.5 58.5t-108.5 58.5q-2 0 -42.5 -58.5t-88.5 -58.5q-35 0 -67 23q-36 25 -36 58q0 67 115 104q84 27 172 27q83 0 158 -33q95 -42 95 -113zM1334 123q0 -46 -63 -92q-59 -44 -107 -44q-76 0 -159 113q-21 28 -115 188
q-352 -288 -489 -288q-144 0 -246 95q-105 97 -105 240q0 153 193 308q134 108 315 186q-117 157 -197 216q-63 45 -127 89q-93 71 -93 102q0 45 63 92q60 44 107 44q51 0 101 -50q18 -18 76 -96q191 -258 421 -586q9 -13 97 -168q59 -104 108 -158q8 -9 122 -97
q98 -76 98 -94zM829 393q-64 115 -203 338l-4 1q-118 -64 -212 -148q-133 -119 -133 -216q0 -86 52 -144q54 -61 139 -61q108 0 361 230z" />
    <glyph glyph-name="uni2C810302" unicode="&#x2c81;&#x302;" horiz-adv-x="1078" 
d="M1068 85q0 -32 -52 -64q-47 -30 -82 -30q-59 0 -126 78q-21 25 -92 130q-279 -199 -387 -199q-112 0 -191 58q-88 65 -88 173q0 105 153 212q107 75 250 129q-96 112 -156 149l-99 61q-75 46 -75 71q0 33 52 64q47 29 82 29q56 0 141 -100q102 -120 333 -405
q48 -80 163 -225q6 -5 96 -66q78 -53 78 -65zM668 271q-51 79 -161 233l-3 1q-91 -43 -168 -103q-106 -83 -106 -148q0 -62 44 -101.5t107 -39.5q87 0 287 158zM809 1227q0 -66 -77 -66q-50 0 -120.5 58.5t-108.5 58.5q-3 0 -43.5 -58.5t-88.5 -58.5q-35 0 -67 23
q-35 24 -35 58q0 68 114 104q85 27 172 27q83 0 158 -33q96 -42 96 -113z" />
    <glyph glyph-name="uni2C820302" unicode="&#x2c82;&#x302;" horiz-adv-x="1151" 
d="M831 1534q0 -66 -76 -66q-46 0 -121 58.5t-109 58.5q-3 0 -57.5 -58.5t-73.5 -58.5q-35 0 -67 23q-36 25 -36 58q0 67 115 104q84 27 172 27q84 0 158 -33q95 -42 95 -113zM1101 424q0 -200 -213 -323q-175 -101 -370 -101q-51 0 -101 6q-36 -19 -63 -19q-68 0 -121 38
q-58 42 -58 108v912q0 34 -62.5 109.5t-62.5 81.5q0 44 67 92q62 44 103 44q71 0 127 -46q94 20 228 20q191 0 294 -32q183 -57 183 -216q0 -122 -66 -220.5t-179 -146.5q294 -88 294 -307zM807 1037q0 137 -106 187q-66 31 -205 31q-53 0 -99 -24v-476l187 14
q223 17 223 268zM856 363q0 147 -97 231q-92 80 -241 80q-44 0 -121 -29v-536q72 -21 134 -21q96 0 205 81q120 89 120 194z" />
    <glyph glyph-name="uni2C830302" unicode="&#x2c83;&#x302;" horiz-adv-x="934" 
d="M884 292q0 -143 -171 -224q-141 -67 -314 -67q-30 0 -57 3q-29 -13 -50 -13q-51 0 -93 25q-50 29 -50 76v629q0 22 -49.5 75.5t-49.5 56.5q0 31 53 63q48 30 82 30q57 0 101 -31q75 13 180 13q117 0 213 -32q135 -45 135 -138v-31q0 -91 -40 -142q-36 -48 -124 -81
q234 -60 234 -212zM619 715q0 151 -215 151q-42 0 -79 -17v-329q162 9 203 26q91 38 91 169zM689 250q0 108 -83 165q-72 50 -185 50q-35 0 -96 -20v-370q58 -14 107 -14q77 0 163 56q94 61 94 133zM737 1227q0 -66 -77 -66q-50 0 -120.5 58.5t-108.5 58.5q-3 0 -43.5 -58.5
t-88.5 -58.5q-35 0 -67 23q-35 24 -35 58q0 68 114 104q85 27 172 27q83 0 158 -33q96 -42 96 -113z" />
    <glyph glyph-name="uni2C840302" unicode="&#x2c84;&#x302;" horiz-adv-x="1150" 
d="M849 1534q0 -66 -77 -66q-51 0 -121.5 58.5t-108.5 58.5q-3 0 -43.5 -58.5t-87.5 -58.5q-35 0 -67 23q-36 24 -36 58q0 68 115 104q86 27 172 27q82 0 158 -33q96 -42 96 -113zM1100 1158q0 -68 -35 -68q-23 0 -67.5 -13t-67.5 -13q-66 0 -95 44q-14 20 -27 82
q-10 44 -27 44h-384v-920q0 -32 63.5 -109.5t63.5 -81.5q0 -44 -64 -91q-60 -45 -106 -45q-68 0 -121 38q-58 42 -58 108v912q0 33 -62.5 109.5t-62.5 81.5q0 42 65 78q58 32 105 32h719q161 0 161 -188z" />
    <glyph glyph-name="uni2C850302" unicode="&#x2c85;&#x302;" horiz-adv-x="933" 
d="M883 799q0 -47 -28 -47q-18 0 -54 -9t-54 -9q-51 0 -74 30q-12 15 -22 56q-8 31 -21 31h-305v-635q0 -22 50.5 -76t50.5 -55q0 -32 -52 -64q-47 -30 -82 -30q-51 0 -93 25q-50 29 -50 76v629q0 21 -49.5 75.5t-49.5 56.5q0 30 54 54q47 21 81 21h570q128 0 128 -129z
M737 1227q0 -66 -77 -66q-51 0 -121 58.5t-108 58.5q-3 0 -43.5 -58.5t-88.5 -58.5q-35 0 -67 23q-35 24 -35 58q0 68 114 104q85 27 172 27q82 0 158 -33q96 -42 96 -113z" />
    <glyph glyph-name="uni2C860302" unicode="&#x2c86;&#x302;" horiz-adv-x="1719" 
d="M1016 1534q0 -66 -77 -66q-50 0 -121 58.5t-109 58.5q-2 0 -42.5 -58.5t-88.5 -58.5q-35 0 -67 23q-36 25 -36 58q0 68 115 104q86 27 172 27q83 0 158 -33q96 -42 96 -113zM1709 -80q0 -68 -35 -68q-23 0 -68 -13.5t-68 -13.5q-66 0 -94 44q-15 23 -28 82q-10 44 -26 44
h-1218q-162 0 -162 187q0 68 36 68q23 0 67.5 13.5t67.5 13.5q64 0 94 -44q16 -23 28 -82q10 -45 26 -44q90 140 219 407q153 317 153 413q0 2 -47.5 92.5t-47.5 134.5q0 50 45 118q49 74 95 74h13q29 -7 61 -102q6 -27 41 -129q90 -231 182 -426q104 -220 232 -392
q102 -137 111 -145q52 -45 161 -45q162 0 162 -187zM1176 107q-5 12 -14 26q-82 122 -196 338q-147 278 -187 345q-107 -240 -340 -709h737z" />
    <glyph glyph-name="uni2C870302" unicode="&#x2c87;&#x302;" horiz-adv-x="1367" 
d="M1357 -55q0 -47 -28 -47q-18 0 -54 -9.5t-54 -9.5q-51 0 -75 31q-12 16 -22 56q-7 30 -21 30h-965q-128 0 -128 130q0 46 28 46q18 0 54 9.5t54 9.5q50 0 74 -31q12 -15 22 -56q8 -31 21 -30q73 99 173 280q121 219 121 286q0 -39 -37.5 48.5t-37.5 107.5q0 38 37 85.5
t74 47.5q8 0 10 -1q24 -5 49 -70q6 -18 32 -89q110 -232 144 -294q82 -153 184 -270q82 -94 89 -100q39 -31 127 -31q129 0 129 -129zM934 74q-44 62 -167 251l-147 238q-86 -166 -270 -489h584zM882 1227q0 -66 -77 -66q-50 0 -120.5 58.5t-108.5 58.5q-3 0 -43.5 -58.5
t-88.5 -58.5q-35 0 -67 23q-35 24 -35 58q0 68 114 104q85 27 172 27q83 0 158 -33q96 -42 96 -113z" />
    <glyph glyph-name="uni2C880302" unicode="&#x2c88;&#x302;" horiz-adv-x="1087" 
d="M917 1534q0 -66 -77 -66q-50 0 -121 58.5t-109 58.5q-2 0 -42.5 -58.5t-88.5 -58.5q-35 0 -67 23q-36 25 -36 58q0 68 115 104q86 27 172 27q83 0 158 -33q96 -42 96 -113zM1037 301q0 -155 -152 -250q-126 -79 -274 -79q-263 0 -421 221q-140 196 -140 471
q0 292 146 494q164 226 446 226q142 0 260 -85q135 -98 135 -253q0 -135 -112 -135q-95 0 -123 97q-5 19 -48 181q-43 98 -165 98q-151 0 -229 -154q-63 -124 -70 -314h383q161 0 161 -188q0 -68 -35 -68q-23 0 -68 -13t-68 -13q-65 0 -94 44q-14 20 -27 82q-10 44 -27 44
h-223q13 -242 83 -414q92 -226 254 -226q100 0 134 95q17 77 42 178q24 96 120 96q112 0 112 -135z" />
    <glyph glyph-name="uni2C890302" unicode="&#x2c89;&#x302;" horiz-adv-x="883" 
d="M833 208q0 -107 -121 -173q-99 -54 -217 -54q-201 0 -326 140q-119 134 -119 337q0 216 126 353q129 143 343 143q114 0 207 -58q107 -67 107 -175q0 -93 -89 -93q-76 0 -98 68q-12 37 -38 124q-34 67 -130 67q-120 0 -182 -106q-50 -85 -55 -216h303q128 0 128 -130
q0 -46 -28 -46q-18 0 -54 -9.5t-54 -9.5q-51 0 -74 30q-11 14 -22 57q-8 30 -21 30h-177q11 -167 66 -285q73 -156 202 -156q79 0 106 66q17 61 33 123q24 66 95 66q89 0 89 -93zM776 1227q0 -66 -77 -66q-51 0 -121 58.5t-108 58.5q-3 0 -43.5 -58.5t-88.5 -58.5
q-35 0 -67 23q-35 24 -35 58q0 68 114 104q85 27 172 27q82 0 158 -33q96 -42 96 -113z" />
    <glyph glyph-name="uni2C8A0302" unicode="&#x2c8a;&#x302;" horiz-adv-x="1272" 
d="M785 1534q0 -66 -77 -66q-50 0 -121 58.5t-109 58.5q-2 0 -42.5 -58.5t-88.5 -58.5q-35 0 -67 23q-36 25 -36 58q0 68 115 104q86 27 172 27q83 0 158 -33q96 -42 96 -113zM1222 1297q0 -140 -79 -259q-89 -134 -222 -134q-89 0 -336 141l-251 141q-67 0 -111 -68
q-39 -59 -39 -130q0 -102 83 -215q46 -62 175 -191q116 -115 150 -174q161 -276 161 -454q0 -77 -57 -207q-21 -47 -46 -71q-41 -38 -114 -68t-128 -30q-46 0 -46 48q0 51 105 67q113 18 126 52q26 67 26 147q0 118 -87 187q-215 170 -314 289q-168 201 -168 401
q0 259 116 423q133 187 381 187q77 0 148 -53l133 -99q90 -53 204 -53q46 0 60 50q6 20 22 94q18 51 69 51q39 0 39 -72z" />
    <glyph glyph-name="uni2C8B0302" unicode="&#x2c8b;&#x302;" horiz-adv-x="1029" 
d="M979 894q0 -104 -67 -184q-70 -86 -172 -86q-71 0 -266.5 97t-197.5 97q-51 0 -85.5 -42.5t-34.5 -94.5q0 -70 67 -148q37 -43 138 -131q92 -80 119 -120q128 -190 128 -313q0 -56 -45 -144q-16 -31 -37 -48q-85 -68 -192 -68q-36 0 -36 33q0 34 83 46q89 12 100 36
q21 46 21 102q0 80 -69 128q-175 121 -250 199q-133 138 -133 278q0 190 101 302q105 118 293 118q32 0 169.5 -71t215.5 -71q23 0 54.5 67.5t64.5 67.5q31 0 31 -50zM698 1227q0 -66 -77 -66q-51 0 -121 58.5t-108 58.5q-3 0 -43.5 -58.5t-88.5 -58.5q-35 0 -67 23
q-35 24 -35 58q0 68 114 104q85 27 172 27q83 0 158 -33q96 -42 96 -113z" />
    <glyph glyph-name="uni2C8C0302" unicode="&#x2c8c;&#x302;" horiz-adv-x="1288" 
d="M806 1534q0 -66 -77 -66q-50 0 -121 58.5t-109 58.5q-2 0 -42.5 -58.5t-88.5 -58.5q-35 0 -67 23q-36 25 -36 58q0 68 115 104q86 27 172 27q83 0 158 -33q96 -42 96 -113zM1278 -75q0 -69 -35 -69q-23 0 -68.5 -13t-68.5 -13q-64 0 -93 40q-15 21 -28 77q-10 45 -28 53
q-133 58 -415 58q-198 0 -532 -58l777 1243l-180 -19q-45 -5 -171 -27q-108 -19 -171 -19q-115 0 -168 37q-65 44 -65 155q0 68 35 68q23 0 68 13t68 13q76 0 98 -47l26 -87q22 -48 98 -48q54 0 141 22q104 26 140 31l408 54l-783 -1251q193 27 313 27q118 0 470 -53
q88 -13 126 -55.5t38 -131.5z" />
    <glyph glyph-name="uni2C8D0302" unicode="&#x2c8d;&#x302;" horiz-adv-x="1025" 
d="M1015 -52q0 -47 -28 -47q-18 0 -54 -9t-54 -9q-51 0 -74 27q-12 14 -22 53q-8 32 -22 37q-108 40 -329 40q-157 0 -422 -40l616 857l-143 -13q-30 -3 -135 -19q-78 -12 -136 -12q-185 0 -185 132q0 47 28 47q18 0 54 9t54 9q44 0 88 -63t88 -63q43 0 112 15q89 19 111 22
l323 37l-620 -863q153 19 248 19q90 0 372 -37q130 -17 130 -129zM699 1227q0 -66 -77 -66q-50 0 -120 58.5t-109 58.5q-3 0 -43.5 -58.5t-88.5 -58.5q-35 0 -67 23q-35 24 -35 58q0 68 114 104q85 27 172 27q83 0 158 -33q96 -42 96 -113z" />
    <glyph glyph-name="uni2C8E0302" unicode="&#x2c8e;&#x302;" horiz-adv-x="1360" 
d="M924 1534q0 -66 -76 -66q-51 0 -121.5 58.5t-108.5 58.5q-3 0 -43 -58.5t-88 -58.5q-35 0 -67 23q-36 25 -36 58q0 67 115 104q84 27 172 27q83 0 158 -33q95 -42 95 -113zM1310 123q0 -44 -67 -92q-61 -44 -103 -44q-67 0 -121 38q-59 43 -59 108v486h-563v-305
q0 -32 63.5 -109.5t63.5 -81.5q0 -44 -64 -91q-60 -45 -106 -45q-68 0 -121 38q-58 42 -58 108v912q0 33 -62.5 109.5t-62.5 81.5q0 46 66 93q60 43 104 43q68 0 120 -38q57 -42 57 -108v-495h563v314q0 33 -62 109.5t-62 81.5q0 46 66 93q60 43 103 43q68 0 120 -38
q58 -42 58 -108v-912q0 -32 63.5 -109.5t63.5 -81.5z" />
    <glyph glyph-name="uni2C8F0302" unicode="&#x2c8f;&#x302;" 
d="M1049 85q0 -34 -52 -65q-47 -29 -83 -29q-51 0 -93 25q-49 28 -49 76v335h-447v-211q0 -22 50.5 -76t50.5 -55q0 -32 -52 -64q-47 -30 -82 -30q-51 0 -93 25q-50 29 -50 76v629q0 21 -49.5 75.5t-49.5 56.5q0 31 53 63q48 30 82 30q49 0 91 -25q49 -29 49 -75v-342h447
v217q0 21 -49.5 75.5t-49.5 56.5q0 31 53 63q48 30 82 30q49 0 91 -25q49 -29 49 -75v-630q0 -22 50.5 -76t50.5 -55zM790 1227q0 -66 -77 -66q-50 0 -120 58.5t-109 58.5q-2 0 -42.5 -58.5t-89.5 -58.5q-35 0 -67 23q-35 24 -35 58q0 68 114 104q86 27 172 27q83 0 158 -33
q96 -42 96 -113z" />
    <glyph glyph-name="uni2C900302" unicode="&#x2c90;&#x302;" horiz-adv-x="1243" 
d="M895 1534q0 -66 -76 -66q-52 0 -122 58.5t-108 58.5q-3 0 -43.5 -58.5t-87.5 -58.5q-35 0 -67 23q-36 24 -36 58q0 67 115 104q84 27 172 27q83 0 158 -33q95 -42 95 -113zM1193 717q0 -302 -157 -517q-167 -228 -426 -228q-264 0 -421 221q-139 196 -139 471
q0 292 146 494q164 226 445 226q266 0 417 -206q135 -185 135 -461zM940 750q-24 220 -99 360q-95 177 -252 177q-160 0 -238 -170q-62 -135 -62 -334v-33h651zM949 598q0 20 -1 40h-652q23 -234 98 -382q96 -190 261 -190q294 0 294 532z" />
    <glyph glyph-name="uni2C910302" unicode="&#x2c91;&#x302;" horiz-adv-x="1007" 
d="M957 494q0 -213 -123 -359q-130 -154 -339 -154q-201 0 -326 140q-119 134 -119 337q0 216 126 353q129 143 343 143q201 0 321 -131q117 -126 117 -329zM756 517q-18 147 -75 243q-75 127 -203 127q-127 0 -189 -117q-49 -92 -49 -230v-23h516zM763 412q0 14 -1 28h-516
q17 -159 77 -263q76 -132 206 -132q234 0 234 367zM774 1227q0 -66 -77 -66q-51 0 -121 58.5t-108 58.5q-3 0 -43.5 -58.5t-88.5 -58.5q-35 0 -67 23q-35 24 -35 58q0 68 114 104q85 27 172 27q82 0 158 -33q96 -42 96 -113z" />
    <glyph glyph-name="uni2C920302" unicode="&#x2c92;&#x302;" horiz-adv-x="574" 
d="M524 123q0 -44 -64 -91q-60 -45 -106 -45q-68 0 -121 38q-58 42 -58 108v912q0 33 -62.5 109.5t-62.5 81.5q0 46 66 93q60 43 104 43q68 0 120 -38q57 -42 57 -108v-912q0 -32 63.5 -109.5t63.5 -81.5zM541 1534q0 -66 -77 -66q-50 0 -121 58.5t-109 58.5
q-2 0 -42.5 -58.5t-88.5 -58.5q-35 0 -67 23q-36 25 -36 58q0 68 115 104q86 27 172 27q83 0 158 -33q96 -42 96 -113z" />
    <glyph glyph-name="uni2C930302" unicode="&#x2c93;&#x302;" horiz-adv-x="476" 
d="M426 85q0 -32 -52 -64q-47 -30 -82 -30q-51 0 -93 25q-50 29 -50 76v629q0 21 -49.5 75.5t-49.5 56.5q0 31 53 63q48 30 82 30q49 0 91 -25q49 -29 49 -75v-630q0 -22 50.5 -76t50.5 -55zM508 1227q0 -66 -77 -66q-50 0 -120.5 58.5t-108.5 58.5q-3 0 -43.5 -58.5
t-88.5 -58.5q-35 0 -67 23q-35 24 -35 58q0 68 114 104q85 27 172 27q83 0 158 -33q96 -42 96 -113z" />
    <glyph glyph-name="uni2C940302" unicode="&#x2c94;&#x302;" horiz-adv-x="1274" 
d="M780 1534q0 -66 -76 -66q-51 0 -121.5 58.5t-108.5 58.5q-2 0 -42.5 -58.5t-88.5 -58.5q-35 0 -67 23q-36 25 -36 58q0 67 115 104q84 27 172 27q83 0 158 -33q95 -42 95 -113zM1224 123q0 -46 -63 -92q-59 -44 -107 -44q-82 0 -345 315q-221 265 -313 419v-407
q0 -34 63.5 -108t63.5 -83q0 -45 -63 -92q-59 -44 -106 -44q-69 0 -121 38q-59 42 -59 108v912q0 34 -62 107.5t-62 83.5q0 46 66 93q60 43 104 43q67 0 119 -39q57 -42 57 -107v-416q44 55 146 234q91 159 153 227q93 102 197 102q42 0 86 -24q54 -29 54 -72
q0 -55 -49 -136q-53 -87 -104 -87q-19 0 -53.5 15t-51.5 16l-61 35l-191 -312q104 -134 203 -249q228 -264 344 -340l89 -39q66 -29 66 -57z" />
    <glyph glyph-name="uni2C950302" unicode="&#x2c95;&#x302;" horiz-adv-x="1031" 
d="M981 85q0 -32 -52 -64q-47 -30 -82 -30q-66 0 -274 217q-171 179 -248 289v-281q0 -22 50.5 -74.5t50.5 -56.5q0 -34 -52 -65q-47 -29 -83 -29q-51 0 -93 25q-49 28 -49 76v629q0 22 -49.5 74.5t-49.5 57.5q0 33 52 64q47 29 83 29q49 0 91 -25q49 -29 49 -75v-287
q39 43 115 161q70 109 121 157q74 70 157 70q33 0 68 -16q43 -20 43 -50q0 -40 -41 -95q-42 -59 -80 -59q-15 0 -42 10.5t-42 10.5l-48 24l-152 -215q293 -327 434 -406q123 -46 123 -66zM689 1227q0 -66 -77 -66q-50 0 -120 58.5t-109 58.5q-3 0 -43.5 -58.5t-88.5 -58.5
q-35 0 -67 23q-35 24 -35 58q0 68 114 104q86 27 172 27q83 0 158 -33q96 -42 96 -113z" />
    <glyph glyph-name="uni2C960302" unicode="&#x2c96;&#x302;" horiz-adv-x="1257" 
d="M998 1534q0 -66 -76 -66q-50 0 -121 58.5t-109 58.5q-3 0 -43 -58.5t-88 -58.5q-35 0 -67 23q-36 25 -36 58q0 67 115 104q84 27 172 27q83 0 158 -33q95 -42 95 -113zM1247 123q0 -39 -62.5 -87.5t-107.5 -48.5q-139 0 -348 464l-158 351l-304 -669q-43 -94 -138 -134
q-29 -12 -54 -12q-23 0 -44 29t-21 62q0 50 74 118q97 90 110 118l297 653q-137 265 -267 379l-101 89q-68 60 -68 102q0 40 61 89q59 46 108 46q99 0 281 -302q96 -159 320 -604q58 -116 117 -232q75 -143 135 -220l96 -96q71 -71 74 -95z" />
    <glyph glyph-name="uni2C970302" unicode="&#x2c97;&#x302;" horiz-adv-x="1001" 
d="M991 85q0 -30 -48.5 -62t-86.5 -32q-108 0 -276 320q-13 25 -40 77l-85 165l-242 -461q-21 -40 -64 -69q-45 -32 -88 -32q-51 0 -51 63q0 34 59 81q75 60 86 81l236 451q-111 185 -211 261l-79 60q-56 43 -56 72q0 27 51 61q48 32 84 32q80 0 223 -208q73 -106 253 -417
q147 -254 200 -312l75 -65q60 -52 60 -66zM587 1227q0 -66 -77 -66q-51 0 -121 58.5t-108 58.5q-3 0 -43.5 -58.5t-88.5 -58.5q-35 0 -67 23q-35 24 -35 58q0 68 114 104q85 27 172 27q83 0 158 -33q96 -42 96 -113z" />
    <glyph glyph-name="uni2C980302" unicode="&#x2c98;&#x302;" horiz-adv-x="1529" 
d="M1015 1534q0 -66 -77 -66q-45 0 -120.5 58.5t-109.5 58.5q6 0 -42.5 -58.5t-88.5 -58.5q-35 0 -67 23q-36 25 -36 58q0 68 115 104q86 27 172 27q83 0 158 -33q96 -42 96 -113zM1479 123q0 -46 -62 -92q-58 -44 -106 -44q-71 0 -122 37q-58 41 -58 109v762
q-19 -178 -120 -326q-110 -161 -246 -161t-247 161q-102 148 -121 326v-582q0 -30 63.5 -109t63.5 -81q0 -46 -60.5 -91t-108.5 -45q-69 0 -121 38q-59 42 -59 108v912q0 30 -62.5 109t-62.5 83q0 45 64 91q60 44 107 44q67 0 115.5 -40t60.5 -105q53 -281 109 -430
q103 -276 249 -276q240 0 375 533q-4 29 -64 104q-60 72 -60 79q0 45 66 92q60 43 103 43q69 0 121 -37q57 -41 57 -108v-914q0 -30 63 -109t63 -81z" />
    <glyph glyph-name="uni2C990302" unicode="&#x2c99;&#x302;" horiz-adv-x="1233" 
d="M1183 85q0 -32 -52 -64q-47 -30 -82 -30q-51 0 -93 25q-49 28 -49 76v525q-15 -122 -95 -224q-88 -112 -195 -112q-112 0 -200 115q-77 101 -92 221v-401q0 -21 50.5 -75t50.5 -56q0 -32 -52 -64q-47 -30 -82 -30q-51 0 -93 25q-50 29 -50 76v629q0 21 -49.5 75t-49.5 57
q0 33 52 64q47 29 83 29q118 0 140 -100q107 -487 284 -487q190 0 297 368q-4 20 -51 70.5t-47 55.5q0 31 52 63q48 30 82 30q50 0 92 -25q49 -28 49 -75v-630q0 -21 50 -75t50 -56zM867 1227q0 -66 -77 -66q-51 0 -121 58.5t-108 58.5q-3 0 -43.5 -58.5t-88.5 -58.5
q-35 0 -67 23q-35 24 -35 58q0 68 114 104q85 27 172 27q83 0 158 -33q96 -42 96 -113z" />
    <glyph glyph-name="uni2C9A0302" unicode="&#x2c9a;&#x302;" horiz-adv-x="1361" 
d="M919 1534q0 -66 -76 -66q-51 0 -121.5 58.5t-108.5 58.5q-3 0 -43.5 -58.5t-87.5 -58.5q-35 0 -67 23q-36 25 -36 58q0 67 115 104q84 27 172 27q83 0 158 -33q95 -42 95 -113zM1311 123q0 -45 -64 -92q-60 -44 -107 -44q-69 0 -121 38q-58 41 -58 108v96l-564 758v-674
q0 -33 63.5 -109t63.5 -81q0 -46 -60.5 -91t-108.5 -45q-69 0 -121 38q-59 42 -59 108v912q0 33 -62.5 109.5t-62.5 82.5q0 45 67 92q61 43 104 43q67 0 119 -38q57 -42 57 -107v-93l564 -760v671q0 32 -62.5 109t-62.5 83q0 46 63 92q59 43 107 43q69 0 120 -37
q57 -41 57 -108v-914q0 -32 64 -109t64 -81z" />
    <glyph glyph-name="uni2C9B0302" unicode="&#x2c9b;&#x302;" 
d="M1049 85q0 -33 -52 -65q-47 -29 -83 -29q-51 0 -93 25q-49 28 -49 76v66l-447 523v-465q0 -23 50.5 -75.5t50.5 -55.5q0 -32 -52 -64q-47 -30 -82 -30q-51 0 -93 25q-50 29 -50 76v629q0 22 -49.5 74.5t-49.5 57.5q0 31 53 63q48 30 82 30q49 0 91 -25q49 -29 49 -75v-64
l447 -524v463q0 22 -49.5 75t-49.5 57q0 33 52 64q47 29 83 29q49 0 91 -25q49 -29 49 -75v-630q0 -23 50.5 -75.5t50.5 -55.5zM790 1227q0 -66 -77 -66q-50 0 -120 58.5t-109 58.5q-2 0 -42.5 -58.5t-89.5 -58.5q-35 0 -67 23q-35 24 -35 58q0 68 114 104q86 27 172 27
q83 0 158 -33q96 -42 96 -113z" />
    <glyph glyph-name="uni2C9C0302" unicode="&#x2c9c;&#x302;" horiz-adv-x="1267" 
d="M784 1534q0 -66 -77 -66q-50 0 -121 58.5t-109 58.5q-3 0 -43 -58.5t-88 -58.5q-35 0 -67 23q-36 25 -36 58q0 68 115 104q86 27 172 27q83 0 158 -33q96 -42 96 -113zM1257 -75q0 -69 -36 -69q-23 0 -68.5 -13t-68.5 -13q-63 0 -91 37q-14 19 -27 75q-11 47 -30 58
q-45 26 -201 44q-122 14 -214 14q-255 0 -477 -58q220 153 425 319q335 270 335 351q0 67 -135 67q-75 0 -216.5 -49.5t-216.5 -49.5l512 602l-163 -16q-43 -4 -170 -27q-106 -19 -172 -19q-114 0 -168 37q-65 45 -65 155q0 68 36 68q23 0 67.5 13t67.5 13q74 0 98 -47
q13 -44 27 -87q23 -48 98 -48q55 0 141 21q121 30 140 32l407 54l-473 -574q13 3 82 17q48 10 82 10q222 0 222 -134q0 -102 -189 -304q-124 -133 -273 -253q92 21 173 21t189 -22l187 -38q87 -18 121 -51q44 -43 44 -136z" />
    <glyph glyph-name="uni2C9D0302" unicode="&#x2c9d;&#x302;" horiz-adv-x="1008" 
d="M998 -52q0 -47 -28 -47q-18 0 -54 -9t-54 -9q-69 0 -87 50q-22 62 -31 67q-76 40 -329 40q-202 0 -378 -40q602 367 602 462q0 46 -106 46q-59 0 -172 -34t-172 -34l406 415l-129 -11q-39 -3 -135 -18q-85 -13 -136 -13q-185 0 -185 132q0 47 28 47q18 0 54 9t54 9
q42 0 87.5 -63t88.5 -63t112 15q91 20 111 22l323 37l-375 -396q15 3 65 12q37 7 65 7q176 0 176 -93q0 -71 -150 -209q-96 -88 -216 -175q72 14 137 14q43 0 298 -41q68 -11 96 -35q34 -30 34 -94zM682 1227q0 -66 -77 -66q-50 0 -120.5 58.5t-108.5 58.5q-3 0 -43.5 -58.5
t-88.5 -58.5q-35 0 -67 23q-35 24 -35 58q0 68 114 104q85 27 172 27q83 0 158 -33q96 -42 96 -113z" />
    <glyph glyph-name="uni2C9E0302" unicode="&#x2c9e;&#x302;" horiz-adv-x="1244" 
d="M902 1534q0 -66 -77 -66q-51 0 -121.5 58.5t-108.5 58.5q-3 0 -43.5 -58.5t-87.5 -58.5q-35 0 -67 23q-36 24 -36 58q0 68 115 104q86 27 172 27q82 0 158 -33q96 -42 96 -113zM1194 717q0 -301 -158 -517q-167 -228 -425 -228q-263 0 -421 221q-140 196 -140 471
q0 292 146 494q164 226 446 226q266 0 417 -206q135 -185 135 -461zM949 598q0 248 -74 439q-97 250 -286 250q-159 0 -237 -170q-62 -135 -62 -334q0 -259 73 -455q98 -262 292 -262q294 0 294 532z" />
    <glyph glyph-name="uni2C9F0302" unicode="&#x2c9f;&#x302;" horiz-adv-x="1007" 
d="M957 494q0 -213 -123 -359q-130 -154 -339 -154q-201 0 -326 140q-119 134 -119 337q0 216 126 353q129 143 343 143q201 0 321 -131q117 -126 117 -329zM763 412q0 171 -59 303q-77 172 -226 172q-128 0 -189 -116q-48 -91 -48 -231q0 -178 58 -314q77 -181 231 -181
q233 0 233 367zM774 1227q0 -66 -77 -66q-51 0 -121 58.5t-108 58.5q-3 0 -43.5 -58.5t-88.5 -58.5q-35 0 -67 23q-35 24 -35 58q0 68 114 104q85 27 172 27q82 0 158 -33q96 -42 96 -113z" />
    <glyph glyph-name="uni2CA00302" unicode="&#x2ca0;&#x302;" horiz-adv-x="1360" 
d="M924 1534q0 -66 -76 -66q-51 0 -121.5 58.5t-108.5 58.5q-3 0 -43 -58.5t-88 -58.5q-35 0 -67 23q-36 25 -36 58q0 67 115 104q84 27 172 27q83 0 158 -33q95 -42 95 -113zM1310 123q0 -44 -67 -92q-61 -44 -103 -44q-67 0 -121 38q-59 43 -59 108v1067q0 17 5 33h-572
q4 -16 4 -33v-886q0 -32 63.5 -109.5t63.5 -81.5q0 -44 -64 -91q-60 -45 -106 -45q-68 0 -121 38q-58 42 -58 108v886q0 32 -62.5 109t-62.5 82q0 46 66 93q60 43 104 43h917q44 0 104 -43q66 -47 66 -93q0 -6 -62 -82.5t-62 -108.5v-705q0 -32 63.5 -109.5t63.5 -81.5z" />
    <glyph glyph-name="uni2CA10302" unicode="&#x2ca1;&#x302;" 
d="M1049 85q0 -34 -52 -65q-47 -29 -83 -29q-51 0 -93 25q-49 28 -49 76v736q0 11 4 22h-454q3 -11 3 -22v-612q0 -22 50.5 -76t50.5 -55q0 -32 -52 -64q-47 -30 -82 -30q-51 0 -93 25q-50 29 -50 76v611q0 22 -49.5 76t-49.5 55q0 34 52 65q47 29 83 29h727q36 0 83 -29
q52 -31 52 -65q0 -1 -49.5 -55t-49.5 -76v-487q0 -22 50.5 -76t50.5 -55zM803 1227q0 -66 -77 -66q-51 0 -121 58.5t-108 58.5q-3 0 -43.5 -58.5t-88.5 -58.5q-35 0 -67 23q-35 24 -35 58q0 68 114 104q85 27 172 27q82 0 158 -33q96 -42 96 -113z" />
    <glyph glyph-name="uni2CA20302" unicode="&#x2ca2;&#x302;" horiz-adv-x="1151" 
d="M793 1534q0 -66 -76 -66q-51 0 -121.5 58.5t-108.5 58.5q-2 0 -42.5 -58.5t-88.5 -58.5q-35 0 -67 23q-36 25 -36 58q0 67 115 104q84 27 172 27q84 0 158 -33q95 -42 95 -113zM1101 927q0 -199 -158 -357q-173 -172 -425 -172q-62 0 -121 11v-525q0 -33 63.5 -110
t63.5 -82q0 -45 -61.5 -90t-108.5 -45q-68 0 -120 38q-59 42 -59 107v1343q0 33 -62.5 109.5t-62.5 81.5q0 46 66 93q60 43 104 43q69 0 123 -43q97 25 206 25q207 0 361 -93q191 -116 191 -334zM856 851q0 151 -74 255q-96 135 -286 135q-53 0 -99 -31v-701q-12 0 76 -5
q53 -3 89 6q106 27 195 120q99 104 99 221z" />
    <glyph glyph-name="uni2CA30302" unicode="&#x2ca3;&#x302;" horiz-adv-x="934" 
d="M884 639q0 -136 -126 -246q-137 -119 -337 -119q-49 0 -96 8v-382q0 -23 50.5 -75.5t50.5 -55.5q0 -32 -52 -64q-47 -30 -82 -30q-49 0 -92 25q-51 29 -51 75v946q0 22 -49.5 75t-49.5 57q0 31 53 63q48 30 82 30q55 0 98 -29q76 17 162 17q166 0 287 -64
q152 -80 152 -231zM689 587q0 103 -59 176q-75 93 -226 93q-42 0 -79 -21v-484q-17 0 60 -4q39 -2 71 5q85 19 155 83q78 72 78 152zM698 1227q0 -66 -77 -66q-50 0 -120 58.5t-109 58.5q-2 0 -42.5 -58.5t-89.5 -58.5q-35 0 -67 23q-35 24 -35 58q0 68 114 104
q86 27 172 27q83 0 158 -33q96 -42 96 -113z" />
    <glyph glyph-name="uni2CA40302" unicode="&#x2ca4;&#x302;" horiz-adv-x="1087" 
d="M913 1534q0 -66 -77 -66q-50 0 -121 58.5t-109 58.5q-2 0 -42.5 -58.5t-88.5 -58.5q-35 0 -67 23q-36 25 -36 58q0 68 115 104q86 27 172 27q83 0 158 -33q96 -42 96 -113zM1037 301q0 -155 -152 -250q-126 -79 -274 -79q-263 0 -421 221q-140 196 -140 471
q0 292 146 494q164 226 446 226q142 0 260 -85q135 -98 135 -253q0 -135 -112 -135q-95 0 -123 97q-5 19 -48 181q-43 98 -165 98q-159 0 -237 -170q-62 -135 -62 -334q0 -244 69 -446q92 -270 270 -270q100 0 134 95q17 77 42 178q24 96 120 96q112 0 112 -135z" />
    <glyph glyph-name="uni2CA50302" unicode="&#x2ca5;&#x302;" horiz-adv-x="883" 
d="M833 208q0 -107 -121 -173q-99 -54 -217 -54q-201 0 -326 140q-119 134 -119 337q0 216 126 353q129 143 343 143q114 0 207 -58q107 -67 107 -175q0 -93 -89 -93q-76 0 -98 68q-12 37 -38 124q-34 67 -130 67q-126 0 -188 -117q-49 -92 -49 -230q0 -170 54 -308
q73 -186 215 -186q79 0 106 66q17 61 33 123q24 66 95 66q89 0 89 -93zM773 1227q0 -66 -77 -66q-50 0 -120.5 58.5t-108.5 58.5q-3 0 -43.5 -58.5t-88.5 -58.5q-35 0 -67 23q-35 24 -35 58q0 68 114 104q85 27 172 27q83 0 158 -33q96 -42 96 -113z" />
    <glyph glyph-name="uni2CA60302" unicode="&#x2ca6;&#x302;" horiz-adv-x="1449" 
d="M978 1534q0 -66 -77 -66q-50 0 -121 58.5t-109 58.5q-2 0 -42.5 -58.5t-88.5 -58.5q-35 0 -67 23q-36 25 -36 58q0 68 115 104q86 27 172 27q83 0 158 -33q96 -42 96 -113zM1439 1158q0 -68 -35 -68q-23 0 -68 -13t-68 -13q-65 0 -95 44q-14 21 -27 82q-9 44 -26 44h-284
v-922q0 -32 63.5 -109t63.5 -82q0 -45 -61.5 -90t-108.5 -45q-66 0 -120 38q-59 43 -59 107v1103h-285q-16 0 -26 -44q-13 -62 -27 -82q-29 -44 -95 -44q-23 0 -67.5 13t-67.5 13q-36 0 -36 68q0 188 162 188h1106q161 0 161 -188z" />
    <glyph glyph-name="uni2CA70302" unicode="&#x2ca7;&#x302;" horiz-adv-x="1153" 
d="M1143 799q0 -47 -28 -47q-18 0 -54 -9t-54 -9q-52 0 -75 30q-13 17 -22 56q-7 31 -21 31h-225v-636q0 -22 50.5 -76t50.5 -55q0 -34 -52 -65q-47 -29 -83 -29q-50 0 -92 25q-50 29 -50 76v760h-225q-13 0 -21 -31q-10 -41 -22 -56q-23 -30 -74 -30q-18 0 -54 9t-54 9
q-28 0 -28 47q0 129 128 129h876q129 0 129 -129zM827 1227q0 -66 -77 -66q-50 0 -120 58.5t-109 58.5q-2 0 -43 -58.5t-89 -58.5q-35 0 -67 23q-35 24 -35 58q0 68 114 104q86 27 172 27q83 0 158 -33q96 -42 96 -113z" />
    <glyph glyph-name="uni2CA80302" unicode="&#x2ca8;&#x302;" horiz-adv-x="1334" 
d="M986 1534q0 -66 -76 -66q-51 0 -121.5 58.5t-108.5 58.5q-3 0 -43 -58.5t-88 -58.5q-35 0 -67 23q-36 25 -36 58q0 67 115 104q84 27 172 27q83 0 158 -33q95 -42 95 -113zM1324 1277q0 -54 -50 -136q-53 -87 -103 -87q-19 0 -53.5 15t-52.5 16l-12 -9l-141 -225
q-55 -87 -69 -216q-7 -63 -7 -234v-517q0 -35 63.5 -109.5t63.5 -82.5q0 -44 -67 -92q-60 -43 -103 -43q-68 0 -121 38q-59 42 -59 107v506q0 308 -108 490q-75 126 -324 347q-34 29 -101 89q-70 65 -70 102q0 44 67 92q62 44 104 44q50 0 100 -50q16 -16 76 -96l371 -494
l336 557q51 84 120 84q41 0 86 -24q54 -29 54 -72z" />
    <glyph glyph-name="uni2CA90302" unicode="&#x2ca9;&#x302;" horiz-adv-x="1061" 
d="M1051 881q0 -40 -41 -95q-42 -59 -80 -59q-15 0 -42 10.5t-42 10.5l-9 -6q-134 -192 -145 -217q-28 -66 -28 -248v-377q0 -23 50.5 -75t50.5 -56q0 -34 -52 -65q-47 -29 -83 -29q-50 0 -92 25q-50 29 -50 75v369q0 212 -86 337q-60 87 -257 240q-135 105 -135 132
q0 31 53 63q48 30 82 30q54 0 140 -100l293 -341l267 384q40 58 95 58q35 0 69 -16q42 -19 42 -50zM829 1227q0 -66 -77 -66q-50 0 -120 58.5t-109 58.5q-2 0 -43 -58.5t-89 -58.5q-35 0 -67 23q-35 24 -35 58q0 68 114 104q86 27 172 27q83 0 158 -33q96 -42 96 -113z" />
    <glyph glyph-name="uni2CAA0302" unicode="&#x2caa;&#x302;" horiz-adv-x="1526" 
d="M1022 1679q0 -65 -77 -65q-50 0 -120.5 58t-109.5 58q-3 0 -43.5 -58t-87.5 -58q-34 0 -67 23q-36 24 -36 57q0 68 115 104q86 27 172 27q82 0 158 -33q96 -42 96 -113zM1476 681q0 -243 -184 -414q-167 -155 -414 -193v-190q0 -32 63.5 -109.5t63.5 -81.5q0 -44 -64 -92
q-60 -44 -106 -44q-69 0 -121 38q-58 42 -58 108v368q-241 28 -407 169q-193 164 -199 424q-6 255 182 428q169 156 424 190v31q0 14 -62.5 81.5t-62.5 81.5q0 46 66 93q60 43 104 43q69 0 120 -38q57 -42 57 -108v-183q244 -30 407 -171q191 -166 191 -431zM1234 667
q0 170 -98 311t-258 194v-999q167 42 264 183q92 134 92 311zM656 174v1009q-171 -35 -275 -178q-100 -137 -100 -314q0 -174 104 -320q106 -150 271 -197z" />
    <glyph glyph-name="uni2CAB0302" unicode="&#x2cab;&#x302;" horiz-adv-x="1231" 
d="M867 1335q0 -65 -76 -65q-50 0 -121 58t-109 58q-2 0 -42.5 -58t-88.5 -58q-34 0 -67 23q-36 24 -36 57q0 67 115 104q84 27 172 27q82 0 158 -33q95 -41 95 -113zM1180 494q12 -185 -144 -310q-133 -107 -330 -133v-151q0 -23 50.5 -75.5t50.5 -55.5q0 -32 -52 -64
q-47 -30 -82 -30q-49 0 -92 25q-51 29 -51 75v274q-191 19 -323 117q-153 113 -157 292q-4 183 152 302q133 101 328 124v156q0 22 -49.5 75t-49.5 57q0 31 53 63q48 30 82 30q49 0 91 -25q49 -29 49 -75v-280q187 -20 314 -111q149 -107 160 -280zM989 460q0 122 -83 220
q-79 94 -200 128v-689q243 54 279 293q4 27 4 48zM530 120v696q-239 -43 -290 -276q-7 -32 -7 -64q0 -124 89 -226q85 -99 208 -130z" />
    <glyph glyph-name="uni2CAC0302" unicode="&#x2cac;&#x302;" horiz-adv-x="1293" 
d="M934 1534q0 -66 -77 -66q-50 0 -121 58.5t-109 58.5q-3 0 -43 -58.5t-88 -58.5q-35 0 -67 23q-36 25 -36 58q0 68 115 104q86 27 172 27q83 0 158 -33q96 -42 96 -113zM1243 123q0 -44 -67 -92q-61 -44 -103 -44q-85 0 -179 146l-278 431l-290 -480q-51 -85 -121 -85
q-44 0 -85 22q-49 25 -54 64q-2 13 5 25q26 71 52 130q33 77 96 77q12 0 57 -17q42 -16 48 -14l12 9l219 361q-171 243 -335 389q-34 29 -101 89q-69 65 -69 102q0 44 67 92q62 44 103 44q53 0 101 -50q8 -8 76 -96q107 -138 279 -369l261 432q51 84 120 84q42 0 85 -23
q50 -27 55 -64q1 -10 -6 -24q-25 -69 -52 -131q-33 -77 -95 -77q-12 0 -56 16.5t-50 14.5l-11 -9l-186 -307l332 -455q6 -8 96 -97q74 -73 74 -94z" />
    <glyph glyph-name="uni2CAD0302" unicode="&#x2cad;&#x302;" horiz-adv-x="1046" 
d="M996 85q0 -34 -52 -65q-47 -29 -83 -29q-68 0 -142 101l-219 297l-231 -331q-41 -59 -96 -59q-33 0 -66 15q-40 17 -44 45q-2 8 4 17q21 44 41 89q30 53 76 53q9 0 45.5 -10.5t38.5 -9.5l9 5l173 249q-23 29 -214 216q-182 178 -186 185q0 31 53 63q48 30 82 30
q39 0 80 -35q12 -10 60 -65q112 -128 221 -255l208 298q34 49 81 57q37 6 83 -16q36 -17 41 -43q2 -9 -4 -17q-20 -46 -41 -91q-31 -52 -76 -52q-8 0 -46 12q-34 11 -38 9l-9 -6l-147 -212q21 -25 263 -314q3 -3 76 -66q59 -51 59 -65zM793 1227q0 -66 -77 -66
q-50 0 -120.5 58.5t-108.5 58.5q-3 0 -43.5 -58.5t-88.5 -58.5q-35 0 -67 23q-35 24 -35 58q0 68 114 104q85 27 172 27q83 0 158 -33q96 -42 96 -113z" />
    <glyph glyph-name="uni2CAE0302" unicode="&#x2cae;&#x302;" horiz-adv-x="1334" 
d="M980 1679q0 -65 -76 -65q-51 0 -121.5 58t-108.5 58q-3 0 -43.5 -58t-87.5 -58q-34 0 -67 23q-36 24 -36 57q0 67 115 104q84 27 172 27q82 0 158 -33q95 -41 95 -113zM1324 1277q0 -54 -50 -136q-53 -87 -103 -87q-19 0 -53.5 15t-52.5 16l-12 -9q-158 -262 -181 -331
q-36 -109 -36 -393v-468q0 -35 63.5 -109.5t63.5 -82.5q0 -44 -67 -92q-60 -43 -103 -43q-68 0 -121 38q-59 42 -59 107v507q0 307 -108 489q-77 130 -324 347l-102 88q-69 67 -69 103q0 44 67 92q62 44 104 44q51 0 100 -50q15 -15 76 -96l256 -339v376q0 34 -62.5 108.5
t-62.5 82.5q0 45 63 91q60 44 107 44q68 0 120 -38q58 -42 58 -107v-533l228 378q51 84 120 84q41 0 86 -24q54 -29 54 -72z" />
    <glyph glyph-name="uni2CAF0302" unicode="&#x2caf;&#x302;" horiz-adv-x="1061" 
d="M829 1335q0 -65 -77 -65q-50 0 -120.5 58t-109.5 58q-2 0 -42.5 -58t-88.5 -58q-34 0 -67 23q-36 24 -36 57q0 68 115 104q86 27 172 27q82 0 158 -33q96 -42 96 -113zM1051 881q0 -40 -41 -95q-42 -59 -80 -59q-15 0 -42 10.5t-42 10.5l-9 -6q-125 -179 -146 -236
q-27 -73 -27 -264v-342q0 -23 50.5 -75t50.5 -56q0 -34 -52 -65q-47 -29 -83 -29q-50 0 -92 25q-50 29 -50 75v369q0 212 -86 337q-60 87 -257 240q-135 105 -135 132q0 31 53 63q48 30 82 30q53 0 140 -100l203 -234v398q0 23 -49.5 75t-49.5 57q0 31 53 63q48 30 82 30
q52 0 92 -24q48 -28 48 -76v-507l181 261q40 58 95 58q35 0 69 -16q42 -19 42 -50z" />
    <glyph glyph-name="uni2CB00302" unicode="&#x2cb0;&#x302;" horiz-adv-x="1963" 
d="M1237 1534q0 -66 -77 -66q-50 0 -121 58.5t-109 58.5q-3 0 -43.5 -58.5t-87.5 -58.5q-35 0 -67 23q-36 25 -36 58q0 68 115 104q86 27 172 27q83 0 158 -33q96 -42 96 -113zM1913 717q0 -300 -159 -517q-167 -228 -424 -228q-164 0 -241 16q-106 22 -208 100
q-137 -116 -271 -116q-257 0 -417 224q-143 201 -143 468q0 292 146 494q164 226 445 226q41 0 41 -38q0 -59 -93 -59q-158 0 -237 -170q-63 -135 -63 -334q0 -252 76 -454q99 -263 290 -263q217 0 217 532v447q0 34 -62 109t-62 82q0 46 66 93q60 43 103 43q68 0 120 -38
q57 -43 57 -108v-929q0 -111 96 -176q81 -55 183 -55q294 0 294 532q0 249 -74 439q-97 250 -285 250q-27 0 -37 4q-22 9 -22 55q0 28 9 35q8 4 33 4l68 -1q265 -4 417 -208q137 -184 137 -459z" />
    <glyph glyph-name="uni2CB10302" unicode="&#x2cb1;&#x302;" horiz-adv-x="1577" 
d="M1527 494q0 -212 -123 -358q-131 -155 -339 -155q-130 0 -191 11q-83 15 -165 68q-108 -79 -214 -79q-197 0 -323 141q-122 137 -122 336q0 216 126 353q129 143 343 143q32 0 32 -26q0 -41 -73 -41q-126 0 -189 -117q-49 -91 -49 -230q0 -174 60 -313q79 -182 229 -182
q173 0 173 367v309q0 22 -49.5 75.5t-49.5 56.5q0 31 53 63q48 30 82 30q49 0 91 -25q49 -29 49 -75v-641q0 -75 76 -121q65 -39 145 -39q234 0 234 367q0 171 -59 303q-77 172 -226 172q-47 0 -47 41q0 28 33 27l55 -1q201 -4 321 -132q117 -126 117 -328zM1034 1227
q0 -66 -77 -66q-50 0 -120 58.5t-109 58.5q-2 0 -42.5 -58.5t-89.5 -58.5q-34 0 -66 23q-36 24 -36 58q0 68 114 104q86 27 172 27q83 0 158 -33q96 -42 96 -113z" />
    <glyph glyph-name="uni2CB20302" unicode="&#x2cb2;&#x302;" horiz-adv-x="1305" 
d="M972 1534q0 -66 -76 -66q-52 0 -122.5 58.5t-107.5 58.5q-2 0 -42.5 -58.5t-88.5 -58.5q-35 0 -67 23q-36 25 -36 58q0 67 115 104q84 27 172 27q83 0 158 -33q95 -42 95 -113zM1255 604q0 -49 -38 -119q-42 -77 -81 -77q-4 0 -71.5 73.5t-94.5 73.5h-794q-60 0 -96 70
q-30 58 -30 103q0 49 37 119q41 77 80 77q4 0 71.5 -72t95.5 -72h231v239q0 32 -62 108.5t-62 83.5q0 43 63 90q60 45 105 45q63 0 116 -36q63 -43 63 -109v-421h339q58 0 96 -72q32 -61 32 -104z" />
    <glyph glyph-name="uni2CB30302" unicode="&#x2cb3;&#x302;" horiz-adv-x="1055" 
d="M1005 396q0 -36 -29 -83q-31 -52 -65 -52q-2 0 -56 50.5t-76 50.5h-629q-46 0 -75 49q-25 42 -25 91q0 34 30 82q32 53 63 53q2 0 56.5 -49.5t75.5 -49.5h184v165q0 21 -49.5 75t-49.5 57q0 31 52 63q48 30 82 30q50 0 92 -25q49 -28 49 -75v-290h269q47 0 76 -50
q25 -42 25 -92zM798 1227q0 -66 -77 -66q-51 0 -121 58.5t-108 58.5q-3 0 -43.5 -58.5t-88.5 -58.5q-35 0 -67 23q-35 24 -35 58q0 68 114 104q85 27 172 27q82 0 158 -33q96 -42 96 -113z" />
    <glyph glyph-name="uni2CB40302" unicode="&#x2cb4;&#x302;" horiz-adv-x="1082" 
d="M913 729q0 -73 -50.5 -124t-122.5 -51q-69 0 -120.5 49.5t-51.5 117.5q0 71 50.5 121.5t121.5 50.5q70 0 121.5 -47.5t51.5 -116.5zM1032 123q0 -48 -75 -94q-68 -42 -120 -42q-91 0 -444 366q-343 356 -343 413q0 13 30 45q57 61 165 229q99 155 172 225
q112 108 233 108q51 0 100 -23q61 -29 61 -73q0 -59 -58 -139q-61 -84 -117 -84q-22 0 -62 15t-60 16l-70 34l-220 -311q467 -520 629 -589q51 -19 103 -39q76 -33 76 -57zM697 1534q0 -66 -76 -66q-51 0 -121.5 58.5t-108.5 58.5q-2 0 -42.5 -58.5t-88.5 -58.5
q-35 0 -67 23q-36 25 -36 58q0 67 115 104q84 27 172 27q83 0 158 -33q95 -42 95 -113z" />
    <glyph glyph-name="uni2CB50302" unicode="&#x2cb5;&#x302;" horiz-adv-x="795" 
d="M663 503q0 -49 -35 -85t-84 -36q-48 0 -83.5 33.5t-35.5 81.5q0 47 36 83t83 36q49 0 84 -32t35 -81zM745 85q0 -32 -52 -65q-46 -29 -82 -29q-65 0 -307 252q-236 245 -236 285q0 9 21 31q41 43 114 158q67 105 118 155q77 75 161 75q35 0 69 -16q42 -19 42 -50
q0 -40 -41 -95q-42 -59 -80 -59q-15 0 -42.5 10t-41.5 11l-48 24l-152 -215q323 -361 434 -406q23 -9 70 -27q53 -22 53 -39zM588 1227q0 -66 -77 -66q-50 0 -120 58.5t-109 58.5q-3 0 -43.5 -58.5t-88.5 -58.5q-35 0 -67 23q-35 24 -35 58q0 68 114 104q86 27 172 27
q83 0 158 -33q96 -42 96 -113z" />
    <glyph glyph-name="uni2CB60302" unicode="&#x2cb6;&#x302;" horiz-adv-x="1485" 
d="M954 1534q0 -66 -76 -66q-52 0 -122.5 58.5t-107.5 58.5q-2 0 -42.5 -58.5t-88.5 -58.5q-35 0 -67 23q-36 25 -36 58q0 67 115 104q84 27 172 27q83 0 158 -33q95 -42 95 -113zM1435 549q0 -47 -44 -107q-47 -63 -92 -63q-4 0 -81.5 63.5t-109.5 63.5h-912q-65 0 -107 58
q-39 52 -39 119q0 42 44 104q48 67 92 67q5 0 82 -63t109 -63h912q66 0 108 -58q38 -52 38 -121zM1435 43q0 -42 -44 -104q-48 -67 -92 -67q-4 0 -81.5 64t-109.5 64h-912q-66 0 -108 57q-38 51 -38 120q0 46 46 107.5t90 61.5q5 0 81.5 -62t109.5 -62h912q66 0 108 -58
q38 -53 38 -121zM1435 1055q0 -43 -43 -103q-47 -66 -93 -66q-4 0 -81.5 63.5t-109.5 63.5h-912q-65 0 -107 57q-39 52 -39 119q0 42 44 104q48 67 92 67q5 0 82 -62.5t109 -62.5h912q66 0 108 -59q38 -52 38 -121z" />
    <glyph glyph-name="uni2CB70302" unicode="&#x2cb7;&#x302;" horiz-adv-x="1055" 
d="M1005 708q0 -33 -31 -82q-33 -53 -63 -53q-2 0 -56 50.5t-76 50.5h-629q-46 0 -75 49q-25 42 -25 91q0 34 30 82q32 53 63 53q2 0 56.5 -49.5t75.5 -49.5h629q47 0 76 -50q25 -42 25 -92zM1005 372q0 -36 -29 -83q-31 -52 -65 -52q-2 0 -56 50.5t-76 50.5h-629
q-46 0 -75 49q-25 42 -25 91q0 34 30 82q32 53 63 53q2 0 56.5 -49.5t75.5 -49.5h629q47 0 76 -50q25 -42 25 -92zM1005 36q0 -36 -29 -83q-31 -52 -65 -52q-2 0 -56 50.5t-76 50.5h-629q-46 0 -75 49q-25 42 -25 91q0 34 30 82q32 53 63 53q2 0 56.5 -49.5t75.5 -49.5h629
q46 0 75 -50q26 -43 26 -92zM773 1227q0 -66 -77 -66q-50 0 -120.5 58.5t-108.5 58.5q-3 0 -43.5 -58.5t-88.5 -58.5q-35 0 -67 23q-35 24 -35 58q0 68 114 104q85 27 172 27q83 0 158 -33q96 -42 96 -113z" />
    <glyph glyph-name="uni2CB80302" unicode="&#x2cb8;&#x302;" horiz-adv-x="1274" 
d="M1224 -88q0 -69 -35 -69q-23 0 -68 -13t-68 -13q-62 0 -92 44q-16 24 -30 82q-10 44 -26 44h-686q-45 0 -104 42q-65 47 -65 94q0 28 67 57q23 10 88 39q143 68 548 589l-192 311l-60 -34q-10 -2 -53 -18q-34 -13 -53 -13q-52 0 -105 87q-49 80 -49 136q0 45 53 73
q44 23 87 23q169 0 421 -425q32 -67 75 -137q20 -32 20 -45q0 -41 -234 -334q-214 -268 -281 -333h681q161 0 161 -187zM809 1534q0 -66 -76 -66q-51 0 -121.5 58.5t-108.5 58.5q-2 0 -42.5 -58.5t-88.5 -58.5q-35 0 -67 23q-36 25 -36 58q0 67 115 104q84 27 172 27
q83 0 158 -33q95 -42 95 -113z" />
    <glyph glyph-name="uni2CB90302" unicode="&#x2cb9;&#x302;" horiz-adv-x="1031" 
d="M981 -61q0 -47 -28 -47q-18 0 -54 -9t-54 -9q-50 0 -73 30q-12 15 -23 57q-8 30 -21 30h-544q-37 0 -83 29q-51 31 -51 65q0 19 53 39q18 7 70 27q110 44 434 406l-152 215l-48 -24q-13 -1 -40.5 -11t-43.5 -10q-38 0 -80 59q-41 55 -41 95q0 31 42 50q34 16 69 16
q142 0 333 -293q15 -24 60 -95q16 -19 16 -30q0 -29 -186 -231q-172 -187 -222 -230h539q128 0 128 -129zM714 1227q0 -66 -77 -66q-50 0 -120.5 58.5t-108.5 58.5q-3 0 -43.5 -58.5t-88.5 -58.5q-35 0 -67 23q-35 24 -35 58q0 68 114 104q85 27 172 27q83 0 158 -33
q96 -42 96 -113z" />
    <glyph glyph-name="uni2CBA0302" unicode="&#x2cba;&#x302;" horiz-adv-x="1485" 
d="M955 1534q0 -66 -76 -66q-52 0 -122.5 58.5t-107.5 58.5q-2 0 -42.5 -58.5t-88.5 -58.5q-35 0 -67 23q-36 25 -36 58q0 67 115 104q84 27 172 27q83 0 158 -33q95 -42 95 -113zM1435 855q0 -44 -43 -104q-47 -66 -93 -66q-4 0 -81.5 63.5t-109.5 63.5h-912q-65 0 -107 58
q-39 52 -39 119q0 42 44 103q48 67 92 67q5 0 82 -62.5t109 -62.5h912q66 0 108 -58q38 -53 38 -121z" />
    <glyph glyph-name="uni2CBB0302" unicode="&#x2cbb;&#x302;" horiz-adv-x="1055" 
d="M1005 571q0 -36 -29 -83q-31 -52 -65 -52q-2 0 -56 50.5t-76 50.5h-629q-46 0 -75 49q-25 42 -25 91q0 34 30 82q32 53 63 53q2 0 56.5 -49.5t75.5 -49.5h629q47 0 76 -50q25 -42 25 -92zM798 1227q0 -66 -77 -66q-51 0 -121 58.5t-108 58.5q-3 0 -43.5 -58.5
t-88.5 -58.5q-35 0 -67 23q-35 24 -35 58q0 68 114 104q85 27 172 27q82 0 158 -33q96 -42 96 -113z" />
    <glyph glyph-name="uni2CBC0302" unicode="&#x2cbc;&#x302;" horiz-adv-x="1461" 
d="M1411 123q0 -46 -66 -93q-60 -43 -104 -43q-69 0 -121 38q-58 42 -58 108v912q0 33 -62.5 109.5t-62.5 81.5q0 46 67 93q61 43 103 43q67 0 119 -39q58 -42 58 -107v-912q0 -32 63.5 -109.5t63.5 -81.5zM970 123q0 -44 -64 -92q-60 -44 -106 -44q-64 0 -117 36
q-63 43 -63 110v912q0 33 -62.5 109.5t-62.5 81.5q0 46 67 93q61 43 103 43q68 0 120 -38q58 -42 58 -108v-912q0 -32 63.5 -109.5t63.5 -81.5zM524 123q0 -44 -64 -91q-60 -45 -106 -45q-68 0 -121 38q-58 42 -58 108v912q0 33 -62.5 109.5t-62.5 81.5q0 46 66 93
q60 43 104 43q68 0 120 -38q57 -42 57 -108v-912q0 -32 63.5 -109.5t63.5 -81.5zM981 1534q0 -66 -76 -66q-51 0 -121.5 58.5t-108.5 58.5q-2 0 -42.5 -58.5t-88.5 -58.5q-35 0 -67 23q-36 25 -36 58q0 67 115 104q84 27 172 27q84 0 158 -33q95 -42 95 -113z" />
    <glyph glyph-name="uni2CBD0302" unicode="&#x2cbd;&#x302;" horiz-adv-x="1179" 
d="M1129 85q0 -32 -52 -64q-47 -30 -82 -30q-51 0 -93 25q-50 29 -50 76v629q0 21 -49 75.5t-49 56.5q0 31 52 63q48 30 82 30q49 0 91 -25q49 -29 49 -75v-630q0 -22 50.5 -76t50.5 -55zM779 85q0 -32 -52 -64q-47 -30 -82 -30q-51 0 -93 25q-50 29 -50 76v629
q0 21 -49.5 75.5t-49.5 56.5q0 31 53 63q48 30 82 30q49 0 91 -25q49 -29 49 -75v-630q0 -22 50.5 -76t50.5 -55zM426 85q0 -32 -52 -64q-47 -30 -82 -30q-51 0 -93 25q-50 29 -50 76v629q0 21 -49.5 75.5t-49.5 56.5q0 31 53 63q48 30 82 30q49 0 91 -25q49 -29 49 -75
v-630q0 -22 50.5 -76t50.5 -55zM845 1227q0 -66 -77 -66q-51 0 -121 58.5t-108 58.5q-3 0 -43.5 -58.5t-88.5 -58.5q-35 0 -67 23q-35 24 -35 58q0 68 114 104q85 27 172 27q82 0 158 -33q96 -42 96 -113z" />
    <glyph glyph-name="uni2CBE0302" unicode="&#x2cbe;&#x302;" horiz-adv-x="1744" 
d="M1734 809q0 -187 -162 -187h-288v-309q0 -32 64 -109t64 -81q0 -44 -64 -92q-60 -44 -106 -44q-64 0 -117 36q-63 43 -63 110v489h-219v-309q0 -32 63.5 -109t63.5 -81q0 -43 -67 -92q-61 -44 -102 -44q-65 0 -118 36q-63 43 -63 110v489h-223v-309q0 -32 63.5 -109
t63.5 -81q0 -46 -60.5 -91t-108.5 -45q-69 0 -121 38q-59 42 -59 108v912q0 32 -62.5 109t-62.5 83q0 44 64 91q61 44 107 44q67 0 119 -38q57 -42 57 -107v-493h223v311q0 32 -62.5 109t-62.5 83q0 43 63 89t108 46q67 0 119 -38q58 -42 58 -107v-493h219v311q0 32 -62 109
t-62 83q0 43 62 89t107 46q67 0 119 -38q58 -42 58 -107v-493h131q16 0 26 44q13 58 29 81q30 44 93 44q23 0 68 -13t68 -13q35 0 35 -68zM963 1534q0 -66 -76 -66q-51 0 -121.5 58.5t-108.5 58.5q-2 0 -42.5 -58.5t-88.5 -58.5q-35 0 -67 23q-36 25 -36 58q0 67 115 104
q84 27 172 27q83 0 158 -33q95 -42 95 -113z" />
    <glyph glyph-name="uni2CBF0302" unicode="&#x2cbf;&#x302;" horiz-adv-x="1395" 
d="M1385 558q0 -129 -128 -129h-229v-213q0 -22 50.5 -76t50.5 -55q0 -32 -52 -64q-47 -30 -82 -30q-51 0 -93 25q-50 29 -50 76v337h-174v-213q0 -22 50.5 -76t50.5 -55q0 -32 -52 -64q-47 -30 -82 -30q-51 0 -93 25q-50 29 -50 76v337h-177v-213q0 -22 50.5 -76t50.5 -55
q0 -32 -52 -64q-47 -30 -82 -30q-51 0 -93 25q-50 29 -50 76v629q0 21 -49.5 75.5t-49.5 56.5q0 31 53 63q48 30 82 30q49 0 91 -25q49 -29 49 -75v-340h177v215q0 21 -49.5 75.5t-49.5 56.5q0 31 53 63q48 30 82 30q49 0 91 -25q49 -29 49 -75v-340h174v215q0 21 -49 75.5
t-49 56.5q0 31 52 63q48 30 82 30q49 0 91 -25q49 -29 49 -75v-340h104q13 0 21 30q11 43 22 57q23 30 74 30q18 0 54 -9t54 -9q28 0 28 -47zM837 1227q0 -66 -77 -66q-50 0 -120 58.5t-109 58.5q-3 0 -43.5 -58.5t-88.5 -58.5q-35 0 -67 23q-35 24 -35 58q0 68 114 104
q86 27 172 27q83 0 158 -33q96 -42 96 -113z" />
    </font>
</defs>
</svg>
